/* XPM */
static char *_0a8250b59ed4796bdc78f137d90ba4agNaMYI7QASpjrQPW[] = {
/* columns rows colors chars-per-pixel */
"64 64 170 2 ",
"   c #17211F",
".  c #172220",
"X  c #192322",
"o  c #262B21",
"O  c #2B2E23",
"+  c #2E3125",
"@  c #27332F",
"#  c #2B352F",
"$  c #303327",
"%  c #3D3927",
"&  c #34362B",
"*  c #36392C",
"=  c #3A3B2D",
"-  c #263631",
";  c #2B3631",
":  c #2E3933",
">  c #343D35",
",  c #3B3D31",
"<  c #333E38",
"1  c #423D2A",
"2  c #374037",
"3  c #3C4136",
"4  c #364139",
"5  c #3B433A",
"6  c #47412C",
"7  c #4B452F",
"8  c #414236",
"9  c #4A4733",
"0  c #43463A",
"q  c #484739",
"w  c #44493D",
"e  c #4C4B3B",
"r  c #524E3C",
"t  c #55513F",
"y  c #5C543E",
"u  c #60563F",
"i  c #3E4741",
"p  c #314944",
"a  c #3F4A43",
"s  c #3B5048",
"d  c #434C44",
"f  c #4B4E41",
"g  c #454E48",
"h  c #475147",
"j  c #4C5146",
"k  c #435148",
"l  c #4C534B",
"z  c #48584E",
"x  c #535243",
"c  c #5B5542",
"v  c #5F5844",
"b  c #525649",
"n  c #565B4E",
"m  c #5C5B4C",
"M  c #515751",
"N  c #555B53",
"B  c #595E52",
"V  c #615740",
"C  c #645A44",
"Z  c #695E47",
"A  c #635D49",
"S  c #685F4A",
"D  c #43655E",
"F  c #536156",
"G  c #5C6154",
"H  c #5C6259",
"J  c #6C6047",
"K  c #6D634B",
"L  c #72664D",
"P  c #75684F",
"I  c #626355",
"U  c #6D6753",
"Y  c #62665B",
"T  c #65695B",
"R  c #6B6C5D",
"E  c #746A53",
"W  c #7B6E54",
"Q  c #7E7157",
"!  c #76705B",
"~  c #7D735B",
"^  c #587065",
"/  c #52796F",
"(  c #646961",
")  c #6C6F61",
"_  c #6E7163",
"`  c #687468",
"'  c #727364",
"]  c #787866",
"[  c #717469",
"{  c #76796D",
"}  c #7C7E6F",
"|  c #697E73",
" . c #7B7E71",
".. c #81755B",
"X. c #847B62",
"o. c #897E65",
"O. c #60857B",
"+. c #7E8176",
"@. c #7E8379",
"#. c #8C8067",
"$. c #8D8269",
"%. c #92866C",
"&. c #96896E",
"*. c #988A6E",
"=. c #8E8670",
"-. c #81857B",
";. c #8C8D7F",
":. c #978B71",
">. c #9B8D72",
",. c #9F9074",
"<. c #9E947E",
"1. c #A19276",
"2. c #A49579",
"3. c #AC9B7E",
"4. c #729287",
"5. c #8C8D80",
"6. c #949283",
"7. c #9D9682",
"8. c #96968A",
"9. c #9A998C",
"0. c #9F9F91",
"q. c #A19781",
"w. c #A39982",
"e. c #AC9E83",
"r. c #A79F89",
"t. c #A09F93",
"y. c #9CAA9E",
"u. c #ADA087",
"i. c #AEA28A",
"p. c #B2A387",
"a. c #B3A68C",
"s. c #B8A78A",
"d. c #B6A98F",
"f. c #BBAA8C",
"g. c #BEAD8E",
"h. c #A3A294",
"j. c #A7A79B",
"k. c #AAA798",
"l. c #ABA99C",
"z. c #ADAA9D",
"x. c #AEAC9F",
"c. c #B1A790",
"v. c #B5AA94",
"b. c #BFAE90",
"n. c #B8AC95",
"m. c #B2AE9D",
"M. c #BAAF99",
"N. c #BCB29D",
"B. c #AFADA0",
"V. c #B1AFA2",
"C. c #B2B0A3",
"Z. c #B2B0A4",
"A. c #B6B3A4",
"S. c #BEB5A2",
"D. c #B7B4A8",
"F. c #B9B6A9",
"G. c #BCB9AE",
"H. c #BFBBB0",
"J. c #C0AF90",
"K. c #C0B59F",
"L. c #C2B7A0",
"P. c #C4BAA6",
"I. c #C3BCAA",
"U. c #C9BFAC",
"Y. c #C2BEB2",
"T. c #CBC2AE",
"R. c #C5C1B5",
"E. c #CBC4B4",
"W. c #CDC7B9",
"Q. c #D0CABB",
/* pixels */
"Q.Q.Q.Q.Q.Q.Q.Q.Q.Q.Q.Q.Q.Q.Q.Q.Q.Q.Q.Q.Q.Q.Q.Q.Q.Q.Q.Q.Q.Q.Q.Q.Q.Q.Q.Q.Q.Q.Q.Q.Q.Q.Q.Q.Q.Q.Q.Q.Q.Q.Q.Q.Q.Q.Q.Q.Q.Q.Q.Q.Q.Q.Q.Q.",
"Q.Q.Q.Q.Q.Q.Q.Q.Q.Q.Q.Q.Q.Q.Q.Q.Q.Q.Q.Q.Q.Q.Q.Q.Q.Q.Q.Q.Q.Q.Q.Q.Q.Q.Q.Q.Q.Q.Q.Q.Q.Q.Q.Q.Q.Q.Q.Q.Q.Q.Q.Q.Q.Q.Q.Q.Q.Q.Q.Q.Q.Q.Q.Q.",
"Q.Q.Q.Q.Q.Q.Q.Q.Q.Q.Q.Q.Q.Q.Q.Q.Q.Q.Q.Q.Q.Q.Q.Q.Q.Q.Q.Q.Q.Q.Q.Q.Q.Q.Q.Q.Q.Q.Q.Q.Q.Q.Q.Q.Q.Q.Q.Q.Q.Q.Q.Q.Q.Q.Q.Q.Q.Q.Q.Q.Q.Q.Q.Q.",
"Q.Q.Q.Q.Q.Q.Q.Q.Q.Q.Q.Q.Q.Q.Q.Q.Q.Q.Q.Q.Q.Q.Q.Q.Q.Q.Q.Q.Q.Q.Q.Q.Q.Q.Q.Q.Q.Q.Q.Q.Q.Q.Q.Q.Q.Q.Q.Q.Q.Q.Q.Q.Q.Q.Q.Q.Q.Q.Q.Q.Q.Q.Q.Q.",
"Q.Q.Q.Q.Q.Q.Q.Q.Q.Q.Q.Q.Q.Q.Q.Q.Q.Q.Q.Q.Q.Q.Q.Q.Q.Q.Q.Q.Q.Q.Q.Q.Q.Q.Q.Q.Q.Q.Q.Q.Q.Q.Q.Q.Q.Q.Q.Q.Q.Q.Q.Q.Q.Q.Q.Q.Q.Q.Q.Q.Q.Q.Q.Q.",
"Q.Q.Q.Q.Q.Q.Q.Q.Q.Q.Q.Q.Q.Q.Q.Q.Q.Q.Q.Q.Q.Q.Q.Q.Q.Q.Q.Q.Q.Q.Q.Q.Q.Q.Q.Q.Q.Q.Q.Q.Q.Q.Q.Q.Q.Q.Q.Q.Q.Q.Q.Q.Q.Q.Q.Q.Q.Q.Q.Q.Q.Q.Q.Q.",
"Q.Q.Q.Q.Q.Q.Q.Q.Q.Q.Q.Q.Q.Q.Q.Q.Q.Q.Q.Q.Q.Q.Q.Q.Q.Q.Q.Q.Q.Q.Q.Q.Q.Q.Q.Q.Q.Q.Q.Q.Q.Q.Q.Q.Q.Q.Q.Q.Q.Q.Q.Q.Q.Q.Q.Q.Q.Q.Q.Q.Q.Q.Q.Q.",
"Q.Q.Q.Q.Q.Q.Q.Q.Q.Q.Q.Q.Q.Q.Q.Q.Q.Q.Q.Q.Q.Q.Q.Q.Q.Q.Q.Q.Q.Q.Q.Q.Q.Q.Q.Q.Q.Q.Q.Q.Q.Q.Q.Q.Q.Q.Q.Q.Q.Q.Q.Q.Q.Q.Q.Q.Q.Q.Q.Q.Q.Q.Q.Q.",
"Q.Q.Q.Q.Q.Q.Q.Q.Q.Q.Q.Q.Q.Q.Q.Q.Q.Q.Q.Q.Q.Q.Q.Q.Q.Q.Q.Q.Q.Q.Q.Q.Q.Q.Q.Q.Q.Q.Q.Q.Q.Q.Q.Q.Q.Q.Q.Q.Q.Q.Q.Q.Q.Q.Q.Q.Q.Q.Q.Q.Q.Q.Q.Q.",
"Q.Q.Q.Q.Q.Q.Q.Q.Q.Q.Q.Q.Q.Q.Q.Q.Q.Q.Q.Q.Q.Q.Q.Q.Q.Q.Q.Q.Q.Q.Q.Q.Q.Q.Q.Q.Q.Q.Q.Q.Q.Q.Q.Q.Q.Q.Q.Q.Q.Q.Q.Q.Q.Q.Q.Q.Q.Q.Q.Q.Q.Q.Q.Q.",
"Q.Q.Q.Q.Q.Q.Q.Q.Q.Q.Q.Q.Q.Q.Q.Q.Q.Q.Q.Q.Q.Q.Q.Q.Q.Q.Q.Q.Q.Q.Q.Q.Q.Q.Q.Q.Q.Q.Q.Q.Q.Q.Q.Q.Q.Q.Q.Q.Q.Q.Q.Q.Q.Q.Q.Q.Q.Q.Q.Q.Q.Q.Q.Q.",
"Q.Q.Q.Q.Q.Q.Q.Q.Q.Q.Q.Q.Q.Q.Q.Q.Q.Q.Q.Q.Q.Q.Q.Q.Q.Q.Q.Q.Q.Q.Q.Q.Q.Q.Q.Q.Q.Q.Q.Q.Q.Q.Q.Q.Q.Q.Q.Q.Q.Q.Q.Q.Q.Q.Q.Q.Q.Q.Q.Q.Q.Q.Q.Q.",
"Q.Q.Q.Q.Q.Q.Q.Q.Q.Q.Q.Q.Q.7 O X X X X X X X X X X X X X X X X X . X X X X X X X X X X X   X X     o 9 Q.Q.Q.Q.Q.Q.Q.Q.Q.Q.Q.Q.Q.",
"Q.Q.Q.Q.Q.Q.Q.Q.Q.Q.Q.Q.Q.r O B -.-.-.-.@.@.-.@.@.@.@.-.@.@.@.5 i @.@.@.@.-.@.@.-.@.-.-.@.@.@.-.H + r Q.Q.Q.Q.Q.Q.Q.Q.Q.Q.Q.Q.Q.",
"Q.Q.Q.Q.Q.Q.Q.Q.Q.Q.Q.Q.Q.y + R V.B.V.C.V.V.V.V.V.V.C.V.V.V.V.f l V.V.V.V.V.V.V.C.V.V.V.x.x.m.m._ + v Q.Q.Q.Q.Q.Q.Q.Q.Q.Q.Q.Q.Q.",
"Q.Q.Q.Q.Q.Q.Q.Q.Q.Q.Q.Q.Q.v + ) C.V.V.C.V.V.C.V.C.V.C.V.V.V.V.j N V.Z.V.V.V.C.Z.C.C.C.V.V.V.V.V._ + v Q.Q.Q.Q.Q.Q.Q.Q.Q.Q.Q.Q.Q.",
"Q.Q.Q.Q.Q.Q.Q.Q.Q.Q.Q.Q.Q.C + ) x.B.B.B.B.V.B.B.B.B.V.B.H H ( f M H H H H H H ) V.V.V.x.z.z.x.x._ + C Q.Q.Q.Q.Q.Q.Q.Q.Q.Q.Q.Q.Q.",
"Q.Q.Q.Q.Q.Q.Q.Q.Q.Q.Q.Q.Q.K & R z.x.x.B.B.B.B.V.V.z.z.d < 2 8.j N > 4 h B 4 < > C.B.B.z.z.x.x.x._ $ K Q.Q.Q.Q.Q.Q.Q.Q.Q.Q.Q.Q.Q.",
"Q.Q.Q.Q.Q.Q.Q.Q.Q.Q.Q.Q.Q.E & _ z.x.B.V.V.B.B.V.B.l.t.< 4 h l.j N < d +.z.d < < C.B.V.B.z.x.x.z._ & K Q.Q.Q.Q.Q.Q.Q.Q.Q.Q.Q.Q.Q.",
"Q.Q.Q.Q.Q.Q.Q.Q.Q.Q.Q.Q.Q.~ & R z.B.B.V.B.B.B.V.B.5 > 4 9.l.x.b N j z.V.l.d 4 5 Z.V.V.B.x.x.B.x.[ & W Q.Q.Q.Q.Q.Q.Q.Q.Q.Q.Q.Q.Q.",
"Q.Q.Q.Q.Q.Q.Q.Q.Q.Q.Q.Q.Q.X.& R l.z.x.x.B.B.B.B.l < 4 9.8.[ [ b N V.B.h.Y 4 < +.V.V.V.x.z.z.x.z._ & ! Q.Q.Q.Q.Q.Q.Q.Q.Q.Q.Q.Q.Q.",
"Q.Q.Q.Q.Q.Q.Q.Q.Q.Q.Q.Q.Q.X.* T z.z.x.B.B.z.x.5.< 5 Y x.-.> > j N V.h.-.> < b x.B.B.V.x.z.z.x.z._ & ~ Q.Q.Q.Q.Q.Q.Q.Q.Q.Q.Q.Q.Q.",
"Q.Q.Q.Q.Q.Q.Q.Q.Q.Q.Q.Q.Q.X.= R z.z.x.V.x.z.B.< 2 2 < 4 4 2 < b N 0.2 > < h.x.B.x.B.B.B.x.z.z.x._ & ~ Q.Q.Q.Q.Q.Q.Q.Q.Q.Q.Q.Q.Q.",
"Q.Q.Q.Q.Q.Q.Q.Q.Q.Q.Q.Q.Q.X.= T q.q.7.q.<.q.q.2 2 2 2 2 4 4 < b n 2 4 < 2 N B l <.w.w.q.q.q.q.w._ * ~ Q.Q.Q.Q.Q.Q.Q.Q.Q.Q.Q.Q.Q.",
"Q.Q.Q.Q.Q.Q.Q.Q.Q.Q.Q.Q.Q.#.* R s.s.s.J.s.g.g.g.g.b.g.g.=.2 2 b m 2 2 2 4 2 4 4 1.p.f.s.s.s.f.s.) * X.Q.Q.Q.Q.Q.Q.Q.Q.Q.Q.Q.Q.Q.",
"Q.Q.Q.Q.Q.Q.Q.Q.Q.Q.Q.Q.Q.$.= R f.g.f.b.s.g.g.b.g.g.g.g.>.b b b B b b b b b b x p.f.f.f.s.s.s.s.' * X.Q.Q.Q.Q.Q.Q.Q.Q.Q.Q.Q.Q.Q.",
"Q.Q.Q.Q.Q.Q.Q.Q.Q.Q.Q.Q.Q.o.= U *.&.%.&.&.&.&.&.&.:.>.&.*.*.%.m x &.&.&.*.&.*.*.>.&.&.&.&.&.&.%.T = X.Q.Q.Q.Q.Q.Q.Q.Q.Q.Q.Q.Q.Q.",
"Q.Q.Q.Q.Q.Q.Q.Q.Q.Q.Q.Q.Q.%.= R 2.1.2.2.2.2.2.T.N.e.e.T.U.L.2.7.6.$.P.P.3.K.P.e.2.1.2.1.,.1.1.2.' = o.Q.Q.Q.Q.Q.Q.Q.Q.Q.Q.Q.Q.Q.",
"Q.Q.Q.Q.Q.Q.Q.Q.Q.Q.Q.Q.Q.$.= R 1.>.,.,.,.,.1.E.K.e.i.P.P.U.2.A.k.X.E.E.1.I.P.e.1.1.>.>.>.>.>.>.R = X.Q.Q.Q.Q.Q.Q.Q.Q.Q.Q.Q.Q.Q.",
"Q.Q.Q.Q.Q.Q.Q.Q.Q.Q.Q.Q.Q.%.= T #.$.%.%.%.&.:.W.E.%.d.=.X.2.:.5. .%.v.N.2.E.v.I.:.%.%.%.%.$.$.$.R = X.Q.Q.Q.Q.Q.Q.Q.Q.Q.Q.Q.Q.Q.",
"Q.Q.Q.Q.Q.Q.Q.Q.Q.Q.Q.Q.Q.:.= R M.S.n.S.E.N.c.E.n.p.i.S.N.M.u.{ I W.v.S.a.M.c.N.v.a.i.a.i.i.i.i.] , $.Q.Q.Q.Q.Q.Q.Q.Q.Q.Q.Q.Q.Q.",
"Q.Q.Q.Q.Q.Q.Q.Q.Q.Q.Q.Q.Q.:., R a.v.N.n.N.v.a.N.a.u.e.n.v.a.e.R m N.a.n.a.a.i.c.a.i.i.i.e.u.i.u.] , $.Q.Q.Q.Q.Q.Q.Q.Q.Q.Q.Q.Q.Q.",
"Q.Q.Q.Q.Q.Q.Q.Q.Q.Q.Q.Q.Q.$.= B ; @ @ ; : ; ; g : : 2 > < d @ 5 : : d a ; d d a ; ; : : : ; : ; B = X.Q.Q.Q.Q.Q.Q.Q.Q.Q.Q.Q.Q.Q.",
"Q.Q.Q.Q.Q.Q.Q.Q.Q.Q.Q.Q.Q.$.= B ; ; > : > : > Y.d 5 H N ( G.: l.{ R.H H G Y.Y { d 4 : 5 : > > ; G * X.Q.Q.Q.Q.Q.Q.Q.Q.Q.Q.Q.Q.Q.",
"Q.Q.Q.Q.Q.Q.Q.Q.Q.Q.Q.Q.Q.$.= B ; > w > 2 > < H.d 5 G N ( G.> j.` 8.j.+.d D.;.d 4 < : w > < < ; G * X.Q.Q.Q.Q.Q.Q.Q.Q.Q.Q.Q.Q.Q.",
"Q.Q.Q.Q.Q.Q.Q.Q.Q.Q.Q.Q.Q.#.= B : 5 w w 2 > > Y.j d Y H _ G.: h.) H +.h.T 6.-.l.2 < ; w < 5 0 3 G * ..Q.Q.Q.Q.Q.Q.Q.Q.Q.Q.Q.Q.Q.",
"Q.Q.Q.Q.Q.Q.Q.Q.Q.Q.Q.Q.Q.$.= B f f 5 : : 2 0 Y.Y.x.w F.G.h.> h.' k.R.Y.n F.Y.A.5 < w 2 2 < 0 e B * X.Q.Q.Q.Q.Q.Q.Q.Q.Q.Q.Q.Q.Q.",
"Q.Q.Q.Q.Q.Q.Q.Q.Q.Q.Q.Q.Q.o.= N # < 2 2 w 2 < 0 0 5 2 3 0 0 e 3 > x q w 5 < 2 w x w 0 5 0 5 > 3 n * ~ Q.Q.Q.Q.Q.Q.Q.Q.Q.Q.Q.Q.Q.",
"Q.Q.Q.Q.Q.Q.Q.Q.Q.Q.Q.Q.Q.#.= N 3 0 0 0 0 e e e q e 0 r r C e , & r I z ^ B B c v v v r 0 q e e G = ..Q.Q.Q.Q.Q.Q.Q.Q.Q.Q.Q.Q.Q.",
"Q.Q.Q.Q.Q.Q.Q.Q.Q.Q.Q.Q.Q.o.= B 8 q e e x C c t c e v t c c J , # y w b p | G b [ I v V r e e e B = ~ Q.Q.Q.Q.Q.Q.Q.Q.Q.Q.Q.Q.Q.",
"Q.Q.Q.Q.Q.Q.Q.Q.Q.Q.Q.Q.Q.o.= B , c t c L e r C e Z E y C e P , & y 3 h n D ` ' ` I S x c V q c G = ~ Q.Q.Q.Q.Q.Q.Q.Q.Q.Q.Q.Q.Q.",
"Q.Q.Q.Q.Q.Q.Q.Q.Q.Q.Q.Q.Q.o.* m c C S c c C c r Z E x J c C Q , > 0 V e k R F 9./ O._ t c x c c B = ~ Q.Q.Q.Q.Q.Q.Q.Q.Q.Q.Q.Q.Q.",
"Q.Q.Q.Q.Q.Q.Q.Q.Q.Q.Q.Q.Q.o.* m L t t c C e r V E c V C V Z ..3 3 r C C 8 T ] } | ` ;.c t t y e G & ~ Q.Q.Q.Q.Q.Q.Q.Q.Q.Q.Q.Q.Q.",
"Q.Q.Q.Q.Q.Q.Q.Q.Q.Q.Q.Q.Q.o.= n f C L C C C C E c J W x J J ..8 , J y Z u , - r.G.4.y.U V J r K I = ~ Q.Q.Q.Q.Q.Q.Q.Q.Q.Q.Q.Q.Q.",
"Q.Q.Q.Q.Q.Q.Q.Q.Q.Q.Q.Q.Q.X.= B t K r 0 C C ~ W t W W c L L ..0 , L e c L r > G h.F.G.! t c K x G = ~ Q.Q.Q.Q.Q.Q.Q.Q.Q.Q.Q.Q.Q.",
"Q.Q.Q.Q.Q.Q.Q.Q.Q.Q.Q.Q.Q.X.= G L c C J C P W c J L c L P P ..w & L c e E C y > 4 a s c L C t K I * ~ Q.Q.Q.Q.Q.Q.Q.Q.Q.Q.Q.Q.Q.",
"Q.Q.Q.Q.Q.Q.Q.Q.Q.Q.Q.Q.Q.X.= Y m U U m E W U v ~ E A ~ ~ ~ W w 2 E U m W E K S 5 x x x E W K A I * ~ Q.Q.Q.Q.Q.Q.Q.Q.Q.Q.Q.Q.Q.",
"Q.Q.Q.Q.Q.Q.Q.Q.Q.Q.Q.Q.Q.X.& T ) _ R ) _ _ _ _ _ ' _ ' _ ' _ i 2 _ ) _ _ _ _ _ _ _ _ _ _ _ ' _ G & ~ Q.Q.Q.Q.Q.Q.Q.Q.Q.Q.Q.Q.Q.",
"Q.Q.Q.Q.Q.Q.Q.Q.Q.Q.Q.Q.Q.~ 6 1 1 1 1 1 1 1 1 % % 1 % % % % 1 1 % 1 1 1 1 1 1 1 1 1 1 1 1 1 1 1 1 6 Q Q.Q.Q.Q.Q.Q.Q.Q.Q.Q.Q.Q.Q.",
"Q.Q.Q.Q.Q.Q.Q.Q.Q.Q.Q.Q.Q.C y y u y u V u V V V u u u V y u u V y V V V V V u y V V u V V V V V V y C Q.Q.Q.Q.Q.Q.Q.Q.Q.Q.Q.Q.Q.",
"Q.Q.Q.Q.Q.Q.Q.Q.Q.Q.Q.Q.Q.Q.Q.Q.Q.Q.Q.Q.Q.Q.Q.Q.Q.Q.Q.Q.Q.Q.Q.Q.Q.Q.Q.Q.Q.Q.Q.Q.Q.Q.Q.Q.Q.Q.Q.Q.Q.Q.Q.Q.Q.Q.Q.Q.Q.Q.Q.Q.Q.Q.Q.Q.",
"Q.Q.Q.Q.Q.Q.Q.Q.Q.Q.Q.Q.Q.Q.Q.Q.Q.Q.Q.Q.Q.Q.Q.Q.Q.Q.Q.Q.Q.Q.Q.Q.Q.Q.Q.Q.Q.Q.Q.Q.Q.Q.Q.Q.Q.Q.Q.Q.Q.Q.Q.Q.Q.Q.Q.Q.Q.Q.Q.Q.Q.Q.Q.Q.",
"Q.Q.Q.Q.Q.Q.Q.Q.Q.Q.Q.Q.Q.Q.Q.Q.Q.Q.Q.Q.Q.Q.Q.Q.Q.Q.Q.Q.Q.Q.Q.Q.Q.Q.Q.Q.Q.Q.Q.Q.Q.Q.Q.Q.Q.Q.Q.Q.Q.Q.Q.Q.Q.Q.Q.Q.Q.Q.Q.Q.Q.Q.Q.Q.",
"Q.Q.Q.Q.Q.Q.Q.Q.Q.Q.Q.Q.Q.Q.Q.Q.Q.Q.Q.Q.Q.Q.Q.Q.Q.Q.Q.Q.Q.Q.Q.Q.Q.Q.Q.Q.Q.Q.Q.Q.Q.Q.Q.Q.Q.Q.Q.Q.Q.Q.Q.Q.Q.Q.Q.Q.Q.Q.Q.Q.Q.Q.Q.Q.",
"Q.Q.Q.Q.Q.Q.Q.Q.Q.Q.Q.Q.Q.Q.Q.Q.Q.Q.Q.Q.Q.Q.Q.Q.Q.Q.Q.Q.Q.Q.Q.Q.Q.Q.Q.Q.Q.Q.Q.Q.Q.Q.Q.Q.Q.Q.Q.Q.Q.Q.Q.Q.Q.Q.Q.Q.Q.Q.Q.Q.Q.Q.Q.Q.",
"Q.Q.Q.Q.Q.Q.Q.Q.Q.Q.Q.Q.Q.Q.Q.Q.Q.Q.Q.Q.Q.Q.Q.Q.Q.Q.Q.Q.Q.Q.Q.Q.Q.Q.Q.Q.Q.Q.Q.Q.Q.Q.Q.Q.Q.Q.Q.Q.Q.Q.Q.Q.Q.Q.Q.Q.Q.Q.Q.Q.Q.Q.Q.Q.",
"Q.Q.Q.Q.Q.Q.Q.Q.Q.Q.Q.Q.Q.Q.Q.Q.Q.Q.Q.Q.Q.Q.Q.Q.Q.Q.Q.Q.Q.Q.Q.Q.Q.Q.Q.Q.Q.Q.Q.Q.Q.Q.Q.Q.Q.Q.Q.Q.Q.Q.Q.Q.Q.Q.Q.Q.Q.Q.Q.Q.Q.Q.Q.Q.",
"Q.Q.Q.Q.Q.Q.Q.Q.Q.Q.Q.Q.Q.Q.Q.Q.Q.Q.Q.Q.Q.Q.Q.Q.Q.Q.Q.Q.Q.Q.Q.Q.Q.Q.Q.Q.Q.Q.Q.Q.Q.Q.Q.Q.Q.Q.Q.Q.Q.Q.Q.Q.Q.Q.Q.Q.Q.Q.Q.Q.Q.Q.Q.Q.",
"Q.Q.Q.Q.Q.Q.Q.Q.Q.Q.Q.Q.Q.Q.Q.Q.Q.Q.Q.Q.Q.Q.Q.Q.Q.Q.Q.Q.Q.Q.Q.Q.Q.Q.Q.Q.Q.Q.Q.Q.Q.Q.Q.Q.Q.Q.Q.Q.Q.Q.Q.Q.Q.Q.Q.Q.Q.Q.Q.Q.Q.Q.Q.Q.",
"Q.Q.Q.Q.Q.Q.Q.Q.Q.Q.Q.Q.Q.Q.Q.Q.Q.Q.Q.Q.Q.Q.Q.Q.Q.Q.Q.Q.Q.Q.Q.Q.Q.Q.Q.Q.Q.Q.Q.Q.Q.Q.Q.Q.Q.Q.Q.Q.Q.Q.Q.Q.Q.Q.Q.Q.Q.Q.Q.Q.Q.Q.Q.Q.",
"Q.Q.Q.Q.Q.Q.Q.Q.Q.Q.Q.Q.Q.Q.Q.Q.Q.Q.Q.Q.Q.Q.Q.Q.Q.Q.Q.Q.Q.Q.Q.Q.Q.Q.Q.Q.Q.Q.Q.Q.Q.Q.Q.Q.Q.Q.Q.Q.Q.Q.Q.Q.Q.Q.Q.Q.Q.Q.Q.Q.Q.Q.Q.Q.",
"Q.Q.Q.Q.Q.Q.Q.Q.Q.Q.Q.Q.Q.Q.Q.Q.Q.Q.Q.Q.Q.Q.Q.Q.Q.Q.Q.Q.Q.Q.Q.Q.Q.Q.Q.Q.Q.Q.Q.Q.Q.Q.Q.Q.Q.Q.Q.Q.Q.Q.Q.Q.Q.Q.Q.Q.Q.Q.Q.Q.Q.Q.Q.Q.",
"Q.Q.Q.Q.Q.Q.Q.Q.Q.Q.Q.Q.Q.Q.Q.Q.Q.Q.Q.Q.Q.Q.Q.Q.Q.Q.Q.Q.Q.Q.Q.Q.Q.Q.Q.Q.Q.Q.Q.Q.Q.Q.Q.Q.Q.Q.Q.Q.Q.Q.Q.Q.Q.Q.Q.Q.Q.Q.Q.Q.Q.Q.Q.Q.",
"Q.Q.Q.Q.Q.Q.Q.Q.Q.Q.Q.Q.Q.Q.Q.Q.Q.Q.Q.Q.Q.Q.Q.Q.Q.Q.Q.Q.Q.Q.Q.Q.Q.Q.Q.Q.Q.Q.Q.Q.Q.Q.Q.Q.Q.Q.Q.Q.Q.Q.Q.Q.Q.Q.Q.Q.Q.Q.Q.Q.Q.Q.Q.Q."
};
