/* XPM */
static char *_46c879174564f0c8d754d3363a31b67U0SFGR5qwEt9QjzY[] = {
/* columns rows colors chars-per-pixel */
"64 64 163 2 ",
"   c #FFFFFF",
".  c #1A1C1A",
"X  c #251716",
"o  c #271918",
"O  c #2B1B1B",
"+  c #311F1F",
"@  c #1E211E",
"#  c #33201F",
"$  c #3E2A1F",
"%  c #252622",
"&  c #282722",
"*  c #262926",
"=  c #2C2B26",
"-  c #352121",
";  c #3B2524",
":  c #3F2924",
">  c #312F2A",
",  c #35332D",
"<  c #343737",
"1  c #383630",
"2  c #3B3A33",
"3  c #363939",
"4  c #393D3D",
"5  c #402726",
"6  c #412B25",
"7  c #432A2A",
"8  c #463024",
"9  c #4B3326",
"0  c #4F3628",
"q  c #4B3D2B",
"w  c #473D2C",
"e  c #503728",
"r  c #553A2B",
"t  c #5A3E2D",
"y  c #4C412F",
"u  c #57412D",
"i  c #5C412F",
"p  c #4F4330",
"a  c #44433A",
"s  c #48473E",
"d  c #49483E",
"f  c #514532",
"g  c #5E4230",
"h  c #594C36",
"j  c #5C4F39",
"k  c #5F513A",
"l  c #624332",
"z  c #684735",
"x  c #644A34",
"c  c #6B4B36",
"v  c #6F4C38",
"b  c #724E3A",
"n  c #62543D",
"m  c #6C5038",
"M  c #75523C",
"N  c #78523D",
"B  c #76583D",
"V  c #795A3F",
"C  c #3F4343",
"Z  c #424646",
"A  c #4D4B42",
"S  c #454949",
"D  c #4A4E4E",
"F  c #514F45",
"G  c #535147",
"H  c #555349",
"J  c #58564B",
"K  c #5B594E",
"L  c #4D5252",
"P  c #515656",
"I  c #5D5B50",
"U  c #545959",
"Y  c #6A5B41",
"T  c #7D5D41",
"R  c #615F53",
"E  c #766549",
"W  c #78674A",
"Q  c #7B694C",
"!  c #716045",
"~  c #636155",
"^  c #676558",
"/  c #69675A",
"(  c #6D6B5D",
")  c #706E60",
"_  c #747263",
"`  c #797767",
"'  c #7C7A6A",
"]  c #6E7375",
"[  c #727779",
"{  c #757B7C",
"}  c #805F42",
"|  c #846245",
" . c #896647",
".. c #8A6748",
"X. c #806E4F",
"o. c #8D6949",
"O. c #936E4C",
"+. c #96704E",
"@. c #99724F",
"#. c #816F50",
"$. c #867353",
"%. c #8B7755",
"&. c #8C7857",
"*. c #8E7958",
"=. c #9B7451",
"-. c #937D5A",
";. c #A07753",
":. c #A17854",
">. c #817F6E",
",. c #96805C",
"<. c #98825D",
"1. c #82806F",
"2. c #9E8761",
"3. c #9F8862",
"4. c #848271",
"5. c #898675",
"6. c #8B8877",
"7. c #8F8D7A",
"8. c #908E7B",
"9. c #94927F",
"0. c #A48C65",
"q. c #AB926A",
"w. c #B1976D",
"e. c #B99E72",
"r. c #BBA073",
"t. c #C2A678",
"y. c #808687",
"u. c #858B8D",
"i. c #9A9883",
"p. c #92999B",
"a. c #A6A48E",
"s. c #A9A790",
"d. c #ADAB94",
"f. c #B6B49B",
"g. c #B9B69E",
"h. c #9DA4A6",
"j. c #A2AAAC",
"k. c #BDBBA2",
"l. c #AFB7B9",
"z. c #B0B8BA",
"x. c #C1BFA5",
"c. c #C3C1A7",
"v. c #C6C3A9",
"b. c #C9C7AC",
"n. c #CBCAAE",
"m. c #CFCEB1",
"M. c #D6D4B7",
"N. c #D2D1B3",
"B. c #D7D4B8",
"V. c #D9D6BA",
"C. c #D8D5B9",
"Z. c #D9D6BA",
"A. c #DBDABB",
"S. c #DDDBBD",
"D. c #DEDDBE",
"F. c #DEDCBE",
"G. c #E1DFC0",
"H. c #E6E4C5",
"J. c #E3E2C2",
"K. c #E8E8C6",
"L. c #F1EFCE",
"P. c #F1F0CE",
"I. c #FAFAD6",
/* pixels */
"                                                      R ( ~ ) ) J I 8.6.                                                        ",
"                                                H s _ V.H.L.I.I.b.f.x.b.` ' 8.>.                                                ",
"                                        > > G ( ^ n.B.' ' 6.6.6.( _ R ~ n.S.V.( 1 1 ,                                           ",
"                                    ) R 9.9.2 ` b./ ` _ ` _ ' ' ( _ ^ ( R ' ~ c.1 1 L.H.D.1                                     ",
"                                A F 4.H.L.L.' , _ ' 4.1._ _ 5.5.) _ ( ( ~ _ _ 2 k.k.D.4.8.S.N.>                                 ",
"                            A G ` B.V.4.' ' k.= 4.>._ ' _ ^ 4.4.( _ ) ( ( K K , n.n.4._ ' ( _ b.F                               ",
"                          , ) M.A.' 4.` 4.4.( v., ( _ ` ' ' _ _ ' I ( ~ ~ K > b.k.k.) _ ' ` >.( n.,                             ",
"                    H H J ( > N.>.` _ / ` ` _ M.> > I ( ^ _ ^ ^ ( / ^ K ~ > > k.I I _ ( 4.` _ _ , / 1.1.                        ",
"                  J 5.5.A.b., ' ' 1.` ^ 4.4.` ) c., H ( , 2 & & 2 , = ~ ~ > K b.) ) 1./ ` ' _ ' > ( V.V.^                       ",
"                A ) N.N.D.( ' 2 ' >.` _ ( ( / ~ k., 2 2 $ $ $ $ $ $ : , , , ~ x.1.1.1./ / ` ( 2 _ N.4.4.S.G                     ",
"              s ( m.` ` ` ' ( , ~ ' ( / ~ ~ ~ , > 6 6 6 6 6 6 6 6 6 6 6 6 6 , 2 ' ' / ( ( _ I , V.( _ _ 1.M.s                   ",
"            2 ^ b.4._ _ ' _ ( ` , ) / ) 2 2 , o o o o 6 o o o o o o o 6 o o o o 1 1 , _ ~ ` , A.( _ _ _ ` ` m.a                 ",
"          a J n._ _ ` ` ) ) _ ` 2 K , 2 o o         x 9 o           x 9 o           x , 1 I 7.b.) _ ' ' 1._ ) V.a               ",
"          a f.N.` _ _ _ _ ` ( ~ _ 2 x 9 O O         c 9 O           c 9 O           c 9 o 1 ( ) _ _ ~ ~ ` ` ^ ` c.2             ",
"        , 2 ~ I ~ / _ _ _ ( ( ~ ,   c e O O         m e O           m e O           m 0 O   , / ^ ) ( ( ( ) ~ ) n.1             ",
"      A V.1 , J ( ( ~ ~ ( ( ~ ,     m r + +         M r +           M r +           m r O     , ( ~ / / ( ~ I H 1 2 G           ",
"      s b.b._ , 1 / H H I ( 2 f Y $.M r + + y n W *.B r + y n n E &.B r + y n E &.&.B r + w h Y 1 ) ~ ~ ~ I , 6.N.V.F           ",
"      F n._ N.' ' , F F J 2 x c m M y.C T T T T V T u.C V V V V V V u.C V V V V V V u.C B M m m c , K K I 2 G.M.( ( B.A         ",
"    J b.` ( ( N.K._ 1 1 2 9 9 e r r C @ g g g g g g Z @ g g g g g g Z @ g g g g g g Z . t t r r e 9 1 1 2 A.5.' >.) n.a         ",
"    G v.) _ ( ^ ' M.2 2 8 o O O + - - l ; ; ; ; ; ; ; l ; ; ; ; ; ; ; l ; ; ; ; ; ; ; l - - - + + O 9 9 , ( ' ) ' ` m.R         ",
"    M.' _ ' / ' ' ) , , 9 O         | l ; ;          .l ;            .l ;            .l ;         M e e , / ` ' ' ( ' J.A A     ",
"K K S.9.1._ _ 1.' 2 x x 9 O          .z ; ;         o.c ;           o.c ;           o.z ;         B r r O , ( 1._ / _ B.J J     ",
"G G m.' ' ( ~ ^ _ 2 x x 0 O         ..c ; ;         O.c ;           O.c ;           O.c ;         V r r + , ~ ) R R / ` M.M.G   ",
", , _ ( ` ~ I ) I 2 c c e +         o.v 5 5         +.b 5           +.b 5           +.v ;         T t t + , ~ ( K R / ) v.v.2   ",
"m.m., , , K A ( 2 W c c r + f Y %.q.O.b 5 5 n #.2.r.=.b 5 n #.#.2.r.=.b 5 n #.2.r.r.=.b 5 k E %.0.| t t - y , J d G 2 2 >.>.s   ",
"' ' N.c.> , , 1 1 c { { 4 V T | ..O.j.U :.:.:.:.:.:.z.U ;.;.;.;.;.;.l.U ;.;.;.;.;.;.l.U =.+.O.o. .p.Z Z T B & 1 , ) P.D.D.D.( 2 ",
"( ( ` ` m.b.~ , , 9 4 4 . t i l z c L * N N N N N N U * N N N N N N U * N N N N N N U * b b c c z S @ @ t t & 2 v.m.4.' ' ' _ K ",
"_ _ ' 5.5._ b.= o o O O r - - ; ; ; 5 M 7 7 7 7 7 7 7 N 7 7 7 7 7 7 7 N 7 7 7 7 7 7 7 N 5 5 ; ; ; ; l l - - + , k.) ' ) 1.1._ F ",
"/ / / _ ` / K =     m m r -         +.M 7 7         :.N 7           :.N 7           :.N 5         | l l -     , f._ _ ) ' ' _ H ",
"( ( ) ' 4./ ( 1     m m r +         +.b 7 7         :.N 7           :.N 7           :.N 5          .l l -     , b.( ) 4._ _ ` F ",
"_ _ _ ' _ ( ` ,     m m r -         O.b 7 7         :.N 7           :.N 7           :.N 5          .l l -     2 n.I R ` ( ( / K ",
"R R / K K ( / ,     m m r +         O.b 7 7         :.N 7           :.N 7           :.N 5          .l l -     , n.' ~ ( ) ) ~ a ",
"K K F _ I ~ K 1 n W c c r + f Y &.q.O.b 7 7 Y $.0.t.:.N 7 Y $.$.0.t.:.N 7 Y $.0.t.t.:.N 5 n Q -.0. .g l - p n , v.) ^ 4.F F K s ",
"K K F _ I ~ K 1 n W c c r + f Y &.q.O.b 7 7 Y $.0.t.:.N 7 Y $.$.0.t.:.N 7 Y $.0.t.t.:.N 5 n Q -.0. .l l - p n , v.) ^ 4.F F K s ",
"K K H ` G ~ a , g x { { 4 B T |  .o.j.U :.:.:.:.:.:.z.U :.:.:.:.:.:.z.U :.:.:.:.:.:.z.U =.@.O.o...p.Z Z T V B , d.^ I _ s s F d ",
"1 1 2 2 , 1 , , 6 9 3 3 . t i l l c L % N N N N N N U * N N N N N N U * N N N N N N U * b b c c z S @ @ t t r , > , , = , , 1 1 ",
"n.n.D.b.m.N.^ 1 o o O O r + - - ; ; ; b 7 7 7 7 7 7 7 N 7 7 7 7 7 7 7 N 7 7 7 7 7 7 7 N 5 5 ; ; ; ; l l - - + , c.A.V.b.b.b.V.F ",
"_ _ ' ' 9.) ~ ,     c c r +         O.b 7 7         :.N 7           :.N 7           :.N 5         | l l -     1 n.' ' _ ` ` 4.I ",
"' ' ~ / ) ( / ,     c c r +         O.b 7 7         :.N 7           :.N 7           :.N 7          .l l -     2 k.R ~ _ 1.1._ J ",
"_ _ _ _ ` ^ ~ ,     c c r +         O.b 7 7         :.N 7           :.N 7           :.N 7          .l l -     , M._ _ _ ` ` ' K ",
"K K ) _ ~ K ( ,     c c r +         O.b 7 7         :.N 7           :.N 7           :.N 5          .l l -     , m.( ` _ ) ) / H ",
"^ ^ ~ K R ' ' , k E c c r + f Y %.q.O.b 7 7 Y $.0.t.:.N 7 Y $.$.0.t.:.N 7 Y $.0.t.t.:.N 5 n Q -.0. .l l - p n , V.1.~ ~ / / ~ s ",
"J J A ) I ' _ > g x [ [ 4 B V } | o.j.U =.=.;.;.;.;.z.U ;.;.;.;.;.;.z.U ;.;.;.;.;.;.z.U =.+.O.o. .p.Z Z T V B , k.~ K _ F F / H ",
"H H A ~ R ` d , 6 9 3 3 . r t g l z L % M M N N N N U * N N N N N N U * N N N N N N U * b b c c z S @ @ t t r > i.~ K ~ A A R A ",
", , > > , 1 , 1 X o O O e + + - ; ; ; v 5 5 7 7 7 7 7 N 7 7 7 7 7 7 7 N 7 7 7 7 7 7 7 N 5 5 ; ; ; ; g g - + + , 2 , > > > > , , ",
"v.v.N.n.M.x.K ,     x x e +         o.v 5 5         =.N 7           =.M 7           =.N 5         | i i -     2 v.N.N.m.m.m.n.G ",
"( ( ' >.' ) J 1     x x 0 +         o.c 5 5         =.M 7           =.M 7           =.M 5         | i i -     1 v.R ` _ ' ' _ d ",
"( ( ' _ _ ` I ,     x x 0 +         o.c 5 5         =.M 5           =.b 5           =.M 5         | i i -     2 b.) ( ~ ` ` ' s ",
"_ _ ) ( ` _ ( ,     x x 9 O         o.c 5 5         =.b 5           =.b 5           =.b 5         | i i #     , m._ _ 5._ _ ' A ",
"( ( 4._ ^ I ^ , h ! x x 9 O y n X.0...c 5 5 n X.2.e.=.b 5 n X.X.2.e.=.b 5 n X.2.e.e.=.b 5 k E %.3.T t t - y j , v.( ) >._ _ ~ s ",
"( ( 1.^ I ` ( , r u ] ] 4 m M V T | h.L O.O.@.=.@.@.z.U @.@.=.=.@.@.z.U @.@.@.@.@.@.z.U O.O.o. .| p.S S B M m , k._ ^ ~ ( ( I a ",
"K K K ` ~ / I , : 6 3 3 . r r t i l L % v v b b b b U * b b b b b b U * b b b b b b U * v c z l l S @ @ t r r , b.( I ( s s / A ",
"I I F I G / a = X o o o 9 O + - - ; ; c 5 5 5 5 5 5 5 b 5 5 5 5 5 5 5 b 5 5 5 5 5 5 5 b 5 ; ; ; ; - t t - + + , d.( H _ s s G a ",
"2 2 2 , , , = ,     g g 9 O          .c 5 5         +.b 5           +.b 5           +.b 5         T t t #     , , > , 2 , , , 2 ",
"k.k.x.b.c.c.( 2     g g 9 O         | z ; :         O.b 5           O.b 5           O.b 5         T t t #     2 c.k.g.f.k.k.f.2 ",
"/ / K R ( ~ ~ ,     g g 9 O         | c 5 5         O.b 5           +.b 5           O.b 5         T t t #     1 f.K K I I I / 1 ",
"R R H K ^ ~ ~ 1     g g 9 O         | z ; ;         O.v 5           O.v 5           O.v 5         T t t #     , k.I J I G G / 1 ",
"F F G F K J G 2 f Y i i 9 O w k Q ,.| l ; ; n Q -.w.O.v 5 n Q Q -.w.O.v 5 n Q ,.w.w.O.v ; j ! $.<.V t t + w h , s.G R ~ K K A , ",
"A A G a A F A 1 q r ] ] 3 c m M B T h.L o.o.O.O.O.O.z.U O.O.O.O.O.O.z.U O.O.O.O.O.O.z.U o... .| T p.S S M m c 1 a.J R K I I a , ",
"2 2 d d 2 a d , $ 6 < < . 9 e r t t D % c c v v c c U * c c c c c c U * c c c c c c U * c z l l i S @ @ r r e 2 d.s s A A A 2 > ",
"2 2 2 s , a a = X X o o 8 O O + - - ; l ; ; 5 5 5 5 5 c 5 5 5 5 5 5 5 c 5 5 5 5 5 5 5 c : ; ; ; ; - t t # + O , i.2 , 2 2 2 a = ",
", , = 2 , 2 , =     u u 8 O         T l ; ;         O.c 5           O.c 5           O.c :         V r r #     , 7.a > 2 , , 1 & ",
"> > , , 2 , , 1     u u 8 O         T l ; ;         o.c 5           o.c 5           o.c :         V r r #     , , , , 2 , , , & ",
"2 2 , , 2 2 1 ,     u u 8 O         T l ; ;         o.c 5           o.c 5           o.c :         B r r #     2 , , > , > > , , "
};
