/* XPM */
static char *a3f6e2e89c4d43e7a87766e150a585efskPWYEEHt6Zwd6cC[] = {
/* columns rows colors chars-per-pixel */
"64 64 167 2 ",
"   c #FFFFFF",
".  c black",
"X  c #191B19",
"o  c #251716",
"O  c #271817",
"+  c #2C1C1B",
"@  c #311E1E",
"#  c #1E211E",
"$  c #33201F",
"%  c #3E2A1F",
"&  c #232522",
"*  c #282722",
"=  c #262926",
"-  c #2C2B26",
";  c #352121",
":  c #3B2524",
">  c #3E2826",
",  c #312F2A",
"<  c #34322D",
"1  c #383630",
"2  c #3B3A33",
"3  c #363939",
"4  c #393C3C",
"5  c #343737",
"6  c #402726",
"7  c #412A26",
"8  c #422929",
"9  c #443325",
"0  c #4B3326",
"q  c #403728",
"w  c #4F3628",
"e  c #493F2D",
"r  c #473D2C",
"t  c #503628",
"y  c #543A2B",
"u  c #5B3E2E",
"i  c #4D412F",
"p  c #5C412F",
"a  c #44433A",
"s  c #48473E",
"d  c #49483E",
"f  c #4E4330",
"g  c #524632",
"h  c #5E4431",
"j  c #594C37",
"k  c #594C37",
"l  c #5F513A",
"z  c #634432",
"x  c #654B35",
"c  c #6C4B37",
"v  c #6F4C38",
"b  c #684735",
"n  c #724E3A",
"m  c #63543D",
"M  c #6C5138",
"N  c #67583F",
"B  c #75523C",
"V  c #78523D",
"C  c #76583D",
"Z  c #795A3F",
"A  c #3F4343",
"S  c #434747",
"D  c #4D4B42",
"F  c #464A4A",
"G  c #494D4D",
"H  c #514F45",
"J  c #525046",
"K  c #555349",
"L  c #58564B",
"P  c #5B594E",
"I  c #4D5151",
"U  c #515656",
"Y  c #5D5B50",
"T  c #545959",
"R  c #6A5B42",
"E  c #7D5D41",
"W  c #615F53",
"Q  c #726146",
"!  c #766549",
"~  c #7B694B",
"^  c #636155",
"/  c #676558",
"(  c #69675A",
")  c #6D6B5E",
"_  c #706E60",
"`  c #747263",
"'  c #797767",
"]  c #7C7A6A",
"[  c #6A6F70",
"{  c #6D7273",
"}  c #717677",
"|  c #757A7B",
" . c #805F42",
".. c #836244",
"X. c #896647",
"o. c #806E4F",
"O. c #8E694A",
"+. c #926D4C",
"@. c #96704E",
"#. c #99724F",
"$. c #826F50",
"%. c #867252",
"&. c #8B7755",
"*. c #8C7857",
"=. c #9C7451",
"-. c #947E5A",
";. c #A07753",
":. c #A17854",
">. c #817F6E",
",. c #97815D",
"<. c #9A835E",
"1. c #82806F",
"2. c #9D8661",
"3. c #848271",
"4. c #898675",
"5. c #8B8877",
"6. c #8F8D7A",
"7. c #918F7C",
"8. c #93917E",
"9. c #A48C65",
"0. c #AE956B",
"q. c #B0966C",
"w. c #B99E72",
"e. c #B59A70",
"r. c #C2A678",
"t. c #7F8586",
"y. c #969480",
"u. c #9D9B86",
"i. c #93999B",
"p. c #A5A38D",
"a. c #A9A790",
"s. c #ACAA93",
"d. c #B5B39B",
"f. c #B9B69E",
"g. c #9AA1A3",
"h. c #9FA6A8",
"j. c #A3AAAC",
"k. c #BDBBA2",
"l. c #B0B8BA",
"z. c #C1BFA5",
"x. c #C3C1A7",
"c. c #C6C3A9",
"v. c #C8C7AB",
"b. c #CBCAAE",
"n. c #CFCEB1",
"m. c #CFCEB1",
"M. c #D0CFB2",
"N. c #D1D1B3",
"B. c #D4D2B5",
"V. c #D6D4B7",
"C. c #D2D2B4",
"Z. c #D7D4B8",
"A. c #D7D4B8",
"S. c #D9D6BA",
"D. c #D8D5B9",
"F. c #D9D6BA",
"G. c #DBDABB",
"H. c #DDDBBD",
"J. c #DEDDBE",
"K. c #DDDCBD",
"L. c #E1DFC0",
"P. c #E6E4C5",
"I. c #E3E2C2",
"U. c #EAEAC8",
"Y. c #F0EECD",
"T. c #F1F0CE",
"R. c #FAFAD6",
/* pixels */
"                                                        W ) ^ _ L Y 7.5.                                                        ",
"                                                K s s ` S.P.Y.R.v.d.z.v.' ] ] 7.>.                                              ",
"                                          , J ) / b.b.A.] ] 5.5.) ` W ^ b.H.H.S.) 1 <                                           ",
"                                      _ W 8.2 ' v.( ( ' ` ' ` ] ) ` / ) W ] ] ^ x.1 Y.P.J.1                                     ",
"                                  D H 3.P.Y.] < ` ] ] 3.1.` ` 4._ ` ) ) ^ ` ` ` 2 k.J.3.7.H.N.,                                 ",
"                              D J ' A.S.3.] k.- 3.>.>.` ] ` / 3.) ` _ ) ) P P P < b.3.` ] ) ` v.H H                             ",
"                          < < _ B.G.] 3.' 3.) c.< ) ) ` ' ] ] ` ] Y ) ^ ^ P P , v.k._ ` ] ' >.) b.b.<                           ",
"                      K L ) ) , N.>.' ` ( ' ` V., , , Y ) / ` / ) ( / P ^ , , , k.Y ` ) 3.' ` ` < < ( 1.                        ",
"                    L 4.G.v.v.< ] ] 1.' / 3.' _ x.< < K ) < 2 * 2 < - ^ ^ , , Y v._ 1./ ' ] ` ] , , ) S./                       ",
"                  D _ N.J.) ) ] 2 ] >.' ` ) ( ^ k.< < 2 2 o         y < < < < ^ z.1.1.( ( ' ) 2 ` ` N.3.H.J                     ",
"                s ) n.' ' ] ] ) < ^ ] ) ( ^ ^ < ,     p 7 O         p 7 O     < 2 ] ( ) ) ` Y < S.S.) ` 1.V.s                   ",
"              2 / v.3.` ] ` ` ) ' < _ ( _ 2 <         h 7 O         h 7 O         1 < ` ^ ' < G.) ) ` ` ' ' n.a                 ",
"            a L b.` ` ' _ _ _ ` ' 2 P < 2 O q g m ! ! x 0 O q g m ! x 0 O q q g m ! x < 1 Y 6.v._ _ ` ] 1.` _ S.a               ",
"            a d.N.' ` ` ` ' ' ) ^ ` 2 { 3 x x x x x x } 3 x x x x x } 3 x x x x x x } 3 x 1 ) _ ` ` ` ^ ' ' / ' x.2             ",
"          < 2 ^ Y ^ ( ` ` ) ) ) ^ < 0 3 X t t t t t t 4 X t t t t t 4 X t t t t t t 4 X w 0 < ( / / _ ) ) _ ^ _ b.1             ",
"        D S.1 < L ) ) ^ ) ) ) ^ < O + + y @ @ @ @ @ @ @ y @ @ @ @ @ @ y @ @ @ @ @ + + y + + + < ) ) ^ ( ) ^ Y K 1 2 J           ",
"        s v.v.` < 1 ( K Y ) ) 2       B y @           C y @         C y @           C y @       1 1 _ ^ ^ Y < 5.N.S.H           ",
"        H b.` N.] ] < H L 2 2         C u ;           Z u ;         Z u ;           Z u @           < P Y 2 L.V.) ) A.D         ",
"    L L v.' ) ) N.U.` 1 2 O O         Z p ;           E h ;         E h ;           E u ;           x 1 2 G.4.] >._ b.a         ",
"    J J c._ ` ) / ] B.2 9 O O         E z :           ..z :         ..z :           ..z ;           M w < ) ] _ ] ' n.W         ",
"    B.B.] ` ] ( ] ] _ < 0 + + r l ~ ,...z : k Q &.9.9.X.z : k Q &.9.X.z : k k Q &.9.X.z : g N ~ *.*.B t < ( ' ] ] ) ] I.D D     ",
"  P H.H.8.1.` ` 1.] 2 [ 3 M M B C E ..i.G O.O.O.O.O.O.g.G O.O.O.O.O.g.G O.O.O.O.O.O.g.G X.....E Z Z t.4 M < ) 1.` ( ` A.L L     ",
"  J n.n.] ] ) ^ / ` 2 5 X y y y u h z G & c c c c c c I & c c c c c I & c c c c c c I & b z z z u u A X y < ^ _ W W ( ' V.V.J   ",
"  < ` ` ) ' ^ Y _ Y 2 + t @ @ ; ; : : > v 6 6 6 6 6 6 6 n 6 6 6 6 6 6 n 6 6 6 6 6 6 6 v > > : : ; ; ; u @ < ^ ) P W ( _ c.c.2   ",
"  n.< < < < P D ) 2   x y @ @         +.n 6           =.n 6         =.n 6           =.n 6           ..u ;   < L d J 2 2 >.>.s   ",
"5.] C.C.x., < < 1 1   M y ; ;         @.B 8           :.V 8         ;.V 8           =.V 6           ..h ;   * 1 < _ T.J.J.J.) 2 ",
"b.) ' ' ' n.v.^ < <   M y ; ;         @.B 8           :.V 8         :.V 8           :.V 6           ..z ;   * 2 c.n.3.] ] ] ` P ",
"b.` ] ] 4.4.` v.-     M y ; ;         @.B 8           :.V 8         :.V 8           :.V 6           X.z ;     < k._ ] _ 1.1.` H ",
"C.( ( ( ` ' ( P - m ~ M y ; ; g R *.0.@.B 8 R %.9.r.r.:.V 8 R %.9.r.:.V 8 R R %.9.r.:.V 6 m ~ -.9.9...z ; f m < d.` ` _ ] ] ` K ",
"n.) _ _ ] 3.( ) 1 h x | 4 C C E ..X.+.j.U :.;.;.;.;.;.l.T ;.;.;.;.;.l.T ;.;.;.;.;.;.l.T =.@.+.O.X.X.i.S E Z C < v.) _ 3.` ` ' H ",
"U.` ` ` ] ` ) ' < 7 0 4 X u u u z z b I & V V V V V V T = V V V V V T = V V V V V V T = n n c b z z F # u u y 2 b.Y W ' ) ) ( P ",
"G.W ( ( P P ) ( < O O + y @ @ ; ; : > > n 8 8 8 8 8 8 8 V 8 8 8 8 8 8 V 8 8 8 8 8 8 8 V 6 6 > > : : : h ; @ @ < b.] ^ ) _ _ ^ a ",
"b.P H H ` Y ^ P 1     x y @ @         +.n 8           =.V 8         =.B 8           =.V 6           ..p ;     < c._ / 3.H H P s ",
"b.P H H ` Y ^ P 1     x y @ @         +.n 8           =.V 8         =.B 8           =.V 6           ..p ;     < c._ / 3.H H P s ",
"c.P K K ' J ^ a <     x t @ @         +.n 8           =.B 8         =.B 8           =.B 6           ..p ;     < s./ Y ` s s H d ",
", 1 2 2 2 < 1 < <     x t @ @         +.v 6           =.B 6         =.n 6           =.B 6           ..p ;     < , < < - < < 1 1 ",
"M.b.J.J.v.n.C./ 1     x t @ @         O.v 6           =.n 6         =.n 6           =.n 7           ..u $     < x.G.S.v.v.v.S.H ",
"A.` ] ] ] 8._ ^ < k Q x w @ @ i N %.9.O.c 6 m o.2.w.w.=.n 6 m o.2.w.=.n 6 m m o.2.w.=.n 7 l ! &.2.2.E u $ i l 1 b.] ] ` ' ' 3.Y ",
"C.] ^ ^ ( _ ) ( < p h | 4 B B C Z ..X.j.U #.#.=.#.#.#.l.T #.#.=.#.#.l.T #.#.#.#.#.#.l.T +.+.O.X.....i.S C B M 2 k.W ^ ` 1.1.` L ",
"v.` ` ` ` ' / ^ < 7 9 3 X y y y u z z I & n n n n n n T = n n n n n T = n n n n n n T = v b b z z z F # u y y < B.` ` ` ' ' ] P ",
"v.P _ _ ` ^ P ) < O O O w @ @ $ ; ; : > b 6 6 6 6 6 6 6 n 6 6 6 6 6 6 n 6 6 6 6 6 6 6 n 7 > > : : : ; u $ @ + < n.) ' ` _ _ ( K ",
"V./ ^ ^ P W ] ] <     x w + +         X.b 6           @.n 6         @.n 6           @.n 7           E u $     < S.1.^ ^ ( ( ^ s ",
"v.L D D _ Y ] ` ,     x w + +         X.b 7           +.n 6         +.n 6           +.n 6           E u @     < k.^ P ` H H ( K ",
"k.K D D ^ W ' d <     z w + +         X.b 7           +.n 6         +.n 6           +.n 6           E u @     , u.^ P ^ D D W D ",
"< < , , , < 1 < 1     h 0 + +         X.b 7           +.v 6         +.v 6           +.v 6           E u @     < 2 < , , , , < < ",
"v.c.N.N.b.B.z.P < g R h 0 + + e m ~ <...b 7 m ~ -.q.q.+.v 6 m ~ -.q.+.v 6 m m ~ ,.q.+.v > j Q %.,.,.Z u @ e k 2 c.C.N.n.n.n.b.J ",
"b.) ] ] >.] _ L 1 y p } 4 x x M C Z E h.I O.+.+.+.+.+.l.T +.+.+.+.+.l.T +.+.+.+.+.+.l.T O.X.X...E E i.S B M x 1 c.W ' ` ] ] ` d ",
"B.) ] ] ` ` ' Y < % 7 3 X w w y y u p I & c c c c c c T = c c c c c T = c c c c c c T = b z z z p p F # y y t 2 v._ ) ^ ' ' ] s ",
"b.` _ _ ) ' ` ) < O O O 0 + + @ $ ; : : z > 6 7 7 7 7 7 c 7 7 7 7 7 7 c 7 7 7 7 7 7 7 c > > : : : : ; u @ @ + < n.` ` 4.` ` ] D ",
"S.) 3.3.` / Y / <     p 0 + +         ..z >           +.c 7         +.c 7           +.c >           Z y $     < c.) _ >.` ` ^ s ",
"z.) 1.1./ Y ' ) <     p 0 + +         ..z >           O.c 7         O.c 7           O.c >           Z y @     < k.` / ^ ) ) Y a ",
"x.P P P ' ^ ( Y <     p 9 + +          .z >           O.b 7         O.b 7           O.b >           C y @     < v.) Y ) s s ( D ",
"n.Y H H Y J ( a -     p 9 + +         E z >           O.b 7         O.b 7           O.b >           C y $     < s.) K ` s s J a ",
"2 2 2 2 < < < - <     ~ h + +         0...>           r.O.7         r.O.7           r.O.>           9.C @     < < , < 2 < < < 2 ",
"d.k.z.z.v.x.x.) 2     . $.. .         . e..             r.            r.              r..           . 2..     2 x.k.f.d.k.k.d.2 ",
"d.( P P W ) ^ ^ <       .               .                                                             .       1 d.P P Y Y Y ( 1 ",
"a.W K K P / ^ ^ 1                                                                                             < k.Y L Y J J ( 1 ",
"p.H J J H P L J 2                                                                                             < a.J W ^ P P D < ",
"y.D J J a D H D 1                                                                                             1 p.L W P Y Y a < ",
"y.2 d d d 2 a d <                                                                                             2 s.s s D D D 2 , ",
"y.2 2 2 s < a a -                                                                                             < y.2 < 2 2 2 a - ",
"7.< - - 2 < 2 < -                                                                                             < 6.a , 2 < < 1 * ",
"< , < < < 2 < < 1                                                                                             < < < < 2 < < < * ",
"2 2 < < < 2 2 1 <                                                                                             2 < < , < , , < < "
};
