/* XPM */
static char *result[] = {
/* columns rows colors chars-per-pixel */
"64 64 198 2 ",
"   c #17211F",
".  c #172220",
"X  c #192422",
"o  c #1E2926",
"O  c #1D302E",
"+  c #212B26",
"@  c #2C2E23",
"#  c #212C29",
"$  c #2E3125",
"%  c #27342F",
"&  c #2B352F",
"*  c #313327",
"=  c #3E3927",
"-  c #33362B",
";  c #36392C",
":  c #3A3B2D",
">  c #253632",
",  c #2B3631",
"<  c #2E3933",
"1  c #293B36",
"2  c #303731",
"3  c #333C35",
"4  c #3B3E32",
"5  c #353F38",
"6  c #403B27",
"7  c #423D2A",
"8  c #374037",
"9  c #3C4136",
"0  c #374039",
"q  c #3B433A",
"w  c #3F483F",
"e  c #46412C",
"r  c #49432E",
"t  c #434336",
"y  c #4B4734",
"u  c #4E4935",
"i  c #43463A",
"p  c #484739",
"a  c #45493D",
"s  c #4C4B3C",
"d  c #554D36",
"f  c #524E3C",
"g  c #584F38",
"h  c #56513E",
"j  c #5B533C",
"k  c #60563F",
"l  c #2B4641",
"z  c #3C4742",
"x  c #314944",
"c  c #3D4A44",
"v  c #3B5048",
"b  c #434C44",
"n  c #4A4E42",
"m  c #454E48",
"M  c #4C5146",
"N  c #46534A",
"B  c #4C534A",
"V  c #545242",
"C  c #5C5541",
"Z  c #5E5844",
"A  c #525649",
"S  c #555A4F",
"D  c #5B5C4C",
"F  c #4B5B51",
"G  c #515751",
"H  c #555B53",
"J  c #595E53",
"K  c #615740",
"L  c #635A44",
"P  c #695E47",
"I  c #645D49",
"U  c #695F49",
"Y  c #42645C",
"T  c #5C6154",
"R  c #53645A",
"E  c #5D6259",
"W  c #6C6047",
"Q  c #64604E",
"!  c #6C624A",
"~  c #71664D",
"^  c #74684F",
"/  c #786B4F",
"(  c #626455",
")  c #6C6753",
"_  c #6D6956",
"`  c #62665A",
"'  c #656A5C",
"]  c #6A6C5D",
"[  c #716750",
"{  c #756B53",
"}  c #7A6D53",
"|  c #766E59",
" . c #6F705F",
".. c #7D7156",
"X. c #75705C",
"o. c #7C735B",
"O. c #4D6C64",
"+. c #5C7166",
"@. c #52796F",
"#. c #626760",
"$. c #646A61",
"%. c #6B6E61",
"&. c #6E7163",
"*. c #65766B",
"=. c #6D7468",
"-. c #727364",
";. c #7B7663",
":. c #7D7966",
">. c #727569",
",. c #74796C",
"<. c #7D7C6B",
"1. c #6A7E72",
"2. c #737D70",
"3. c #7B7D71",
"4. c #81755B",
"5. c #87795D",
"6. c #847B62",
"7. c #897E65",
"8. c #827D6B",
"9. c #688378",
"0. c #768074",
"q. c #7D8175",
"w. c #7E837A",
"e. c #8B8067",
"r. c #85826E",
"t. c #8D8269",
"y. c #92866C",
"u. c #95896E",
"i. c #988A6E",
"p. c #838375",
"a. c #8A8673",
"s. c #8B8876",
"d. c #81857A",
"f. c #86897C",
"g. c #8C8C7D",
"h. c #978B71",
"j. c #9B8D72",
"k. c #9F9074",
"l. c #9E957E",
"z. c #A19276",
"x. c #A4957A",
"c. c #A7997D",
"v. c #AA9A7D",
"b. c #6A8F84",
"n. c #729287",
"m. c #8D8E81",
"M. c #8F9083",
"N. c #959385",
"B. c #9E9682",
"V. c #96968B",
"C. c #9B9A8C",
"Z. c #9E9E91",
"A. c #A19781",
"S. c #A39A83",
"D. c #AD9E82",
"F. c #A29E8C",
"G. c #AA9F89",
"H. c #B09F81",
"J. c #A09F92",
"K. c #9CAA9E",
"L. c #ADA087",
"P. c #AEA28B",
"I. c #B2A284",
"U. c #B3A68C",
"Y. c #B8A789",
"T. c #B6A98F",
"R. c #BCAA8C",
"E. c #A3A295",
"W. c #AEA592",
"Q. c #A6A599",
"!. c #A9A799",
"~. c #ADAB9E",
"^. c #B2A790",
"/. c #B4AA94",
"(. c #BBAD93",
"). c #B3AD9C",
"_. c #B9AF99",
"`. c #B7B09E",
"'. c #BCB29C",
"]. c #AFADA0",
"[. c #B0AEA1",
"{. c #B2B0A4",
"}. c #BDB5A2",
"|. c #B8B5A9",
" X c #BCB9AE",
".X c #BFBCB0",
"XX c #C0AF90",
"oX c #C1B59E",
"OX c #C2B7A1",
"+X c #C3BAA6",
"@X c #C3BCAA",
"#X c #C9BFAC",
"$X c #C2BEB2",
"%X c #CAC1AE",
"&X c #C5C1B5",
"*X c #CAC4B4",
"=X c #CDC7B8",
"-X c #CFC9BA",
/* pixels */
"r = @   X X X X . X X X X o o . X X X . X X . . X . . . . X X X   X X X X X X X o . X X . X . X X . . .     . . .   . . . + 7 p ",
"d = @ + q z c c c c c c c c c c c c c c c c m c m c c c c c c < % c c c c c c c c c c c c c c c c c c c c z z c c c c c # $ 7 u ",
"g 7 @ & J w.w.w.w.w.f.w.w.w.w.w.d.w.d.d.w.w.w.3.m.3.3.m.8.d.#.z z 3.d.w.w.w.w.w.d.d.w.w.w.w.m.w.m.8.w.n.m.3.8.3.w.3.m.J , * 7 g ",
"g 7 * & ] {.[.].].].{.].{.].[.].[.[.].[.[.[.[.[.].].].].[.{.8.n B ].[.].].[.[.].].].].{.{.[.].].].].].~.[.[.[.~.].].].$.< * 7 C ",
"j e $ 2 &.).[.[.[.[.{.[.[.[.[.{.[.[.[.[.[.[.{.[.].].[.[.[.[.m.n G ].].].[.[.[.[.].[.[.].{.[.{.[.[.[.[.[.].].~.].[.].).=.3 @ 7 Z ",
"j e * 2 &.{.[.[.[.[.{.{.[.[.[.{.[.[.[.{.[.[.{.[.].].[.[.[.[.8.M G {.{.].{.[.[.[.{.[.{.[.{.{.[.{.{.[.[.[.].[.].].[.[.[.&.5 * y Z ",
"j e $ 2 ] ].[.~.].[.{.[.[.{.[.[.[.[.[.[.[.[.].[.].].].[.].[.8.M G ].].].[.[.].].].].].{.[.{.[.].[.[.[.].].].].].[.~.].&.3 $ 7 L ",
"W r $ 2 &.~.[.].].].].].].].[.].[.~.[.[.[.[.].[.].3.E E E $.,.B G E.E E E E H E E E R E %.M.[.].].[.].].].].!.].).~.].&.5 $ y I ",
"W r * 3 ] ~.].].].~.[.].].[.[.[.{.].].].].].].E.p.B 5 5 3 ] ;.M G E.5 5 5 5 3 0 5 5 1 5 w E [.].[.[.[.].].).~.~.].~.~.%.5 * y U ",
"! d * 2 %.~.].~.~.].].].~.[.].].].].].{.].].~.w.b 3 5 0 B V.<.M G Z.5 1 0 m G H H 0 5 5 8 0 {.].~.].].~.~.~.~.~.~.~.~.>.5 * u ! ",
"{ u - 5 &.~.].].].].[.].].[.].].].].[.].].!.Z.5 5 3 0 N V.~.p.M G J.5 5 m 8.Q.].].b 5 5 8 q [.[.[.[.[.].].~.~.].~.~.~.%.0 - u ! ",
"X.d - 5 &.~.].].].].[.[.{.{.[.[.{.[.{.[.].Z.5 5 8 0 T C.~.~.a.B H J.3 G C.[.[.].].m z 5 q w {.[.[.[.].{.].~.~.].[.~.~.-.0 - u { ",
"..d - 2 ] ~.].].].].].].].].].].].].[.[.f.z 2 5 8 &.C.~.].~.s.A H Q.m ].].].].].m.b 0 8 q b {.[.[.[.[.].~.~.].].[.~.[.>.0 - f { ",
"o.h ; 3 $.~.~.].].].].].].].].].].].[.d.S 0 5 5 =.V.Q.~.~.].f.A G {.V.].].].].V.G 0 8 5 B d.[.{.[.{.].].~.~.~.~.{.].~.&.5 - g X.",
"4.d ; 2 ' ~.~.~.].].].].].].].].].].w.B 5 5 5 >.C.~.V.>.>.>.;.A E {.].].].J.m.#.5 8 3 S q.E.{.[.[.[.[.~.~.~.~.~.~.~.~.&.0 - d { ",
"6.j ; 8 ` ~.~.~.~.~.].].].].].].].g.m 3 5 w E ~.].].f.2 8 2 ` B G {.{.].Z.d.G 3 5 5 G d.~.{.~.[.].[.].].~.~.~.~.~.~.~.&.0 - d X.",
"6.j ; 3 ] ~.~.~.!.[.[.).].].~.~.].2 5 0 0 B E.J.E.Z.3.8 5 5 ` A J ~.!.K.p.S 8 2 < a M.~.~.~.~.].~.[.].~.].].~.~.~.~.~. .0 ; d X.",
"e.j ; 3 ] ~.~.~.~.].[.].!.].].].].5 0 0 0 q 5 5 q 0 8 0 8 5 _ B H [.F.G q 2 5 5 8 K.].].].].~.].~.[.].].].].~.!.~.].~.=.q ; d o.",
":.j ; 3 ] ~.~.!.!.~.].].].~.~.!.].5 0 0 0 0 5 5 0 8 q 0 8 3 _ A H E.w 0 8 8 5 w g.Q.~.!.g.R f.!.~.~.~.~.!.!.~.].~.].~.=.q - h o.",
"5.j ; 8 ` B.c.B.l.B.B.x.B.B.A.A.S.5 q 0 q q 8 8 q 8 0 8 5 5 _ B S F.0 8 0 3 5 q S H H T B a l.L.S.L.S.B.L.l.B.B.l.l.L.] q ; j o.",
"6.j : 3 ' v.v.v.H.D.D.c.v.D.v.H.D.;.o.;.:.;.;.;.;.;.( 8 5 5 ( V S S.0 0 8 8 8 8 3 5 3 8 8 8 z.c.L.v.L.v.v.v.c.c.v.c.c. .q ; h o.",
"7.j ; 3 ' R.R.R.Y.Y.XXY.Y.R.R.XXXXXXR.R.XXXXXXR.XXXXy.8 8 0 ) A D D.q 0 q 0 0 0 0 0 0 8 0 q x.Y.R.R.R.R.R.R.Y.Y.R.R.T. .q - h e.",
"y.k ; 3 ] R.R.R.Y.R.XXR.Y.R.R.(.R.XXR.R.R.XXR.XXR.R.j.V A A X.A J D.A A V A A A A A A A V A v.R.R.R.R.T.Y.Y.Y.Y.T.R.U. .9 - j e.",
"y.L : 3 X.R.R.R.XXY.XXR.Y.XXR.R.XX(.R.Y.R.R.XXR.XXR.R.R.R.Y.y.Z D Y.R.R.R.XXXXR.R.XXR.Y.R.XXR.R.R.R.R.R.R.Y.Y.Y.Y.U.Y. .9 8 j e.",
"6.k ; 4 _ h.i.i.u.u.u.u.i.u.u.h.u.y.h.u.i.i.i.i.i.u.i.i.i.y.7.D V u.u.u.u.u.i.i.k.i.i.j.i.i.j.i.i.i.u.i.u.u.u.u.u.y.y.' q = j e.",
"u.L : 5 X.H.H.D.D.H.H.D.I.I.H.I.Y.Y.Y.I.I.I.I.Y.T._.Y.I.I.z.i.) D y.D.H.D.H.H.H.v.I.I.I.I.v.v.v.v.v.v.v.v.v.v.v.v.v.L.X.q 9 j e.",
"y.L : 5 ] x.x.z.x.x.c.x.x.x.c.c.c.%X/.'.'.I.I.+X*X*X%XoXv.c.L.B.N.A.t._.+X+X(.v.c.'.%X'.v.v.x.x.x.x.x.z.x.z.z.z.x.z.z. .9 9 k e.",
"t.L : 5 _ k.k.j.j.j.k.k.k.k.j.k.j.*XY.oXOXD.L.*XOX'.+X#XT.x.`.{.!.W.6.}.=X*X_.z.k.%XoX(.L.v.x.k.j.z.j.j.i.j.j.j.k.j.k. .q 9 j e.",
"u.P : 0 X.c.D.c.D.v.v.c.v.H.D.D.v.=XoX+XoXI.'.*XL.k.S.'.*Xc._.~.C./.j.@X#X*X_.v.T.%XT.'.'.L.v.c.v.v.v.v.c.c.v.v.v.v.x. .q 9 k e.",
"y.k : 5 _ e.y.y.y.y.y.y.u.i.u.u.y.-X=X*XW.h.T.=Xs.o.8.c.&Xi./.m.3.}.u.*X/.'._.x.'.*X/.'.+Xk.j.y.u.y.y.y.y.y.t.t.t.t.t. .w 9 j 5.",
"y.P : 0 ] _.*X/./.+X@X).*X@X_.U.'.*XL./._.L.L.@XP.G.L.}.U.L.`.p.%.W.*X=X_.}.}.T.*X-X-X-X*X}.^.W.^.P.^.P.P.P.P.P.L.L.L.-.w e L e.",
"h.U : 0 ' _.`.OX_.).}.@X#X*X}.^.@X*XU./._.L.L.@X}.}.'._.U.P.W.,.E P.=X}./.}.'.I.-X_././.}.}./.^.P.^.U.P.U.P.P.L.P.L.L.-.w 9 j e.",
"h.U 4 5 %.U.^./._.'./._.'.'.^.U._._.G.U.^.D.G././._./.W.G.D.S.$.D D.}.^.^./._.U.+XU.P.U.^._.^.L.P.U.G.L.L.L.L.L.L.L.L.-.w 4 K t.",
"u.L 4 2 ` 6.8.:.8.p.<.;.8.8.<.:.8.8.8.:.;.;.8.8.8.4.8.:.8.;.-.B a -.:.<.<.8.8.8.r.<.<.<.8.<.<.<.<.:.:.:.;.;.;.:.:.:.:.' w : K 7.",
"t.C 4 < D , < % % % < 1 2 < < > % m 5 3 , 3 5 B < , 3 m 3 % z 5 < > < b b b 5 < , b b m z 2 , , < , < < > < < < < < , J 0 3 j 6.",
"e.K : 2 H , & % & < < < < 5 < < % @X>.b , 5 ` $XH , #.|.>.& V.Z.E 3 3. X X[.3.3 < .X&X&X~.E < < < < , 3 < < < 2 < , , T w ; C 6.",
"t.L 4 < J & < < 2 2 2 3 3 < < < 2 $X,.b 2 b J $XG < $.$X,., V.].2.c $X{.E J m.H w.$X` m ,.,.z 0 5 < < q < < 5 2 2 < , T 0 4 h 6.",
"t.L 4 2 H < < < 8 i < 3 8 8 3 8 , $X3.m 2 z T $XH < #. X,.< V.].=.5 V. X].3.m m g.{.m.E m b 0 5 2 1 3 a 5 2 5 8 8 2 , T 0 : h 6.",
"t.L : 3 J < 8 q a n w q q 8 2 8 2 $X3.n < b ` $XG < #.$X,.< V.Q.$.< J M.[.Q.,.m E Q.E.p.,.` 5 5 3 , 5 b 0 5 5 8 8 8 2 T 0 3 j 6.",
"e.Z 4 3 J - q q q a a a 8 8 8 2 3 $X,.M 4 n E $X#.q =..X=.< V.J.=.5 E $.8.J.Q.$.' N.d.d.~.m.0 0 < < 5 z 0 5 q p i t 9 T q - j o.",
"t.L : 3 J a a i i 0 q 0 q q q q 3 $Xg.&.] ] T |.8.%.m.|.#., V.J.=.m J.8.` M.Q.=.Q.C.%.3.|.C.q 2 8 8 q q 5 8 9 p s s s T 0 ; j 6.",
"t.L : 5 S M M s a 9 2 < 2 2 8 i 3 $X$X$X$X[.p J.|.$X XJ.M 3 C.J.=.m J.$X&X$XZ.D -.|.$X$X{.V.i 5 q i p q 2 8 8 2 p s s J 8 ; h 6.",
"e.C 3 2 S & 8 3 5 5 5 q a p q 5 3 b 4 p a t 5 4 7 z b 7 7 p V 4 4 V D b a a a q q 5 0 q a V V a q i q q s i q 8 2 9 9 S q ; d o.",
"e.C : 5 S 2 q t p q p i q 8 8 9 7 M V n q q t i p s s n D n f 4 2 7 n D S F R S n n a a n C f A h s s s p i s s s s 8 T 0 ; j o.",
"e.Z : 8 J 9 i p p t q t p p p s V f s p a a p s f s V K C p V 4 - f V D T G Y +.H J J S V I Z C Z Z C M i i p p s h p T 0 : j o.",
"e.j 9 2 J i 9 t p i i q s C V V V a V f p s f C C p V L n C g : 2 d C n D m c Y O.$.( T Z Q _ Z Z Z L Z s i i i p h h T 0 ; j o.",
"e.j : 2 S t i p f s a n V Z K C p f C C f s K U g V C C f P C 4 & n C 7 b A B x O.1.R M A I =.( I Z C Z Z d s s p i s T 0 : C o.",
"e.L ; 8 T 8 t j C V K U ! L s n K P s s C P [ V C L I f W ^ I 7 - 7 C g 4 m $.S l Y *.%.-.<.=.T I I L V s Z j h p p C T 0 : h o.",
"6.j ; 2 J s h Z h L ! V A V j K C p V C K ^ I n P P C n ~ 4.k 4 ; j s k d 8 v  .+.0 0.!.C.*.9.9.%.J f f p p V K V f p H 3 : d | ",
"e.Z ; 8 D j s L K Q V s C I P C p f g P [ ^ V K ~ C C L ~ 4.K 7 ; h p k j s 8 v 0.] R 0.C.*.@.9.9.%.I C s K V f C K C D 3 : g 4.",
"t.L ; < D Q L Z C V h C L Z V f s f P [ [ I s U W V C W [ 4.U 5 9 j t j W j s 8 f r.E T f.Z.9.@.9.3.-.K V g C f f f V J 3 : g o.",
"e.K ; - D ^ Q h s h Z ! I d s f K K [ / ! C K } L C K P U 4.! 7 9 W s f Z W j 9 8 ' ;. .0.).0.*.>.m.g.K P V g j g V s J 3 - g o.",
"6.K : 2 T P s h C K ~ U C f V L L / } U K C / } C K ~ P L 4.~ 7 9 W U p j ! W h 8 > ( r.p.E.f.*.>.Z.C.U C K C f C L V ( 5 ; V 4.",
"e.L : 2 S n p P W ~ P a L L L P ~ { [ C f P 4.~ V L W W k 4.[ 7 : W W s h W ~ j r 8 > ] L.s. Xn.b.K.J._ f K U P f f ~ ( 5 ; g 4.",
"5.K : < T h Q ! P n p K L C P 4.o...L V K } o.V C P ~ ^ 4.4.W p 4 L ~ k s Z ~ ^ L d 8 > R L.E. X X XK.X.L V C ~ ~ L V J 5 4 C 4.",
"6.j ; 3 Q ! / ~ C V C U g j U } ..[ V K ~ { U p U [ ~ ~ / 5.~ y ; j ~ W s h ~ ^ L g u - 8 c  .,.,.1.+.I { P f f L U U ( 5 ; g 4.",
"6.C : 2 D ) P C C L U V L U { } } C C U { [ C f ~ } ~ ~ } 4.) a - h W ~ C s L } W P j t - > q c c v M C ~ ~ P j g C ! ( 5 - g o.",
"6.C : 2 T I V K U U P V ~ / ~ { L s U } / ~ f P ~ } } } } } ! a 3 h ^ ~ ! s f { { W L j y 4 O % , ; i f K ~ ~ L V s K T 3 : g o.",
"6.k : 2 ( I D ~ } [ Z U { | { _ L D [ o.| { I } o.o.o.o.| } _ a 9 ! { { ) I A } | { ! ! I Z w M V V V V I { { ) U K I ` 5 : C 4.",
"6.k - 2 ' %.&.%.%.%.%.%.%.-.%.%.%.%.&.%.-.&.&.&.-.-.%.-.-.&.' q 8 ] &.%.%.%.&.-.&.&.&.&.&.&.&.&.&.&.&.&.%.%.-.%.>.-.%.E 3 - g 4.",
"4.g - X + + + o o o + o + + o o + o + o + o + + + o o o + o o o o # o + + + + o o # # o o o o o o o o o + + o o o + + + o - f o.",
"o.j 7 7 7 7 6 6 7 7 7 7 7 7 7 = 7 6 = 6 6 = = 6 6 = = 7 6 6 7 6 : 7 7 7 : 7 7 7 7 6 7 6 e 7 e 6 = 7 = 7 7 7 7 7 7 7 7 7 7 7 j } ",
"~ k j d d g d d g g g g g g d g g g g g g d d d d d d d g d g g g g g j g g g g g j j d d d j g g j j j g j g g j g g j g g j W ",
"L k j k j k k k j K K k k K K K K K K K C K K K K K k K k k k k k k K K K K K C k k k k j k k k k k j k K K K k L K K K k j k L "
};
