/* XPM */
static char *result[] = {
/* columns rows colors chars-per-pixel */
"64 64 36 1 ",
"  c #2B3235",
". c #E0D4C1",
"X c #DFD3C0",
"o c #E1D6C2",
"O c #2C3336",
"+ c #DDD2BF",
"@ c #DED3C0",
"# c #42484B",
"$ c #DFD3C1",
"% c #2F373B",
"& c #464E4E",
"* c #C1C0B6",
"= c #373D40",
"- c #E8DCC8",
"; c #272E33",
": c #CAC8BD",
"> c #C5BDAC",
", c #DBD1BE",
"< c #575B5A",
"1 c #A2A49D",
"2 c #BAB6A8",
"3 c #D4CAB8",
"4 c #A09B91",
"5 c #3C4344",
"6 c #828178",
"7 c #496746",
"8 c #6B6D69",
"9 c #727877",
"0 c #ACACA5",
"q c #5E8754",
"w c #F2E5D0",
"e c #8F8E87",
"r c #7A7F7D",
"t c #17FF00",
"y c #FF001D",
"u c black",
/* pixels */
"..................X...XX.X.X..$...XX..X.............X...........",
".............X........XXXX$XX$$..X@..X$...XX....$...X.X.........",
"...........X.X.....X..XXXXX@XX.X.XXXXX$..XXX..XX....X.@X........",
"o......................XX..X...X..X$..................XX........",
".......X...XXXX..XXXXX.XXX@@X.X@X@@XX@XXX$XX...X.XXX@X@X........",
".......................XXXXXX.X.$XXX.X$$..........$...XX........",
".......X...X...X.XXX..XX$XXXX.X.XX@X.@$$X$.....XXXX$.XXX........",
".......XX+,+,,+,,,+,+++,,+,,+,+,,,,,,,,,,,,+,,+++,,,+,,+X.......",
".......X+----------------------------------------------+@.......",
".....XX+OOOOOOOOOOOOOOOOOOOOOOOOOOOOOOOOOOOOOOOOOOOOOOOOo+....XX",
".XX..@.oO=%%%%%%%%%%%%%%%%%%%%%%%%%%%%%%%%%%%OOOOOOO%%=O3o+X..XX",
".@XXXX+OO&&&&&&&&&&&&&&&&&&&&&&&&&&&&&&&&&&&&&&&&&&&&&&OO:o+@.XX",
".XXX@.,O5&OOOOOOOOOOOOOOOOOOOOOOOOOOOOOOOOOOOOOOOOOOOO&#O>-+X.XX",
".XXX@.,O5&O;                                    O   O%##O>-+X...",
".@@X@.,O5#OO;OOOO OOOOOO  OOOOOOOOOOOOOOOOOOOOOOOOOOO%#5O>o+X..X",
".XX.@.,O5&OOOOOOOOOOOOOOOOOOOOOOOOOOOOOOOOOO OOOOOOOO%#5O>-+X.XX",
"....X.,O5&OOOOOOOOOOOOOOOOOOOOOOOOOOOOOOOOOOOOOOOOOOO%##O>-@$.XX",
".XXXX.,O5&OOOOOOOOOOOOOOOOOOOOOOOOOOOOOOOOOOOOOOOOOOO%##O>-+XXXX",
".X..@.,O=&OOOOO OOOOOOOOOOOOOOOOOOO OOOOOOOOOO  O OOO%##O>-+.XXX",
"....X.,O=#OOOO  OOOOOOOOOOOOOOOOOOO OOOOO  OOOOOOO OO%##O>-@....",
"..X..o,O=#OOOwwwwwwwwwwwwwwwwwwwwwwwwwwwwwwwwwwwwwOOO%##O>-+....",
".....o,O=#O OwtttttttttOOOOOOOOOOOOOOOOOOOOOOOOOOwOOO%##O>-+....",
"....$o,O=#O OwtttttttttOOOOOOOOOOO OOOOOOOOOOOOOOwOOO%##O>-@....",
"....X.,O5&O OwtttttttttOOOOOOOOOOOOOOOO OOO OOO OwOOO%##O>-+....",
"..X.X.,O5&O OwtttttttttOOOOOOOOOOOOOOOOOOOOOOOOOOwOOO%&#O>-+X...",
"......,O=&O OwwwwwwwwwwwwwwwwwwwwwwwwwwwwwwwwwwwwwOOO%##O>-+X..X",
"....X.,O5&OOOOOOOOOOOOOOOOOOOOOOOOOOOOOOOOOOOOOOOOOOO%##O>-+...X",
"....X.,O=&O OOOOOOOOOOOOO OOOOOOOOOOOOOOOOOOOOOOOOOOO%##O>-+...X",
"....@.,O=&O OOOOOOOOOOOOO  OOOOOO  OOOOOOOOO OO OOOOO%##O>-+X.X.",
".X..X.,O=&O OOOOOOOOOOOO  OOOOOOOO OOOOOOOOOOOO OOOOO%##O>-+XXXX",
"....$.,O=&O OOOOOO OOOOOOOOOO OOOOOOOOOOOOOOOOO OOOOO%##O>-+....",
"....X.,O=&O OOOOOOOOOOOOOOOOOOOOOOOOOO  OOOOOOOOOOOOO%##O>-+....",
"....$.,O=&O OOOOOOOO OO  OOOO OOO  OOO OOOOOOOOOOOOOO%#5O>-+..XX",
"....X.,O=#O OOO  OOO  O     O OOOO  O  OO O     O  OO%##O>-+....",
"....X.,O=#O OOOOOOOOOOOOOOOOOOOOOO OOOOOO  OOOOOOOOOO%##O>-+....",
"...X$.,O=&O  OOO   O OO    OO O O  OOO  OO O O  OOOOO%##O>-+....",
"....X.,O=&OOOOOOOOOOOOOOOOOOOOOOOOOOOOOOOOOOOOOOOOOOOO&#O>o+XXXX",
"..XXX.,O5&######################5#####################&#O>-+XXXX",
".$XX@.,O5&##############5#########5#5#5###############&#O>o+XXXX",
".$X.@.,;;;;;;;;;;;;;;;;;;;;;;;;;;;;;;;;;;;;;;;;;;;;;;;;;O>o+@@@@",
".@@@+.,;e01111111111111111111111011111111111111111111111O2o,@@@@",
"++++,+,;0,:::::::::::::::::::::::::::::::::::::::::::::*O2o,,+,+",
"++++,@,;0::::::::::::::::::::::%%::::::::::::::::::::::2O2o,,++,",
"@+++,+,;2::::::::::::::::::::::%%:::::::::::::::::::::::O2o,,+++",
"@+@@++@;;2,:::::::::::::::::::::::::::::::::::::::::::*OO,+++@@@",
".@.X$X$-;;;;;;;;;;;;;;;;;;&&&&&&<&&&&&;;;;;;;;;;;;;;;;;O.o+@@XX$",
".XX..XX+-1444444444444441;5r99999999r<;4444444444444444-.+X@XX.X",
".......$+---------------w;<01111111106;----------------+@.....XX",
".....X$X@,,,,,,,,,,,,,,3w;<*22222220*e;-,,,,,,,,,,,,,,,+@$XXX.XX",
".$XXX$@@+@++++++++,,,,,-;;0:*********2;;.,++++++++,,++++@$$XX$$X",
"..XXX$$@@++++++++,++,+3w;8@**********:4;-,+++++++++,++++@X.X@$$$",
"..$$$XX@@@+++++++++++,w;;2************>;;-+++++++++++++@X.$X@.$X",
".....X.X.$@@$@@$@+++,-;;2:************:*;;,++++++++@++@.@.$$$...",
"..XXXXX@>>>>>>>>>>>>>3;;;;;;;;;;;;;;;;;;;;>>>>>>>>>>>>>>,.@X$XXX",
".XX@XX@+33>22>222222224666666666666666666e22222222222233,.@+@X@@",
".XX..$.$.o333333333333,+@@@+++,++,,,++@@+,333333333333...$$X..X$",
"........$@.......o...o.@@$$@@@@@@@+@@@@$@@..o.....o.o.@@$.......",
".........$$+++@@@@@@@@@@@@@@@++@++++@@@@@@++@@@+@+@@@@@$....$...",
"...........$$@$.X$..X..@$..@$@@$X@@@X.$.@@@XX.XX$@XX$X$@........",
"...........@XXX@@..X$$$@@@@XX@@@@@@@@@$$@@+@$XXXX@@@@@@X........",
"........X$XXX@@@$$XX@XX@@XX@@@X@@@@@@@.XX$@@X.$@@@X@@X@XX.......",
"..........$@@@@X$@XX@X@@X@XX@@$$XX@@@@@.@XXXX.$@@@@@@X@X........",
"..........XXXXXX$@X.$XX$XXXXXX$.$X@$$$$.X$XXX.$X.XX.$..X........",
".......$$.$XX$$X$@X.$$$$XX$X.$$.X@@@$$...$$XX$$XXXX$X.$@........"
};
