/* XPM */
static char *a6b97087538f4330807c933e7b3c6783RMwKfYMk7hSmiRPH[] = {
/* columns rows colors chars-per-pixel */
"64 64 36 1 ",
"  c #2B3235",
". c #E0D4C1",
"X c #DFD3C0",
"o c #E1D6C2",
"O c #2C3336",
"+ c #DDD2BF",
"@ c #DED3C0",
"# c #42484B",
"$ c #DFD3C1",
"% c #2F373B",
"& c #464E4E",
"* c #C1C0B6",
"= c #373D40",
"- c #E8DCC8",
"; c #272E33",
": c #CAC8BD",
"> c #C5BDAC",
", c #DBD1BE",
"< c #575B5A",
"1 c #A2A49D",
"2 c #BAB6A8",
"3 c #D4CAB8",
"4 c #A09B91",
"5 c #3C4344",
"6 c #828178",
"7 c #496746",
"8 c #6B6D69",
"9 c #727877",
"0 c #ACACA5",
"q c #5E8754",
"w c #F2E5D0",
"e c #8F8E87",
"r c #7A7F7D",
"t c #17FF00",
"y c #FF001D",
"u c black",
/* pixels */
"..................X...XX.X.X..$...XX..X.............X...........",
".............X........XXXX$XX$$..X@..X$...XX....$...X.X.........",
"...........X.X.....X..XXXXX@XX.X.XXXXX$..XXX..XX....X.@X........",
"o......................XX..X...X..X$..................XX........",
".......X...XXXX..XXXXX.XXX@@X.X@X@@XX@XXX$XX...X.XXX@X@X........",
".......................XXXXXX.X.$XXX.X$$..........$...XX........",
".......X...X...X.XXX..XX$XXXX.X.XX@X.@$$X$.....XXXX$.XXX........",
".......XX+,+,,+,,,+,++XXXXX,+,+,,,,,,,,,,,,+,,+++,,,+,,+X.......",
".......X+XXXXXXXXXXXXXX---XXXXXXXXXXXXXXXXXXXXXXXXXXXXXXX.......",
".....XX+OOOOOOOOOOOOOOOOOOOOOOOOOOOOOOOOOOOOOOOOOOOOOOOOo+....XX",
".XX..@.oO=%%%%%%%%%%%%%%%%%%%%%%%%%%%%%%%%%%%OOOOOOO%%=O3o+X..XX",
".@XXXX+OO&&&&&&&&&&&&&&&&&&&&&&&&&&&&&&&&&&&&&&&&&&&&&&OOXX+@.XX",
".XXX@.,O5&OOOOOOOOOOOOOOOOOOOOOOOOOOOOOOOOOOOOOOOOOOOO&#OXX+X.XX",
".XXX@.,O5&O;                                    O   O%##OXX+X...",
".@@X@.,O5#OO;OOOO OOOOOO  OOOOOOOOOOOOOOOOOOOOOOOOOOO%#5OXX+X..X",
".XX.@.,O5&OOOOOOOOOOOOwwwOOOwwwwwwwwwwOOOOOO OOOOOOOO%#5OXX+X.XX",
"....X.,O5&OOOOOOOOOOwwwwwOOOwwwwwwwwwwOOOOOOOOOOOOOOO%##OXX@$.XX",
".XXXX.,O5&OOOOOOOOOwwwww OOOwwwwwwwwwwOOOOOOOOOOOOOOO%##OXX+XXXX",
".X..@.,O=&OOOOO OOwwwww  OOOwww OwwwwwOOOOOOOO OOOOOO%##OXX+.XXX",
"....X.,O=#OOOOOOOwwwww  OOOOww  OwwwwwOOO OOOOOOOO OO%##OXX@....",
"..X..o,O=#OOOOOOOwwww     OOw  OwwwwwOOOOOOOOOOOOOOOO%##OXX+....",
".....o,O=#O OOOOwwwww     OOOOOOwwwwwOOOwOOOOOOOOOOOO%##OXX+....",
"....$o,O=#O OO wwwww  www OOOOOwwwwwOOOwwOOOOOOOOOOOO%##OXX@....",
"....X.,O5&O OO wwwwwwwwww OOOOwwwwwOOOwwwOOOOOOOOOOOO%##OXX+....",
"..X.X.,O5&O OO wwwwwwwwww OOOOwwwwwOOwwwwOOOOOOOOOOOO%&#OXX+X...",
"......,O=&O OO wwwwwwwwwwOOOOOwwwwwwwwwwwOOOOOOOOOOOO%##OXX+X..X",
"....X.,O5&OOOOOOOOOO wwwwOOOOOwwwwwwwwwwwOOOOOOOOOOOO%##OXX+...X",
"....X.,O=&O OOOOOOOO wwww OOOOwwwwwwwwwwwOOOOOOOOOOOO%##OXX+...X",
"....@.,O=&O OOOOOOOO       OOOOOO  OOOOOOOOO OO OOOOO%##OXX+X.X.",
".X..X.,O=&O OOOOOOO       OOOOOOOO OOOOOOOOOOOO OOOOO%##OXX+XXXX",
"....$.,O=&O OOOOOO OOOOOOOOOO OOOwOOwOwOwOwwwOwwwOOOO%##OXX+....",
"....X.,O=&O wwwwOwwwwOwwOwwOwwwwOwOOwOw OOwOOOwOOOOOO%##OXX+....",
"....$.,O=&O wwwwOwOOwOw wOwOw OwOw OwOwOwOwwwOwwwOOOO%#5OXX+..XX",
"....X.,O=#O www  wOOw w   w wwwwOw  w wOw O w   w  OO%##OXX+....",
"....X.,O=#O wOwwOwwwwOwOOOwOwOOwOwwOwwwOw wwwOwwwOOOO%##OXX+....",
"...X$.,O=&O  OOO   O OO    OO O O  OOO  OO O O  OOOOO%##OXX+....",
"....X.,O=&OOOOOOOOOOOOOOOOOOOOOOOOOOOOOOOOOOOOOOOOOOOO&#OXX+XXXX",
"..XXX.,O5&######################5#####################&#OXX+XXXX",
".$XX@.,O5&##############5#########5#5#5###############&#OXX+XXXX",
".$X.@.,;;;;;;;;;;;;;;;;;;;;;;;;;;;;;;;;;;;;;;;;;;;;;;;;;OXX+@@@@",
".@@@+.,;e01111111111111111111111011111111111111111111111OXX,@@@@",
"++++,+,;0,:::::::::::::::::::::::::::::::::::::::::::::*OXX,,+,+",
"++++,@,;0::::::::::::::::::::::%%::::::::::::::::::::::2OXX,,++,",
"@+++,+,;2::::::::::::::::::::::%%:::::::::::::::::::::::OXX,,+++",
"@+@@++@;;2,:::::::::::::::::::::::::::::::::::::::::::*OO,+++@@@",
".@.X$X$X;;;;;;;;;;;;;;;;;;&&&&&&<&&&&&;;;;;;;;;;;;;;;;;O.o+@@XX$",
".XX..XX+XXXXXXXXXXXXXXXXX;5r99999999r<;XXXXXXXXXXXXXXXXX.+X@XX.X",
".......$XXXXXXXXXXXXXXXXX;<01111111106;XXXXXXXXXXXXXXXXX@.....XX",
".....X$X@,,,,,,,,,,,,,,XX;<*22222220*e;-,,,,,,,,,,,,,,,+@$XXX.XX",
".$XXX$@@+@3+++++++,,,,,X;;0:*********2;;.,++++++++,,++++@$$XX$$X",
"..XXX$$@@++++++++,++,+XX;8@**********:4;-,+++++++++,++++@X.X@$$$",
"..$$$XX@@@+++++++++++XX;;2************>;;-+++++++++++++@X.$X@.$X",
".....X.X.$@@$@@$@+++,X;;2:************:*;;,++++++++@++@.@.$$$...",
"..XXXXXXXXXXXXXXXXXXX5;;;;;;;;;;;;;;;;;;;OOXXXXXXXXXXXXX,.@X$XXX",
".XX@XXXXXXXXXXXXXXXXXXXXXXXXXXXXXXXXXXXXXXXXXXXXXXXXXXXXXX@+@X@@",
".XX..$.X.XXXXXXXXXXXXXXXXXXXXXXXXXXXXXXXXXXXXXXXXXXXXXXX.$$X..X$",
".......XXXXXXXXXXXXXXXXXXXXXXXXXXXXXXXXXXXXXXXXXXXXXXX@@$.......",
".........$XXXXXXX@@@@@@@@@@@@XXXXXXXXXXXXXXXXXX+@+@@@@@$....$...",
"...........$$@$.X$..X..@$..@$@@$X@@@X.$.@@@XX.XX$@XX$X$@........",
"...........@XXX@@..X$$$@@@@XX@@@@@@@@@$$@@+@$XXXX@@@@@@X........",
"........X$XXX@@@$$XX@XX@@XX@@@X@@@@@@@.XX$@@X.$@@@X@@X@XX.......",
"..........$@@@@X$@XX@X@@X@XX@@$$XX@@@@@.@XXXX.$@@@@@@X@X........",
"..........XXXXXX$@X.$XX$XXXXXX$.$X@$$$$.X$XXX.$X.XX.$..X........",
".......$$.$XX$$X$@X.$$$$XX$X.$$.X@@@$$...$$XX$$XXXX$X.$@........"
};
