/* XPM */
static char *aff6ef1b30714f2382e26dd974af11a0p19fZA7S12dKbbKY[] = {
/* columns rows colors chars-per-pixel */
"64 64 3 1 ",
"  c #272424",
". c #978D8D",
"X c white",
/* pixels */
"                                                                ",
"                                                                ",
"                                                                ",
"                                                                ",
"                                                                ",
"                                                                ",
"                                                                ",
"                                                                ",
"                                                                ",
"                                                                ",
"                                                                ",
"            .XXXXXXXXXX          XXXXXXXXXXXXXXXXXXX            ",
"            .XXXXXXXXXX          XXXXXXXXXXXXXXXXXXX            ",
"            .XXXXXXXXXX          XXXXXXXXXXXXXXXXXXX            ",
"           ..XXXXXXXXX           XXXXXXXXXXXXXXXXXXX            ",
"           .XXXXXXXXXX           XXXXX....XXXXXXXXXX            ",
"          ..XXXXXXXXX            XXXX..  .XXXXXXXXXX            ",
"          ..XXXXXXXXX            XXXX.   .XXXXXXXXXX            ",
"          .XXXXXXXXXX            XXX..   .XXXXXXXXXX            ",
"         ..XXXXXXXXX             ....    .XXXXXXXXXX            ",
"         .XXXXXXXXXX                     .XXXXXXXXXX            ",
"        ..XXXXXXXXX                      .XXXXXXXXXX            ",
"        .XXXXXXXXXX                     ..XXXXXXXXXX            ",
"       ..XXXXXXXXX                      .XXXXXXXXXXX            ",
"       .XXXXXXXXXX                     ..XXXXXXXXXX             ",
"      ..XXXXXXXXXX                     .XXXXXXXXXXX             ",
"     ..XXXXXXXXXX                     ..XXXXXXXXXXX             ",
"     .XXXXXXXXXXX                     .XXXXXXXXXXX              ",
"    ..XXXXXXXXXX                     ..XXXXXXXXXX               ",
"   ..XXXXXXXXXXX                    ..XXXXXXXXXXX               ",
"   .XXXXXXXXXXX                     .XXXXXXXXXXX                ",
"   XXXXXXXXXXX                     ..XXXXXXXXXX                 ",
"   XXXXXXXXXXX                    ..XXXXXXXXXX                  ",
"   XXXXXXXXXXX................    .XXXXXXXXXXX                  ",
"   XXXXXXXXXXXXXXXXXXXXXXXXXXX    .XXXXXXXXXX       X           ",
"   XXXXXXXXXXXXXXXXXXXXXXXXXXX    .XXXXXXXXXX      XX           ",
"   XXXXXXXXXXXXXXXXXXXXXXXXXXX    .XXXXXXXXXX     XXX           ",
"   XXXXXXXXXXXXXXXXXXXXXXXXXXX    .XXXXXXXXXX    XXXX           ",
"   XXXXXXXXXXXXXXXXXXXXXXXXXXX    .XXXXXXXXXX   XXXXX           ",
"   XXXXXXXXXXXXXXXXXXXXXXXXXXX    .XXXXXXXXXX  XXXXXX           ",
"   XXXXXXXXXXXXXXXXXXXXXXXXXXX    .XXXXXXXXXX  XXXXXX           ",
"   XXXXXXXXXXXXXXXXXXXXXXXXXXX    .XXXXXXXXXX XXXXXXX           ",
"                     .XXXXXXXX    .XXXXXXXXXXXXXXXXXX           ",
"                     .XXXXXXXX    .XXXXXXXXXXXXXXXXXX           ",
"                     .XXXXXXXX    ...................           ",
"                     .XXXXXXXX                                  ",
"                     .XXXXXXXX                                  ",
"                     .XXXXXXXX                                  ",
"                     .XXXXXXXX                                  ",
"                     .XXXXXXXX                                  ",
"                     .XXXXXXXX                                  ",
"                     .........                                  ",
"                                                                ",
"                                                                ",
"                                                                ",
"                                                                ",
"                                                                ",
"                                                                ",
"                                                                ",
"                                                                ",
"                                                                ",
"                                                                ",
"                                                                ",
"                                                                "
};
