/* XPM */
static char	*collectible_xpm[] = {"32 32 3 1",
									"0 c #000000",
									"1 c #f0c419",
									"2 c #fff6bf",
									"00000000000000000000000000000000",
									"00000000000000000000000000000000",
									"00000000000000000000000000000000",
									"00000000000000000000000000000000",
									"00000000000000000000000000000000",
									"00000000000000000000000000000000",
									"00000000000001111110000000000000",
									"00000000000111111111100000000000",
									"00000000011111111111111000000000",
									"00000000111111111111111100000000",
									"00000000111111222211111100000000",
									"00000001111122222222111110000000",
									"00000001111222222222211110000000",
									"00000011111222222222211111000000",
									"00000011112222222222221111000000",
									"00000011112222222222221111000000",
									"00000011112222222222221111000000",
									"00000011112222222222221111000000",
									"00000011111222222222211111000000",
									"00000001111222222222211110000000",
									"00000001111122222222111110000000",
									"00000000111111222211111100000000",
									"00000000111111111111111100000000",
									"00000000011111111111111000000000",
									"00000000000111111111100000000000",
									"00000000000001111110000000000000",
									"00000000000000000000000000000000",
									"00000000000000000000000000000000",
									"00000000000000000000000000000000",
									"00000000000000000000000000000000",
									"00000000000000000000000000000000",
									"00000000000000000000000000000000"};
