/* XPM */
static char	*a0646fdc122c49acb0bdf23cef3d567dZDlBa64zJYmVwFeS[] = {
	/* columns rows colors chars-per-pixel */
	"32 32 16 1 ",
	"  c #2C2626",
	". c #681212",
	"X c #582A2A",
	"o c #6B2F2F",
	"O c #5B4023",
	"+ c #455B30",
	"@ c #7A542D",
	"# c #940303",
	"$ c #8B1B1B",
	"% c #975D35",
	"& c #DF7126",
	"* c #946B41",
	"= c #A07050",
	"- c #C48F59",
	"; c #EF9558",
	": c #CC8BB7",
	/* pixels */
	";;&..$$$..$$$..&&.$$&#$$$$$$$$.;",
	"..;&.#$$$.$$$;;&$$$$&&##$$$$$$.;",
	"...&&&#$$$$;&&$$$$$$$&...$$$$$$&",
	"..&&&;&&&&;;&&&$$$$$.&&&...$$$&&",
	"&&&..$$*****************....$&&$",
	";...$$*-----------------*&&&&&$$",
	";#$$.*---   - - - -   ---*;..$$.",
	"&&$$*---- --- - ---- ----*;&.$$.",
	".&&#*----  --- -- -- ----*.;.$..",
	".$;#*---- --- - - -- ----*.;$$..",
	".$;;#*---   - - - -- ----*$&$$..",
	"$$$&##*-----------------*$&&$$$.",
	"$$$$&&&*****************$&&$$$$$",
	"$$$$$$;;$.&..O@@@O$$$&&&&&$$$$$$",
	"$;;&&&;.****************...$$$&&",
	"$;###.&*----------------*..&&&&&",
	"&;#$$.*-------    -------*&&.$$&",
	"&$$$$$*------      -------*..$$&",
	"&$$$$$*-----  -  -  ------*...$&",
	"&&..$$*------      -------*&..$;",
	"$;&.$$*--------  --------*.&..$;",
	"$;&&&##*----------------*..&..$;",
	"$$&;;&&&****************..&&..$;",
	".$$;$$$$$$&#$O@@@O........&...$;",
	".$$;$&&&&$;;#O@@@O$.......&...;;",
	"..$&;&$.&&&;;O@@@O$$$.....&&&;&$",
	"..&&$$$...$$;O@@@O$$$$....&$$$$$",
	".&&$$$$$.$$$.O@@@O.$$$$$$$&$$.$$",
	";&..$$$$$$$.:+@@@O.$$$$$$&&$...$",
	";&..$$$$ooo:X:@@@OXooooo$&&&&..$",
	";&...oooooo+:XOOO%%%oooo%%#$&;;$",
	";;...$$oooooXX%=XX%%%%&&&##$$$;;"};
