/* XPM */
static char *collectible[] = {
"64 64 10 1",
"  c #050510", /* Sfondo pavimento */
". c #0A1430", /* Linee griglia secondarie */
"o c #00F2FF", /* Laser pavimento */
"B c #000000", /* Outline e schermo scuro */
"g c #4E4E4E", /* Grigio metallo computer */
"G c #888888", /* Grigio chiaro riflessi */
"v c #00FF41", /* Verde Matrix brillante */
"V c #008F11", /* Verde Matrix scuro */
"w c #FFFFFF", /* Bianco punti luce */
"r c #FF007A", /* LED di stato Magenta */
"    o                                                           ",
"    o                                                           ",
"    o                                                           ",
"    o                                                           ",
"    o                                                           ",
"    o                                                           ",
"ooooo oooooooooooooooooooooooooooooooooooooooooooooooooooooooooo",
"    o         .         .         .         .         .         ",
"    o         .         .         .         .         .         ",
"    o         .         .         .         .         .         ",
"    o         .         .         .         .         .         ",
"    o         .         .         .         .         .         ",
"    o         .         .         .         .         .         ",
"    o         .         .         .         .         .         ",
"    o         .         .         .         .         .         ",
"    o         .         .         .         .         .         ",
"    o         .         .         .         .         .         ",
"    o         .         .         .         .         .         ",
"    o          BBBBBBBBBBBBBBBBBBBBBBBBBBBBBB         .         ",
"    o        BBGGGGGGGGGGGGGGGGGGGGGGGGGGGGGGBB       .         ",
"    o       BGGggggggggggggggggggggggggggggggGGB      .         ",
"    o      BGggggggggggggggggggggggggggggggggggGB     .         ",
"    o      BGggBBBBBBBBBBBBBBBBBBBBBBBBBBBBBBggBG     .         ",
"    o      BGggBvBBBBBBVBBBBBBvBBBBBBVBBBBBBvBggB     .         ",
"    o      BGggBVBBvBBBBvBBBBVBBBBvBBBBvBBBBVBggB     .         ",
"    o      BGggBBBBBVBBBBVBBvBBBBVBBvBBvBBBBBBggB     .         ",
"    o      BGggBvBBBBvBBBBBBVBBBvBBBBBBBBVBBvBggB     .         ",
"    o      BGggBvBBBBVBBvBBBBBBBVBBvBBBBvBBBBVggB     .         ",
"    o      BGggBBBBVBBBBBBvBBvBBBBBBVBBvBBBBBBggB     .         ",
"    o      BGggBBBBBBvBBBBVBBvBBBBvBBBBBBVBBvBggB     .         ",
"    o      BGggBBvBBBBvBBBBBBBBBBVBBvBBvBBBBBBggB     .         ",
"    o      BGggBBVBBvBBBBvBBBBVBBBBvBBBBvBBBBVggB     .         ",
"    o      BGggBBBBBVBBBBVBBvBBBBVBBvBBvBBBBBBggB     .         ",
"    o      BGggBvBBBBvBBBBBBVBBBvBBBBBBBBVBBvBggB     .         ",
"    o      BGggBBBBBBBBBBBBBBBBBBBBBBBBBBBBBBggB      .         ",
"    o      BGggggggggggggggggggggggggggggggggggB      .         ",
"    o      BBgggggggggggggggggrrgggggggggggggggB      .         ",
"    o       BBBBBBBBBBBBBBBBBBBBBBBBBBBBBBBBBBB       .         ",
"    o               BggggggggggggggggB                .         ",
"    o             BBggggggggggggggggggBB              .         ",
"    o          BBBggggggggggggggggggggggBBB           .         ",
"    o        BBggggggggggggggggggggggggggggBB         .         ",
"    o       BggggggggggggggggggggggggggggggggB        .         ",
"    o       BggggGggggGggggGggggGggggGggggGggB        .         ",
"    o       BBBBBBBBBBBBBBBBBBBBBBBBBBBBBBBBBB        .         ",
"    o         .         .         .         .         .         ",
"    o         .         .         .         .         .         ",
"    o         .         .         .         .         .         ",
"    o         .         .         .         .         .         ",
"    o         .         .         .         .         .         ",
"    o         .         .         .         .         .         ",
"    o         .         .         .         .         .         ",
"    o         .         .         .         .         .         ",
"    o         .         .         .         .         .         ",
"    o         .         .         .         .         .         ",
"    o         .         .         .         .         .         ",
"    o         .         .         .         .         .         ",
"    o         .         .         .         .         .         ",
"    o         .         .         .         .         .         ",
"    o         .         .         .         .         .         ",
"    o         .         .         .         .         .         ",
"    o         .         .         .         .         .         ",
"    o         .         .         .         .         .         ",
"    o         .         .         .         .         .         ",
"    o         .         .         .         .         .         "
};