/* XPM */
static char *exit[] = {
"64 64 7 1",
"  c #050510", /* Sfondo blu quasi nero del pavimento */
". c #0A1430", /* Linee griglia secondarie pavimento */
"o c #00F2FF", /* Laser ciano del pavimento e del portale */
"B c #000000", /* Nero (Vuoto del portale) */
"m c #FF007A", /* Magenta Neon */
"M c #7A003A", /* Magenta Scuro (Profondità) */
"w c #FFFFFF", /* Bianco (Scintille di dati) */
"                                                                ",
"                                                                ",
"                                                                ",
"                                                                ",
"    o                   BBBBBBBBBBBB                            ",
"    o               BBBBmmmmmmmmmmmmBBBB                        ",
"ooooo ooooooooooooBBmmmmMMMMMMMMMMMMmmmmBBoooooooooooooooooooooo",
"    o           BBmmmmMMMMBBBBBBBBBBMMMMmmmmBB        .         ",
"    o         BBmmmmMMBBBBBBooooBBBBBBBBMMmmmmBB      .         ",
"    o        BmmmmMMBBBBooooooooooooBBBBBBMMmmmmB     .         ",
"    o       BmmmmMBBBBooooooooooooooooBBBBMBmmmB      .         ",
"    o      BmmmMMBBBBooooooooooooooooooBBBBMMmmmB     .         ",
"    o     BmmmMBBBBooooooooooooooooooooooBBBBMmmmB    .         ",
"    o    BmmmMBBBBoooooooooBBBBooooooooooooBBBMmmmB   .         ",
"    o   BmmmMBBBBooooooooBBBBBBBBooooooooooBBBMmmmB   .         ",
"    o  BmmmMBBBBoooooooBBBBBBBBBBBBoooooooooBBBMmmmB  .         ",
"    o  BmmmMBBBoooooooBBBBBBBBBBBBBBooooooooBBBMmmmB  .         ",
"    o BmmmMBBBoooooooBBBBBBBBBBBBBBBBoooooooBBBMmmmB  .         ",
"    o BmmmMBBBoooooooBBBBBBBBBBBBBBBBBBoooooBBBMmmmB  .         ",
"    o BmmmMBBBooooooBBBBBBBBBBBBBBBBBBBBooooBBBMmmmB  .         ",
"    oBmmmMBBBooooooBBBBBBBBBBBBBBBBBBBBBBoooBBBMmmmB  .         ",
"    oBmmmMBBBoooooBBBBBBBBBBBBBBBBBBBBBBBBoooBBMmmmB  .         ",
"    oBmmmMBBoooooBBBBBBBBBBBBBBBBBBBBBBBBBBoooBBMmmmB .         ",
"    oBmmmMBBoooooBBBBBBBBBBwwBBBBBBBBBBBBBBoooBBMmmmB .         ",
"    oBmmmMBBoooooBBBBBBBBBBwwwwBBBBBBBBBBBBoooBBMmmmB .         ",
"    oBmmmMBBoooooBBBBBBBBBBwwwwBBBBBBBBBBBBoooBBMmmmB .         ",
"    oBmmmMBBoooooBBBBBBBBBBBBBBBBBBBBBBBBBBoooBBMmmmB .         ",
"    oBmmmMBBoooooBBBBBBBBBBBBBBBBBBBBBBBBBBoooBBMmmmB .         ",
"    oBmmmMBBoooooBBBBBBBBBBBBBBBBBBBBBBBBBBoooBBMmmmB .         ",
"    oBmmmMBBoooooBBBBBBBBBBBBBBBBBBBBBBBBBBoooBBMmmmB .         ",
"    oBmmmMBBoooooBBBBBBBBBBBBBBBBBBBBBBBBBBoooBBMmmmB .         ",
"    oBmmmMBBoooooBBBBBBBBBBBBBBBBBBBBBBBBBBoooBBMmmmB .         ",
"    oBmmmMBBoooooBBBBBBBBBBBBBBBBBBBBBBBBBBoooBBMmmmB .         ",
"    oBmmmMBBoooooBBBBBBBBBBBBBBBBBBBBBBBBBBoooBBMmmmB .         ",
"    oBmmmMBBoooooBBBBBBBBBBBBBBBBBBBBBBBBBBoooBBMmmmB .         ",
"    oBmmmMBBoooooBBBBBBBBBBBBBBBBBBBBBBBBBBoooBBMmmmB .         ",
"    oBmmmMBBoooooBBBBBBBBBBBBBBBBBBBBBBBBBBoooBBMmmmB .         ",
"    oBmmmMBBoooooBBBBBBBBBBBBBBBBBBBBBBBBBBoooBBMmmmB .         ",
"    oBmmmMBBoooooBBBBBBBBBBBBBBBBBBBBBBBBBBoooBBMmmmB .         ",
"    oBmmmMBBoooooBBBBBBBBBBBBBBBBBBBBBBBBBBoooBBMmmmB .         ",
"    oBmmmMBBoooooBBBBBBBBBBBBBBBBBBBBBBBBBBoooBBMmmmB .         ",
"    o BmmmMBBoooooBBBBBBBBBBBBBBBBBBBBBBBBoooBBMmmmB  .         ",
"    o BmmmMBBoooooBBBBBBBBBBBBBBBBBBBBBBBBoooBBMmmmB  .         ",
"    o BmmmMBBBoooooBBBBBBBBBBBBBBBBBBBBBBoooBBMmmmB   .         ",
"    o BmmmMBBBooooooBBBBBBBBBBBBBBBBBBBBoooBBBMmmmB   .         ",
"    o  BmmmMBBBooooooBBBBBBBBBBBBBBBBBBooooBBBMmmmB   .         ",
"    o  BmmmMBBBoooooooBBBBBBBBBBBBBBBBooooBBBMmmmB    .         ",
"    o   BmmmMBBBoooooooBBBBBBBBBBBBBBooooBBBMmmmB     .         ",
"    o    BmmmMBBBoooooooBBBBBBBBBBBBooooBBBMmmmB      .         ",
"    o    BmmmMBBBBoooooooBBBBBBBBBBoooooBBBMmmmB      .         ",
"    o     BmmmMBBBBooooooooBBBBBBBoooooBBBMmmmB       .         ",
"    o      BmmmMBBBBoooooooooBBBBoooooBBBMmmmB        .         ",
"    o       BmmmMBBBBooooooooooooooooBBBBMmmmB        .         ",
"    o        BmmmMMBBBBoooooooooooooBBBBMMmmmB        .         ",
"    o         BmmmmMBBBBoooooooooooBBBBMBmmmB         .         ",
"    o          BmmmmMMBBBBooooooooBBBBBMMmmmB         .         ",
"    o         . BBmmmmMMBBBBBBBBBBBBMMmmmmBB          .         ",
"    o         .   BBmmmmMMMBBBBBBBMMMmmmmBB .         .         ",
"    o         .     mmmmMMMMMMMMMMMMmmmmBB  .         .         ",
"    o         .      BBBBmmmmmmmmmmmmBBBB   .         .         ",
"    o         .          BBBBBBBBBBBB       .         .         ",
"    o         .         .         .         .         .         ",
"    o         .         .         .         .         .         ",
"    o         .         .         .         .         .         "
};