/* XPM */
static char *player[] = {
"64 64 9 1",
"  c #050510", /* Sfondo pavimento */
". c #0A1430", /* Linee griglia secondarie */
"o c #00F2FF", /* Laser pavimento */
"B c #000000", /* Outline nero */
"p c #D35BFF", /* Viola chiaro (Testa) */
"P c #9B26D1", /* Viola scuro (Ombra testa) */
"v c #E8A8FF", /* Riflesso bianco/viola */
"k c #6A1B8F", /* Viola scurissimo (Corpo/Gambe) */
"K c #4A1264", /* Ombra gambe */
"    o                                                           ",
"    o                                                           ",
"    o                                                           ",
"    o                                                           ",
"    o                                                           ",
"    o                                                           ",
"ooooo oooooooooooooooooooooooooooooooooooooooooooooooooooooooooo",
"    o         .         .         .         .         .         ",
"    o         .         .         .         .         .         ",
"    o         .         .         .         .         .         ",
"    o         .         .         .         .         .         ",
"    o         .         .         .         .         .         ",
"    o         .         .         .         .         .         ",
"    o         .         .         .         .         .         ",
"    o         .         .         .         .         .         ",
"    o         .         .         .         .         .         ",
"    o         .         .         .         .         .         ",
"    o         .         .         .         .         .         ",
"    o         .         .         .         .         .         ",
"    o         .         .         .         .         .         ",
"    o         .         .         .         .         .         ",
"    o         .     BBBBBBBBBBBBBBBB        .         .         ",
"    o           BBBBppppppppppppppppBBBB    .         .         ",
"    o         BBppppppppppppppppppppppppBB  .         .         ",
"    o       BBppppppppppppppppppppppppppppBB          .         ",
"    o      BppppppppvvvvvvvvvvvvppppppppppppB         .         ",
"    o     BppppppvvvvvvvvvvvvvvvvppppppppppppB        .         ",
"    o     BppppvvvvvvvvvvvvvvvvvvvvppppppppppB        .         ",
"    o     BppppvvvvvvvvvvvvvvvvvvvvppppppppppB        .         ",
"    o     BppppppppppppppppppppppppppppppppppB        .         ",
"    o     BppppppppppppppppppppppppppppppppppB        .         ",
"    o     BppppppppppppppppPPPPPPPPPPppppppppB        .         ",
"    o     BppppppppppPPPPPPPPPPPPPPPPPPppppppB        .         ",
"    o     BpppppppppPPPPPPPPPPPPPPPPPPPPpppppB        .         ",
"    o     BpppppppppPPPPPPPPPPPPPPPPPPPPpppppB        .         ",
"    o     BpppppppppPPPPPPPPPPPPPPPPPPPPpppppB        .         ",
"    o     BppvvvvpppPPPPPPPPPPPPPPPPPPPPpppppB        .         ",
"    o     BpppppppppPPPPPPPPPPPPPPPPPPPPpppppB        .         ",
"    o     BBpppppppPPPPPPPPPPPPPPPPPPPPppppbBB        .         ",
"    o       BBpppppppPPPPPPPPPPPPPPPPPPPPBB           .         ",
"    o         BBBBpppppPPPPPPPPPPPPBBBBBB             .         ",
"    o             BBBBBBppppppBBBBBB                  .         ",
"    o                  BkkkkkkB                       .         ",
"    o                  BkkkkkkB                       .         ",
"    o                BBkkkkkkkkBB                     .         ",
"    o              BBkkkkkkkkkkkkBB                   .         ",
"    o            BBkkkkkkkkkkkkkkkkBB                 .         ",
"    o    BBBBBBBBkkkkkkkBBBBBBkkkkkkkBBBBBBBB         .         ",
"    o   BkkkkkkkkkkkkkBB      BBkkkkkkkkkkkkkB        .         ",
"    o  BkkkkkkkkkkkkBB          BBkkkkkkkkkkkkB       .         ",
"    o BkkkkkkkBBkkkBB            BBkkkBBkkkkkkkB      .         ",
"    o BkkkkkBB BkkB                BkkB BBkkkkkB      .         ",
"    o BkkkBB   BkkB                BkkB   BBkkkBB     .         ",
"    o BkkB     BkkB                BkkB     BkkB      .         ",
"    o BBB      BBB                 BBB      BBB       .         ",
"    o KKK      KKK                 KKK      KKK       .         ",
"    o         .         .         .         .         .         ",
"    o         .         .         .         .         .         ",
"    o         .         .         .         .         .         ",
"    o         .         .         .         .         .         ",
"    o         .         .         .         .         .         ",
"    o         .         .         .         .         .         ",
"    o         .         .         .         .         .         ",
"    o         .         .         .         .         .         ",
"    o         .         .         .         .         .         "
};