/* XPM */
static char *wall[] = {
"64 64 6 1",
"  c #0A0A0A", /* Sfondo Nero (Spazi vuoti) */
". c #1A1A2E", /* Blu Notte (Base del pannello) */
"X c #4E4E4E", /* Grigio (Bordi metallici) */
"o c #00F2FF", /* Ciano Neon (Energia viva) */
"O c #008B94", /* Ciano Scuro (Energia spenta/Ombra) */
"+ c #FFFFFF", /* Bianco (Riflesso metallo) */
"XXXXXXXXXXXXXXXXXXXXXXXXXXXXXXXXXXXXXXXXXXXXXXXXXXXXXXXXXXXXXXXX",
"X++++++..................................................XXXXXXX",
"X+....X..................................................X.....X",
"X+....X   ............................................   X.....X",
"X+....X   ............................................   X.....X",
"X+....X   ...oooooooooooooooooooooooooooooooooooooo...   X.....X",
"X+....X   ...oooooooooooooooooooooooooooooooooooooo...   X.....X",
"X+....X   ...OOO................................OOO...   X.....X",
"X+....X   ...OOO................................OOO...   X.....X",
"X+....X   ............................................   X.....X",
"X+....X   ............................................   X.....X",
"X+....X   ....XXXXXXX......................XXXXXXX....   X.....X",
"X+....X   ....X.....X......................X.....X....   X.....X",
"X+....X   ....X.+++.X......................X.+++.X....   X.....X",
"X+....X   ....X.+X+.X......................X.+X+.X....   X.....X",
"X+....X   ....X.+++.X......................X.+++.X....   X.....X",
"X+....X   ....X.....X......................X.....X....   X.....X",
"X+....X   ....XXXXXXX......................XXXXXXX....   X.....X",
"X+....X..................................................X.....X",
"X+....X..................................................X.....X",
"X+....X..................................................X.....X",
"X+....X..................................................X.....X",
"X+....X          oooooooooooooooooooooooooooooo          X.....X",
"X+....X          oooooooooooooooooooooooooooooo          X.....X",
"X+....X          oooooooooooooooooooooooooooooo          X.....X",
"X+....X          OOOOOOOOOOOOOOOOOOOOOOOOOOOOOO          X.....X",
"X+....X                                                  X.....X",
"X+....X                                                  X.....X",
"X+....X..................................................X.....X",
"X+....X..................................................X.....X",
"X+....X..................................................X.....X",
"X+....X..................................................X.....X",
"X+....X   ....XXXXXXX......................XXXXXXX....   X.....X",
"X+....X   ....X.....X......................X.....X....   X.....X",
"X+....X   ....X.+++.X......................X.+++.X....   X.....X",
"X+....X   ....X.+X+.X......................X.+X+.X....   X.....X",
"X+....X   ....X.+++.X......................X.+++.X....   X.....X",
"X+....X   ....X.....X......................X.....X....   X.....X",
"X+....X   ....XXXXXXX......................XXXXXXX....   X.....X",
"X+....X   ............................................   X.....X",
"X+....X   ............................................   X.....X",
"X+....X   ...OOO................................OOO...   X.....X",
"X+....X   ...OOO................................OOO...   X.....X",
"X+....X   ...oooooooooooooooooooooooooooooooooooooo...   X.....X",
"X+....X   ...oooooooooooooooooooooooooooooooooooooo...   X.....X",
"X+....X   ............................................   X.....X",
"X+....X   ............................................   X.....X",
"X+....X..................................................X.....X",
"X+....X..................................................X.....X",
"X+....X..................................................X.....X",
"X+....X..................................................X.....X",
"X+....X..................................................X.....X",
"X+....X..................................................X.....X",
"X+....X..................................................X.....X",
"X+....X..................................................X.....X",
"X+....X..................................................X.....X",
"X+....X..................................................X.....X",
"X+....X..................................................X.....X",
"X+....X..................................................X.....X",
"X+....X..................................................X.....X",
"X+....X..................................................X.....X",
"X+....X..................................................X.....X",
"X+....X..................................................X.....X",
"XXXXXXXXXXXXXXXXXXXXXXXXXXXXXXXXXXXXXXXXXXXXXXXXXXXXXXXXXXXXXXXX"
};