/* XPM */
static char *result[] = {
/* columns rows colors chars-per-pixel */
"64 64 7 1 ",
"  c #251B10",
". c #302418",
"X c #3E2F20",
"o c #423324",
"O c #705336",
"+ c #A5825D",
"@ c #BB936C",
/* pixels */
"@@@@@@@@@@@@@@XXXX@@@@@@@@@@@@@@@@@@@@@@@@@@@@XXXX@@@@@@@@@@@@@@",
"@@@@@@@@@@@XXX@@@@XXX@@@@@@@@@@@@@@@@@@@@@@XXX@@@@XXX@@@@@@@@@@@",
"@@@@@@@@@XX@@@@XX@@@@XX@@@@@@@@@@@@@@@@@@XX@@@@XX@@@@XX@@@@@@@@@",
"@@@@@@@@X@@@XXXOOXXX@@@X@@@@@@@@@@@@@@@@X@@@XXXOOXXX@@@X@@@@@@@@",
"@@@@@@@X@@XX........XX@@X@@@@@@@@@@@@@@X@@XX........XX@@X@@@@@@@",
"@@@@@@X@@X+.++++++++.+X@@X@@@@@@@@@@@@X@@X+.++++++++.+X@@X@@@@@@",
"@@@@@X@@XOO.OOOOOOOO.OOX@@X@@@@@@@@@@X@@XOO.OOOOOOOO.OOX@@X@@@@@",
"@@@@X@@XOOO.OOOOOOOO.OOOX@@X@@@@@@@@X@@XOOO.OOOOOOOO.OOOX@@X@@@@",
"@@@X@@X..................X@@X@@@@@@X@@X..................X@@X@@@",
"@@X@@X+.++++++.++++++++.++X@@X@@@@X@@X+.++++++.++++++++.++X@@X@@",
"@@X@XOO.OOOOOO.OOOOOOOO.OOOX@X@@@@X@XOO.OOOOOO.OOOOOOOO.OOOX@X@@",
"@X@@XOO.OOOOOO.OOOOOOOO.OOOX@@X@@X@@XOO.OOOOOO.OOOOOOOO.OOOX@@X@",
"@X@X........................X@X@@X@X........................X@X@",
"X@@X++++++.+++++++.+++++++.+X@@XX@@X++++++.+++++++.+++++++.+X@@X",
"@@X.OOOOOO.OOOOOOO.OOO  OO.OOX@@@@X.OOOOOO.OOOOOOO.OOOOOOO.OOX@@",
"@@X.OOOOOO.OOOOOOO.OO oo O.OOX@@@@X.OOOOOO.OOOOOOO.OOOOOOO.OOX@@",
"@X...            .... oo .....X@@X....                ........X@",
"@X+++ oooooooooo +++ oooo .+++X@@X+++. oooooooooooooo ++++.+++X@",
"XXOOO oooooooooo OOO oooo .OOOXXXXOOO. oooooooooooooo OOOO.OOOXX",
"@@XOO oooooooooo OOO oooo .OOX@@@@XOO. oooooooooooooo OOOO.OOX@@",
"@@X.. oooooooooo ... oooo ...X@@@@X... oooooooooooooo .......X@@",
"@@X+. oooooooooo +++ oooo +.+X@@@@X+.+ oooooooooooooo +++ +.+X@@",
"XXOO. oooooooooo OOO. oo OO.OOXXXXOO.O oooooooooooooo OO o .OOXX",
"@XOO. oooooooooo OOO. oo OO.OOX@@XOO.O oooooooooooooo O ooo OOX@",
"@X... oooooooooo .....  ......X@@X.... oooooooooooooo . ooo ..X@",
"@X+++ oooooooooo ++++++.++++++X@@X++++ oooooooooooooo + ooo ++X@",
"@XOOO oooooooooo OOOOOO.OOOOOOX@@XOOOO oooooooooooooo O ooo OOX@",
"@XOOO oooooooooo OOOOOO.OOOOOOX@@XOOOO oooooooooooooo O ooo OOX@",
"@X... oooooooooo .............X@@X.... oooooooooooooo . ooo ..X@",
"@X+.+ oooooooooo +.+++++++.+++X@@X+.++ oooooooooooooo ++ o +++X@",
"@XO.O oooooooooo O.OOOOOOO.OOOX@@XO.OO oooooooooooooo OOO .OOOX@",
"@XO.O oooooooooo O.OOOOOOO.OOOX@@XO.OO oooooooooooooo OOOO.OOOX@",
"@X... oooooooooo ....    .....X@@X.... oooooooooooooo ........X@",
"@X+++ oooooooooo +++ oooo .+++X@@X+++. oooooooooooooo ++++.+++X@",
"@XOOO            OO oooooo OOOX@@XOOO. oooooooooooooo OOOO.OOOX@",
"@XOOO.OOOO.OOOOOOOOO oooo .OOOX@@XOOO. oooooooooooooo OOOO.OOOX@",
"@X...................    .....X@@X.... oooooooooooooo ........X@",
"@X++.+++  +.++++++++.++++++.++X@@X++.+ oooooooooooooo +++++.++X@",
"@XOO.OO oo .OOOOOOOO.OOOOOO.OOX@@XOO.O oooooooooooooo OOOOO.OOX@",
"@XOO.O oooo OOOOOOOO.OOOOOO.OOX@@XOO.O oooooooooooooo OOOOO.OOX@",
"@X.... oooo ...           ....X@@X.... oooooooooooooo ........X@",
"@X++++ oooo ++. ooooooooo ++++X@@X++++ oooooooooooooo +.++++++X@",
"@XOOOO oooo OO. ooooooooo OOOOX@@XOOOO oooooooooooooo O.OOOOOOX@",
"@XOOOO oooo OO. ooooooooo OOOOX@@XOOOO oooooooooooooo O.OOOOOOX@",
"@X..... oo .... ooooooooo ....X@@X....                ........X@",
"@X+.++++  .++++ ooooooooo .+++X@@X+.++++++.+++++++.+++++++.+++X@",
"@XO.OOOOOO.OOOO ooooooooo .OOOX@@XO.OOOOOO.OOOOOOO.OOOOOOO.OOOX@",
"@XO.OOOOOO.OOOO ooooooooo .OOOX@@XO.OOOOOO.OOOOOOO.OOOOOOO.OOOX@",
"@X............. ooooooooo ....X@@X......   .......        ....X@",
"@X+++.       ++ ooooooooo .+++X@@X+++.+ ooo ++++++ oooooo .+++X@",
"@XOOO. ooooo OO ooooooooo .OOOX@@XOOO. ooooo OOOOO oooooo .OOOX@",
"@XOOO. ooooo OO ooooooooo .OOOX@@XOOO ooooooo OOOO oooooo .OOOX@",
"@X.... ooooo .. ooooooooo ....X@@X... ooooooo .... oooooo ....X@",
"@X++.+ ooooo ++           +.++X@@X++. ooooooo ++++ oooooo +.++X@",
"@XOO.O ooooo OOOOOOO.OOOOOO.OOX@@XOO.O ooooo OOOOO oooooo O.OOX@",
"@XOO.O ooooo OOOOOOO.OOOOOO.OOX@@XOO.OO ooo OOOOOO oooooo O.OOX@",
"@X.... ooooo .................X@@X......   ....... oooooo ....X@",
"@X++++ ooooo +.++++++++.++++++X@@X+++++.++++++.+++ oooooo ++++X@",
"@XOOOO       O.OOOOOOOO.OOOOOOX@@XOOOOO.OOOOOO.OOO oooooo OOOOX@",
"@XOOOOO.OOOOOO.OOOOOOOO.OOOOOOX@@XOOOOO.OOOOOO.OOO oooooo OOOOX@",
"@X............................X@@X................        ....X@",
"@X+.++++++.+++++++.+++++++.+++X@@X+.++++++.+++++++.+++++++.+++X@",
"@XO.OOOOOO.OOOOOOO.OOOOOOO.OOOX@@XO.OOOOOO.OOOOOOO.OOOOOOO.OOOX@",
"@XO.OOOOOO.OOOOOOO.OOOOOOO.OOOX@@XO.OOOOOO.OOOOOOO.OOOOOOO.OOOX@"
};
