/* XPM */
static char *result[] = {
/* columns rows colors chars-per-pixel */
"64 64 34 1 ",
"  c #381D11",
". c #302418",
"X c #193C3E",
"o c #3E2F20",
"O c #4E0D17",
"+ c #472C1E",
"@ c #543824",
"# c #67442E",
"$ c #705336",
"% c #68386C",
"& c #265C42",
"* c #8D1417",
"= c #CE2D2D",
"- c #935C20",
"; c #FF7700",
": c #C4676A",
"> c #D67C7F",
", c #3E8948",
"< c #63C74D",
"1 c #D1842E",
"2 c #FF9030",
"3 c #A5825D",
"4 c #BB936C",
"5 c #C28569",
"6 c #93459A",
"7 c #6C848E",
"8 c #2CCFF5",
"9 c #A8B6BD",
"0 c #E8B796",
"q c #82C6CC",
"w c #98F2FE",
"e c #DAD9C3",
"r c #F3FFD8",
"t c #D7FFF9",
/* pixels */
"44444444444444oooo4444444444444444444444444444oooo44444444444444",
"44444444444ooo4444ooo4444444444444444444444ooo4444ooo44444444444",
"444444444oo4444oo4444oo444444444444444444oo4444oo4444oo444444444",
"44444444o444ooo$$ooo444o4444444444444444o444ooo$$ooo444o44444444",
"4444444o44oo........oo44o44444444444444o44oo........oo44o4444444",
"444444o44o3.33333333.3o44o444444444444o44o3.33333333.3o44o444444",
"44444o44o$$.$$$$$$$$.$$o44o4444444444o44o$$.$$$$$$$$.$$o44o44444",
"4444o44o$$$.$$$$$$$$.$$$o44o44444444o44o$$$.$$$$$$$$.$$$o44o4444",
"444o44o..................o44o444444o44o..................o44o444",
"44o44o3.333333.33333333.33o44o4444o44o3.333333.33333333.33o44o44",
"44o4o$$.$$$$$$.$$$$$$$$.$$$o4o4444o4o$$.$$$$$$.$$$$$$$$.$$$o4o44",
"4o44o$$.$$$$$$.$$$$$$$$.$$$o44o44o44o$$.$$$$$$.$$$$$$$$.$$$o44o4",
"4o4o........................o4o44o4o........................o4o4",
"o44o333333.3333333.3333333.3o44oo44o333333.3333333.3333333.3o44o",
"44o.$$$$$$.$$$$$$$.$$$$$$$.$$o4444o.$$$$$$.$$$$$$$.$$$$$$$.$$o44",
"44o.$$$$$$.$$$$$$$.$$$$$$$.$$o4444o.$$$$$$.$$$$$$$.$$$$$$$.$$o44",
"4o............................o44o............................o4",
"4o333.3333.3333333333.3333.333o44o333.3333.3333333333.3333.333o4",
"oo$$$.$$$$.$$$$$$$$$$.$$$$.$$$oooo$$$.$$$$.$$$$$$$$$$.$$$$.$$$oo",
"44o$$.$$$$.$$$$$$$$$$.$$$$.$$o4444o$$.$$$$.$$$$$$$$$$.$$$$.$$o44",
"44o..........................o4444o..........................o44",
"44o3.333333.33333333.333333.3o4444o3.333333.33333333.333333.3o44",
"oo$$.$$$$$$.$$$$$$$$.$$$$$$.$$oooo$$.$$$$$$.$$$$$$$$.$$$$$$.$$oo",
"4o$$.$$$$$$.$$$$$$$$.$$$$$$.$$o44o$$.$$$$$$.$$$$$$$$.$$$$$$.$$o4",
"4o............................o44o............................o4",
"4o33333.333333.33333333.333333o44o33333.333333.33333333.333333o4",
"4o$$$$$.$$$$$$.$$$$$$$$.$$$$$$o44o$$$$$.$$$$$$.$$$$$$$$.$$$$$$o4",
"4o$$                        $$o44o$$$$$.$$$$$$.$$$$$$$$.$$$$$$o4",
"4o.. # ################## # ..o44o............................o4",
"4o3. # ################## # 33o44o3.333333.3333333.3333333.333o4",
"4o$. #                    # $$o44o$.$$$$$$.$$$$$$$.$$$$$$$.$$$o4",
"4o$. # @@2;@@@@@@@@@@@@@+ # $$o44o$.$$$$$$.$$$$$$$.$$$$$$$.$$$o4",
"4o.. # 6%2;@@@@@@@@@@@+++ # ..o44o............................o4",
"4o33 # 6%2;@@@@@@@+++++++ # 33o44o333.3333.3333333333.3333.333o4",
"4o$$ # 6%2;++++++++++++++ # $$o44o$$$.$$$$.$$$$$$$$$$.$$$$.$$$o4",
"4o$$ # 6%2;++++++++++++++ # $$o44o$$$.$$$$.$$$$$$$$$$.$$$$.$$$o4",
"4o.. #                    # ..o44o............................o4",
"4o33 # ################## # 33o44o33.333333.33333333.333333.33o4",
"4o$$ #                    # $$o44o$$.$$$$$$.$$$$$$$$.$$$$$$.$$o4",
"4o$$ # @@@@@@@@@@@@=*@@q8 # $$o44o$$.$$$$$$.$$$$$$$$.$$$$$$.$$o4",
"4o.. # @@@@@@@@@@@@=*<&q8 # ..o44o............................o4",
"4o33 # @@@@@@@@@@@@=*<&tw # 33o44o33333.333333.33333333.333333o4",
"4o$$ # @@@@@@@@@@@+=*,Xtw # $$o44o$$$$$.$$$$$$.$$$$$$$$.$$$$$$o4",
"4o$$ # @@@@@@@@++++=*<&q8 # $$o44o$$$$$.$$$$$$.$$$$$$$$.$$$$$$o4",
"4o.. # ++++++++++++=*<&q8 # ..o44o............................o4",
"4o3. #                    # 33o44o3.333333.3333333.3333333.333o4",
"4o$. # ################## # $$o44o$.$$$$$$.$$$$$$$.$$$$$$$.$$$o4",
"4o$. #                    # $$o44o$.$$$$$$.$$$$$$$.$$$$$$$.$$$o4",
"4o.. # @@*O@@@@@@@@@@@@97 # ..o44o............................o4",
"4o33 # 1-*O@@@@@@@@@@re97 # 33o44o333.3333.3333333333.3333.333o4",
"4o$$ # 1-*O@@@@@@@@++re97 # $$o44o$$$.$$$$.$$$$$$$$$$.$$$$.$$$o4",
"4o$$ # 1-*O@@++++++++re97 # $$o44o$$$.$$$$.$$$$$$$$$$.$$$$.$$$o4",
"4o.. # 1-*O++++++++++re97 # ..o44o............................o4",
"4o33 #                    # 33o44o33.333333.33333333.333333.33o4",
"4o$$ # ################## # $$o44o$$.$$$$$$.$$$$$$$$.$$$$$$.$$o4",
"4o$$ #                    # $$o44o$$.$$$$$$.$$$$$$$$.$$$$$$.$$o4",
"4o.. # @@@@@@@@@@@@@@@@05 # ..o44o............................o4",
"4o33 # @@@@@@@@@@@@@@++05 # 33o44o33333.333333.33333333.333333o4",
"4o$$ # @@@@@@@@@@@+++>:05 # $$o44o$$$$$.$$$$$$.$$$$$$$$.$$$$$$o4",
"4o$$ # @@@@@@++++++++>:05 # $$o44o$$$$$.$$$$$$.$$$$$$$$.$$$$$$o4",
"4o.. # ++++++++++++++>:05 # ..o44o............................o4",
"4o3. #                    # 33o44o3.333333.3333333.3333333.333o4",
"4o$. #@@@@@@@@@@@@@@@@@@@@# $$o44o$.$$$$$$.$$$$$$$.$$$$$$$.$$$o4",
"4o$.                        $$o44o$.$$$$$$.$$$$$$$.$$$$$$$.$$$o4"
};
