/* XPM */
static char *_495f0b7f4b74e91fdc4e6408b0bb68b3HgE1qc8YQnEsfQL[] = {
/* columns rows colors chars-per-pixel */
"64 64 20 1 ",
"  c #0E0E0E",
". c gray10",
"X c #302418",
"o c gray18",
"O c #3E2F20",
"+ c #705336",
"@ c #FF7700",
"# c #9C8122",
"$ c #B59724",
"% c #BB9830",
"& c #CCA82F",
"* c #DFB93D",
"= c #FFBA2C",
"- c #F6CF2A",
"; c #F9D12B",
": c #FBD32D",
"> c #A5825D",
", c #BB936C",
"< c #D4AE43",
"1 c #F3FFD8",
/* pixels */
",,,,,,,,,,,,,,OOOO,,,,,,,,,,,,,,,,,,,,,,,,,,,,OOOO,,,,,,,,,,,,,,",
",,,,,,,,,,,OOO,,,,OOO,,,,,,,,,,,,,,,,,,,,,,OOO,,,,OOO,,,,,,,,,,,",
",,,,,,,,,OO,,,,OO,,,,OO,,,,,,,,,,,,,,,,,,OO,,,,OO,,,,OO,,,,,,,,,",
",,,,,,,,O,,,OOO++OOO,,,O,,,,,,,,,,,,,,,,O,,,OOO++OOO,,,O,,,,,,,,",
",,,,,,,O,,OOXXXXXXXXOO,,O,,,,,,,,,,,,,,O,,OOXXXXXXXXOO,,O,,,,,,,",
",,,,,,O,,O>X>>>>>>>>X>O,,O,,,,,,,,,,,,O,,O>X>>>>>>>>X>O,,O,,,,,,",
",,,,,O,,O++X++++++++X++O,,O,,,,,,,,,,O,,O++X++++++++X++O,,O,,,,,",
",,,,O,,O+++X++++++++X+++O,,O,,,,,,,,O,,O+++X++++++++X+++O,,O,,,,",
",,,O,,OXXXXXXXXXXXXXXXXXXO,,O,,,,,,O,,OXXXXXXXXXXXXXXXXXXO,,O,,,",
",,O,,O>X>>>>>>X>>>>>>>>X>>O,,O,,,,O,,O>X>>>>>>X>>>>>>>>X>>O,,O,,",
",,O,O++X++++++X++++++++X+++O,O,,,,O,O++X++++++X++++++++X+++O,O,,",
",O,,O++X++++++X++++++++X+++O,,O,,O,,O++X++++++X++++++++X+++O,,O,",
",O,OXXXXXXXXXXXXXXXXXXXXXXXXO,O,,O,OXXXXXXXXXXXXXXXXXXXXXXXXO,O,",
"O,,O>>>>>>X>>>>>>>X>>>>>>>X>O,,OO,,O>>>>>>X>>>>>>>X>>>>>>>X>O,,O",
",,OX++++++X++++%%%X+++++++X++O,,,,OX++++++X+++++++X+++++++X++O,,",
",,OX++++++X+++%&&&#+++++++X++O,,,,OX++++++X+++++++X+++++++X++O,,",
",OXXXXXXXXXXX#$---$#XXXXXXXXXXO,,OXXXXXXXXXXXXXXXXXXXXXXXXXXXXO,",
",O>>>X>>>>X>><*:=:*<>X>>>>X>>>O,,O>>>X>>>>X>>>>>>>>>>X>>>>X>>>O,",
"OO+++X++++X++%&;@;&%+X++++X+++OOOO+++X++++X++++++++++X++++X+++OO",
",,O++X++++X+++%&1&%++X++++X++O,,,,O++X++++X++++++++++X++++X++O,,",
",,OXXXXXXXXXXXX#1#XXXXXXXXXXXO,,,,OXXXXXXXXXXXXXXXXXXXXXXXXXXO,,",
",,O>X>>>>>>X>>>>1>>>X>>>>>>X>O,,,,O>X>>>>>>X>>>>>>>>X>>>>>>X>O,,",
"OO++X++++++X++++1+++X++++++X++OOOO++X++++++X++++++++X++++++X++OO",
",O++X++++++X++.....+X++++++X++O,,O++X++++++X++++++++X++++++X++O,",
",OXXXXXXXXXXXXX...XXXXXXXXXXXXO,,OXXXXXXXXXXXXXXXXXXXXXXXXXXXXO,",
",O>>>>>X>>>>>>X>.>>>>>>X>>>>>>O,,O>>>>>X>>>>>>X>>>>>>>>X>>>>>>O,",
",O+++++X++++++Xo.o+++++X++++++O,,O+++++X++++++X++++++++X++++++O,",
",O+++++X++++++oo.oo++++X++++++O,,O+++++X++++++X++++++++X++++++O,",
",OXXXXXXXXXXXXoo ooXXXXXXXXXXXO,,OXXXXXXXXXXXXXXXXXXXXXXXXXXXXO,",
",O>X>>>>>>X>>>ooooo>>>>>>>X>>>O,,O>X>>>>>>X>>>>>>>X>>>>>>>X>>>O,",
",O+X++++++X++++oooX+++++++X+++O,,O+X++++++X+++++++X+++++++X+++O,",
",O+X++++++X+++++++X+++++++X+++O,,O+X++++++X+++++++X+++++++X+++O,",
",OXXXXXXXXXXXXXXXXXXXXXXXXXXXXO,,OXXXXXXXXXXXXXXXXXXXXXXXXXXXXO,",
",O>>>X>>>>X>>>>>>>>>>X>>>>X>>>O,,O>>>X>>>>X>>>>>>>>>>X>>>>X>>>O,",
",O+++X++++X++++++++++X++++X+++O,,O+++X++++X++++++++++X++++X+++O,",
",O+++X++++X++++++++++X++++X+++O,,O+++X++++X++++++++++X++++X+++O,",
",OXXXXXXXXXXXXXXXXXXXXXXXXXXXXO,,OXXXXXXXXXXXXXXXXXXXXXXXXXXXXO,",
",O>>X>>>>>>X>>>>>>>>X>>>>>>X>>O,,O>>X>>>>>>X>>>>>>>>X>>>>>>X>>O,",
",O++X++++++X++++++++X++++++X++O,,O++X++++++X++++++++X++++++X++O,",
",O++X++++++X++++++++X++++++X++O,,O++X++++++X++++++++X++++++X++O,",
",OXXXXXXXXXXXXXXXXXXXXXXXXXXXXO,,OXXXXXXXXXXXXXXXXXXXXXXXXXXXXO,",
",O>>>>>X>>>>>>X>>>>>>>>X>>>>>>O,,O>>>>>X>>>>>>X>>>>>>>>X>>>>>>O,",
",O+++++X++++++X++++++++X++++++O,,O+++++X++++++X++++++++X++++++O,",
",O+++++X++++++X++++++++X++++++O,,O+++++X++++++X++++++++X++++++O,",
",OXXXXXXXXXXXXXXXXXXXXXXXXXXXXO,,OXXXXXXXXXXXXXXXXXXXXXXXXXXXXO,",
",O>X>>>>>>X>>>>>>>X>>>>>>>X>>>O,,O>X>>>>>>X>>>>>>>X>>>>>>>X>>>O,",
",O+X++++++X+++++++X+++++++X+++O,,O+X++++++X+++++++X+++++++X+++O,",
",O+X++++++X+++++++X+++++++X+++O,,O+X++++++X+++++++X+++++++X+++O,",
",OXXXXXXXXXXXXXXXXXXXXXXXXXXXXO,,OXXXXXXXXXXXXXXXXXXXXXXXXXXXXO,",
",O>>>X>>>>X>>>>>>>>>>X>>>>X>>>O,,O>>>X>>>>X>>>>>>>>>>X>>>>X>>>O,",
",O+++X++++X++++++++++X++++X+++O,,O+++X++++X++++++++++X++++X+++O,",
",O+++X++++X++++++++++X++++X+++O,,O+++X++++X++++++++++X++++X+++O,",
",OXXXXXXXXXXXXXXXXXXXXXXXXXXXXO,,OXXXXXXXXXXXXXXXXXXXXXXXXXXXXO,",
",O>>X>>>>>>X>>>>>>>>X>>>>>>X>>O,,O>>X>>>>>>X>>>>>>>>X>>>>>>X>>O,",
",O++X++++++X++++++++X++++++X++O,,O++X++++++X++++++++X++++++X++O,",
",O++X++++++X++++++++X++++++X++O,,O++X++++++X++++++++X++++++X++O,",
",OXXXXXXXXXXXXXXXXXXXXXXXXXXXXO,,OXXXXXXXXXXXXXXXXXXXXXXXXXXXXO,",
",O>>>>>X>>>>>>X>>>>>>>>X>>>>>>O,,O>>>>>X>>>>>>X>>>>>>>>X>>>>>>O,",
",O+++++X++++++X++++++++X++++++O,,O+++++X++++++X++++++++X++++++O,",
",O+++++X++++++X++++++++X++++++O,,O+++++X++++++X++++++++X++++++O,",
",OXXXXXXXXXXXXXXXXXXXXXXXXXXXXO,,OXXXXXXXXXXXXXXXXXXXXXXXXXXXXO,",
",O>X>>>>>>X>>>>>>>X>>>>>>>X>>>O,,O>X>>>>>>X>>>>>>>X>>>>>>>X>>>O,",
",O+X++++++X+++++++X+++++++X+++O,,O+X++++++X+++++++X+++++++X+++O,",
",O+X++++++X+++++++X+++++++X+++O,,O+X++++++X+++++++X+++++++X+++O,"
};
