/* XPM */
static char * diamond_xpm[] = {
"64 64 9 1",
" 	c #4BEDE6",
".	c #3DE0E5",
"+	c #15C2C6",
"@	c #D5FFF6",
"#	c #FFFFFF",
"$	c #9EFEEB",
"%	c #65F5E3",
"&	c #70FBF0",
"*	c #0EBABD",
"                ........            ................        ++++",
"                ........            ................        ++++",
"                ........            ................        ++++",
"                ........            ................        ++++",
"    @@@@########$$$$$$$$@@@@@@@@@@@@$$$$$$$$%%%%%%%%@@@@@@@@++++",
"    @@@@########$$$$$$$$@@@@@@@@@@@@$$$$$$$$%%%%%%%%@@@@@@@@++++",
"    @@@@########$$$$$$$$@@@@@@@@@@@@$$$$$$$$%%%%%%%%@@@@@@@@++++",
"    @@@@########$$$$$$$$@@@@@@@@@@@@$$$$$$$$%%%%%%%%@@@@@@@@++++",
"    ####%%%%%%%%&&&&@@@@$$$$$$$$%%%%    ........    &&&&@@@@++++",
"    ####%%%%%%%%&&&&@@@@$$$$$$$$%%%%    ........    &&&&@@@@++++",
"    ####%%%%%%%%&&&&@@@@$$$$$$$$%%%%    ........    &&&&@@@@++++",
"    ####%%%%%%%%&&&&@@@@$$$$$$$$%%%%    ........    &&&&@@@@++++",
"    ####%%%%&&&&@@@@$$$$$$$$&&&&%%%%            &&&&&&&&$$$$++++",
"    ####%%%%&&&&@@@@$$$$$$$$&&&&%%%%            &&&&&&&&$$$$++++",
"    ####%%%%&&&&@@@@$$$$$$$$&&&&%%%%            &&&&&&&&$$$$++++",
"    ####%%%%&&&&@@@@$$$$$$$$&&&&%%%%            &&&&&&&&$$$$++++",
"....$$$$&&&&$$$$$$$$$$$$&&&&%%%%        %%%%&&&&&&&&%%%%$$$$++++",
"....$$$$&&&&$$$$$$$$$$$$&&&&%%%%        %%%%&&&&&&&&%%%%$$$$++++",
"....$$$$&&&&$$$$$$$$$$$$&&&&%%%%        %%%%&&&&&&&&%%%%$$$$++++",
"....$$$$&&&&$$$$$$$$$$$$&&&&%%%%        %%%%&&&&&&&&%%%%$$$$++++",
"....$$$$$$$$$$$$$$$$&&&&%%%%        %%%%$$$$$$$$%%%%    ....****",
"....$$$$$$$$$$$$$$$$&&&&%%%%        %%%%$$$$$$$$%%%%    ....****",
"....$$$$$$$$$$$$$$$$&&&&%%%%        %%%%$$$$$$$$%%%%    ....****",
"....$$$$$$$$$$$$$$$$&&&&%%%%        %%%%$$$$$$$$%%%%    ....****",
"    @@@@$$$$$$$$&&&&&&&&&&&&%%%%%%%%$$$$$$$$%%%%    ........****",
"    @@@@$$$$$$$$&&&&&&&&&&&&%%%%%%%%$$$$$$$$%%%%    ........****",
"    @@@@$$$$$$$$&&&&&&&&&&&&%%%%%%%%$$$$$$$$%%%%    ........****",
"    @@@@$$$$$$$$&&&&&&&&&&&&%%%%%%%%$$$$$$$$%%%%    ........****",
"    @@@@$$$$&&&&&&&&&&&&%%%%%%%%&&&&&&&&%%%%        ....    ****",
"    @@@@$$$$&&&&&&&&&&&&%%%%%%%%&&&&&&&&%%%%        ....    ****",
"    @@@@$$$$&&&&&&&&&&&&%%%%%%%%&&&&&&&&%%%%        ....    ****",
"    @@@@$$$$&&&&&&&&&&&&%%%%%%%%&&&&&&&&%%%%        ....    ****",
"....$$$$&&&&&&&&&&&&%%%%%%%%&&&&&&&&%%%%%%%%            %%%%++++",
"....$$$$&&&&&&&&&&&&%%%%%%%%&&&&&&&&%%%%%%%%            %%%%++++",
"....$$$$&&&&&&&&&&&&%%%%%%%%&&&&&&&&%%%%%%%%            %%%%++++",
"....$$$$&&&&&&&&&&&&%%%%%%%%&&&&&&&&%%%%%%%%            %%%%++++",
"....$$$$&&&&&&&&%%%%%%%%&&&&&&&&%%%%%%%%%%%%%%%%    &&&&%%%%++++",
"....$$$$&&&&&&&&%%%%%%%%&&&&&&&&%%%%%%%%%%%%%%%%    &&&&%%%%++++",
"....$$$$&&&&&&&&%%%%%%%%&&&&&&&&%%%%%%%%%%%%%%%%    &&&&%%%%++++",
"....$$$$&&&&&&&&%%%%%%%%&&&&&&&&%%%%%%%%%%%%%%%%    &&&&%%%%++++",
"....%%%%&&&&%%%%%%%%$$$$$$$$%%%%%%%%%%%%%%%%%%%%$$$$&&&&    ****",
"....%%%%&&&&%%%%%%%%$$$$$$$$%%%%%%%%%%%%%%%%%%%%$$$$&&&&    ****",
"....%%%%&&&&%%%%%%%%$$$$$$$$%%%%%%%%%%%%%%%%%%%%$$$$&&&&    ****",
"....%%%%&&&&%%%%%%%%$$$$$$$$%%%%%%%%%%%%%%%%%%%%$$$$&&&&    ****",
"....    %%%%%%%%$$$$$$$$%%%%        %%%%    $$$$$$$$%%%%    ****",
"....    %%%%%%%%$$$$$$$$%%%%        %%%%    $$$$$$$$%%%%    ****",
"....    %%%%%%%%$$$$$$$$%%%%        %%%%    $$$$$$$$%%%%    ****",
"....    %%%%%%%%$$$$$$$$%%%%        %%%%    $$$$$$$$%%%%    ****",
"....    %%%%$$$$$$$$%%%%    ........    &&&&&&&&%%%%    %%%%++++",
"....    %%%%$$$$$$$$%%%%    ........    &&&&&&&&%%%%    %%%%++++",
"....    %%%%$$$$$$$$%%%%    ........    &&&&&&&&%%%%    %%%%++++",
"....    %%%%$$$$$$$$%%%%    ........    &&&&&&&&%%%%    %%%%++++",
"........&&&&&&&&%%%%    ........    %%%%%%%%%%%%        &&&&++++",
"........&&&&&&&&%%%%    ........    %%%%%%%%%%%%        &&&&++++",
"........&&&&&&&&%%%%    ........    %%%%%%%%%%%%        &&&&++++",
"........&&&&&&&&%%%%    ........    %%%%%%%%%%%%        &&&&++++",
"....    ....        ........    %%%%%%%%        %%%%&&&&$$$$****",
"....    ....        ........    %%%%%%%%        %%%%&&&&$$$$****",
"....    ....        ........    %%%%%%%%        %%%%&&&&$$$$****",
"....    ....        ........    %%%%%%%%        %%%%&&&&$$$$****",
"++++++++****++++++++************++++++++********++++++++********",
"++++++++****++++++++************++++++++********++++++++********",
"++++++++****++++++++************++++++++********++++++++********",
"++++++++****++++++++************++++++++********++++++++********"};
