/* XPM */
static char * end_portal_closed_xpm[] = {
"64 64 86 1",
" 	c #427367",
".	c #407166",
"+	c #407266",
"@	c #417267",
"#	c #9BC894",
"$	c #24423A",
"%	c #22413A",
"&	c #204039",
"*	c #99C693",
"=	c #B8B17A",
"-	c #2B544C",
";	c #C1C286",
">	c #22423A",
",	c #224039",
"'	c #9AC793",
")	c #3E7166",
"!	c #BEC186",
"~	c #B5AE78",
"{	c #417367",
"]	c #2D564D",
"^	c #C0C186",
"/	c #E7E8AD",
"(	c #437367",
"_	c #3F7166",
":	c #B3AD77",
"<	c #2F584D",
"[	c #417266",
"}	c #ECF1B8",
"|	c #E6E7AD",
"1	c #B7B079",
"2	c #427467",
"3	c #2F584E",
"4	c #2D574D",
"5	c #B5AF78",
"6	c #E5E7AC",
"7	c #EDF2B9",
"8	c #B6B079",
"9	c #2F574D",
"0	c #B3AD78",
"a	c #437468",
"b	c #2F594E",
"c	c #2F594F",
"d	c #24433B",
"e	c #2D564C",
"f	c #E3E6AC",
"g	c #B6AF79",
"h	c #203F39",
"i	c #BEC086",
"j	c #EFF3BA",
"k	c #24443B",
"l	c #03120E",
"m	c #02100C",
"n	c #3F7165",
"o	c #C1C387",
"p	c #BFC186",
"q	c #30594F",
"r	c #051813",
"s	c #2C554C",
"t	c #ECF2B9",
"u	c #C0C286",
"v	c #061914",
"w	c #051712",
"x	c #EFF4BA",
"y	c #041611",
"z	c #C2C388",
"A	c #B4AE78",
"B	c #E6E7AC",
"C	c #2E574D",
"D	c #2A544B",
"E	c #E4E6AD",
"F	c #2C564D",
"G	c #E3E5AC",
"H	c #EEF3BA",
"I	c #B8B079",
"J	c #B8B179",
"K	c #2B554C",
"L	c #E5E7AD",
"M	c #C3C488",
"N	c #437467",
"O	c #C2C387",
"P	c #593D29",
"Q	c #966C4A",
"R	c #79553A",
"S	c #6C6C6C",
"T	c #878787",
"U	c #B9855C",
" .   .+  +.   .@ .   .+  +.   .@ .   .+  +.   .@ .   .+  +.   .@",
".#$%&*=%-;#>%,' .#$%&*=%-;#>%,' .#$%&*=%-;#>%,' .#$%&*=%-;#>%,' ",
" $)!~{]^/(_:^@<[ $)!~{]^/(_:^@<[ $)!~{]^/(_:^@<[ $)!~{]^/(_:^@<[",
" %:}|1 23456789[ %:}|1 23456789[ %:}|1 23456789[ %:}|1 23456789[",
" %06abcdbddefg9[ %06abcdbddefg9[ %06abcdbddefg9[ %06abcdbddefg9[",
" hijklllllmn7o][ hijklllllmn7o][ hijklllllmn7o][ hijklllllmn7o][",
".*pjqlrrrrrstu# .*pjqlrrrrrstu# .*pjqlrrrrrstu# .*pjqlrrrrrstu# ",
" 4pjqlrvvvwn7o3[ 4pjqlrvvvwn7o3[ 4pjqlrvvvwn7o3[ 4pjqlrvvvwn7o3[",
" &!jdlrvvvwn7o][ &!jdlrvvvwn7o][ &!jdlrvvvwn7o][ &!jdlrvvvwn7o][",
".*pjqlrvvvwn7u# .*pjqlrvvvwn7u# .*pjqlrvvvwn7u# .*pjqlrvvvwn7u# ",
" 4pxdmrwwwy_7z3[ 4pxdmrwwwy_7z3[ 4pxdmrwwwy_7z3[ 4pxdmrwwwy_7z3[",
" %ABe+C[  +Df89[ %ABe+C[  +Df89[ %ABe+C[  +Df89[ %ABe+C[  +Df89[",
" %~7E1 F]]~GHI9[ %~7E1 F]]~GHI9[ %~7E1 F]]~GHI9[ %~7E1 F]]~GHI9[",
" ,+oJ[KLM+_gMNe[ ,+oJ[KLM+_gMNe[ ,+oJ[KLM+_gMNe[ ,+oJ[KLM+_gMNe[",
".'<9e*O3]5#39e' .'<9e*O3]5#39e' .'<9e*O3]5#39e' .'<9e*O3]5#39e' ",
"@ [[[  [[  [[[  @ [[[  [[  [[[  @ [[[  [[  [[[  @ [[[  [[  [[[  ",
" .   .+  +.   .@PPPPQQQQRRRRRRRRQQQQPPPPRRRRSSSS .   .+  +.   .@",
".#$%&*=%-;#>%,' PPPPQQQQRRRRRRRRQQQQPPPPRRRRSSSS.#$%&*=%-;#>%,' ",
" $)!~{]^/(_:^@<[PPPPQQQQRRRRRRRRQQQQPPPPRRRRSSSS $)!~{]^/(_:^@<[",
" %:}|1 23456789[PPPPQQQQRRRRRRRRQQQQPPPPRRRRSSSS %:}|1 23456789[",
" %06abcdbddefg9[RRRRQQQQPPPPPPPPPPPPRRRRRRRRPPPP %06abcdbddefg9[",
" hijklllllmn7o][RRRRQQQQPPPPPPPPPPPPRRRRRRRRPPPP hijklllllmn7o][",
".*pjqlrrrrrstu# RRRRQQQQPPPPPPPPPPPPRRRRRRRRPPPP.*pjqlrrrrrstu# ",
" 4pjqlrvvvwn7o3[RRRRQQQQPPPPPPPPPPPPRRRRRRRRPPPP 4pjqlrvvvwn7o3[",
" &!jdlrvvvwn7o][TTTTRRRRRRRRUUUUUUUURRRRUUUUUUUU &!jdlrvvvwn7o][",
".*pjqlrvvvwn7u# TTTTRRRRRRRRUUUUUUUURRRRUUUUUUUU.*pjqlrvvvwn7u# ",
" 4pxdmrwwwy_7z3[TTTTRRRRRRRRUUUUUUUURRRRUUUUUUUU 4pxdmrwwwy_7z3[",
" %ABe+C[  +Df89[TTTTRRRRRRRRUUUUUUUURRRRUUUUUUUU %ABe+C[  +Df89[",
" %~7E1 F]]~GHI9[QQQQQQQQRRRRRRRRQQQQPPPPQQQQQQQQ %~7E1 F]]~GHI9[",
" ,+oJ[KLM+_gMNe[QQQQQQQQRRRRRRRRQQQQPPPPQQQQQQQQ ,+oJ[KLM+_gMNe[",
".'<9e*O3]5#39e' QQQQQQQQRRRRRRRRQQQQPPPPQQQQQQQQ.'<9e*O3]5#39e' ",
"@ [[[  [[  [[[  QQQQQQQQRRRRRRRRQQQQPPPPQQQQQQQQ@ [[[  [[  [[[  ",
" .   .+  +.   .@RRRRQQQQRRRRPPPPRRRRQQQQQQQQRRRR .   .+  +.   .@",
".#$%&*=%-;#>%,' RRRRQQQQRRRRPPPPRRRRQQQQQQQQRRRR.#$%&*=%-;#>%,' ",
" $)!~{]^/(_:^@<[RRRRQQQQRRRRPPPPRRRRQQQQQQQQRRRR $)!~{]^/(_:^@<[",
" %:}|1 23456789[RRRRQQQQRRRRPPPPRRRRQQQQQQQQRRRR %:}|1 23456789[",
" %06abcdbddefg9[RRRRPPPPPPPPRRRRRRRRRRRRRRRRRRRR %06abcdbddefg9[",
" hijklllllmn7o][RRRRPPPPPPPPRRRRRRRRRRRRRRRRRRRR hijklllllmn7o][",
".*pjqlrrrrrstu# RRRRPPPPPPPPRRRRRRRRRRRRRRRRRRRR.*pjqlrrrrrstu# ",
" 4pjqlrvvvwn7o3[RRRRPPPPPPPPRRRRRRRRRRRRRRRRRRRR 4pjqlrvvvwn7o3[",
" &!jdlrvvvwn7o][UUUURRRRUUUUQQQQPPPPUUUUUUUUPPPP &!jdlrvvvwn7o][",
".*pjqlrvvvwn7u# UUUURRRRUUUUQQQQPPPPUUUUUUUUPPPP.*pjqlrvvvwn7u# ",
" 4pxdmrwwwy_7z3[UUUURRRRUUUUQQQQPPPPUUUUUUUUPPPP 4pxdmrwwwy_7z3[",
" %ABe+C[  +Df89[UUUURRRRUUUUQQQQPPPPUUUUUUUUPPPP %ABe+C[  +Df89[",
" %~7E1 F]]~GHI9[QQQQUUUURRRRQQQQSSSSQQQQQQQQRRRR %~7E1 F]]~GHI9[",
" ,+oJ[KLM+_gMNe[QQQQUUUURRRRQQQQSSSSQQQQQQQQRRRR ,+oJ[KLM+_gMNe[",
".'<9e*O3]5#39e' QQQQUUUURRRRQQQQSSSSQQQQQQQQRRRR.'<9e*O3]5#39e' ",
"@ [[[  [[  [[[  QQQQUUUURRRRQQQQSSSSQQQQQQQQRRRR@ [[[  [[  [[[  ",
" .   .+  +.   .@ .   .+  +.   .@ .   .+  +.   .@ .   .+  +.   .@",
".#$%&*=%-;#>%,' .#$%&*=%-;#>%,' .#$%&*=%-;#>%,' .#$%&*=%-;#>%,' ",
" $)!~{]^/(_:^@<[ $)!~{]^/(_:^@<[ $)!~{]^/(_:^@<[ $)!~{]^/(_:^@<[",
" %:}|1 23456789[ %:}|1 23456789[ %:}|1 23456789[ %:}|1 23456789[",
" %06abcdbddefg9[ %06abcdbddefg9[ %06abcdbddefg9[ %06abcdbddefg9[",
" hijklllllmn7o][ hijklllllmn7o][ hijklllllmn7o][ hijklllllmn7o][",
".*pjqlrrrrrstu# .*pjqlrrrrrstu# .*pjqlrrrrrstu# .*pjqlrrrrrstu# ",
" 4pjqlrvvvwn7o3[ 4pjqlrvvvwn7o3[ 4pjqlrvvvwn7o3[ 4pjqlrvvvwn7o3[",
" &!jdlrvvvwn7o][ &!jdlrvvvwn7o][ &!jdlrvvvwn7o][ &!jdlrvvvwn7o][",
".*pjqlrvvvwn7u# .*pjqlrvvvwn7u# .*pjqlrvvvwn7u# .*pjqlrvvvwn7u# ",
" 4pxdmrwwwy_7z3[ 4pxdmrwwwy_7z3[ 4pxdmrwwwy_7z3[ 4pxdmrwwwy_7z3[",
" %ABe+C[  +Df89[ %ABe+C[  +Df89[ %ABe+C[  +Df89[ %ABe+C[  +Df89[",
" %~7E1 F]]~GHI9[ %~7E1 F]]~GHI9[ %~7E1 F]]~GHI9[ %~7E1 F]]~GHI9[",
" ,+oJ[KLM+_gMNe[ ,+oJ[KLM+_gMNe[ ,+oJ[KLM+_gMNe[ ,+oJ[KLM+_gMNe[",
".'<9e*O3]5#39e' .'<9e*O3]5#39e' .'<9e*O3]5#39e' .'<9e*O3]5#39e' ",
"@ [[[  [[  [[[  @ [[[  [[  [[[  @ [[[  [[  [[[  @ [[[  [[  [[[  "};
