/* XPM */
static char * end_portal_open_xpm[] = {
"64 64 120 2",
"  	c #427367",
". 	c #407166",
"+ 	c #407266",
"@ 	c #417267",
"# 	c #9BC894",
"$ 	c #24423A",
"% 	c #22413A",
"& 	c #204039",
"* 	c #99C693",
"= 	c #B8B17A",
"- 	c #2B544C",
"; 	c #C1C286",
"> 	c #22423A",
", 	c #224039",
"' 	c #9AC793",
") 	c #3E7166",
"! 	c #BEC186",
"~ 	c #B5AE78",
"{ 	c #417367",
"] 	c #2D564D",
"^ 	c #C0C186",
"/ 	c #E7E8AD",
"( 	c #437367",
"_ 	c #3F7166",
": 	c #B3AD77",
"< 	c #2F584D",
"[ 	c #417266",
"} 	c #ECF1B8",
"| 	c #E6E7AD",
"1 	c #B7B079",
"2 	c #427467",
"3 	c #2F584E",
"4 	c #2D574D",
"5 	c #B5AF78",
"6 	c #E5E7AC",
"7 	c #EDF2B9",
"8 	c #B6B079",
"9 	c #2F574D",
"0 	c #B3AD78",
"a 	c #437468",
"b 	c #2F594E",
"c 	c #2F594F",
"d 	c #24433B",
"e 	c #2D564C",
"f 	c #E3E6AC",
"g 	c #B6AF79",
"h 	c #203F39",
"i 	c #BEC086",
"j 	c #EFF3BA",
"k 	c #24443B",
"l 	c #021E22",
"m 	c #1A373B",
"n 	c #295551",
"o 	c #285450",
"p 	c #183438",
"q 	c #001C20",
"r 	c #3F7165",
"s 	c #C1C387",
"t 	c #BFC186",
"u 	c #30594F",
"v 	c #18353A",
"w 	c #A8C8AB",
"x 	c #4F7F67",
"y 	c #3C5D41",
"z 	c #2B5752",
"A 	c #173338",
"B 	c #2C554C",
"C 	c #ECF2B9",
"D 	c #C0C286",
"E 	c #295651",
"F 	c #94C18F",
"G 	c #18280D",
"H 	c #1F3114",
"I 	c #3C694B",
"J 	c #295552",
"K 	c #7EB470",
"L 	c #1B2B11",
"M 	c #213316",
"N 	c #3B684C",
"O 	c #285350",
"P 	c #173439",
"Q 	c #507E67",
"R 	c #386449",
"S 	c #3A654B",
"T 	c #1B393C",
"U 	c #EFF4BA",
"V 	c #011C20",
"W 	c #001B1F",
"X 	c #C2C388",
"Y 	c #B4AE78",
"Z 	c #E6E7AC",
"` 	c #2E574D",
" .	c #2A544B",
"..	c #E4E6AD",
"+.	c #2C564D",
"@.	c #E3E5AC",
"#.	c #EEF3BA",
"$.	c #B8B079",
"%.	c #B8B179",
"&.	c #2B554C",
"*.	c #E5E7AD",
"=.	c #C3C488",
"-.	c #437467",
";.	c #C2C387",
">.	c #000000",
",.	c #C4C1E5",
"'.	c #0C0B1B",
").	c #161430",
"!.	c #020204",
"~.	c #030206",
"{.	c #010101",
"].	c #040408",
"^.	c #090814",
"/.	c #030307",
"(.	c #191735",
"_.	c #171531",
":.	c #010103",
"<.	c #0C0B19",
"[.	c #07070F",
"}.	c #15132D",
"  .       . +     + .       . @   .       . +     + .       . @   .       . +     + .       . @   .       . +     + .       . @ ",
". # $ % & * = % - ; # > % , '   . # $ % & * = % - ; # > % , '   . # $ % & * = % - ; # > % , '   . # $ % & * = % - ; # > % , '   ",
"  $ ) ! ~ { ] ^ / ( _ : ^ @ < [   $ ) ! ~ { ] ^ / ( _ : ^ @ < [   $ ) ! ~ { ] ^ / ( _ : ^ @ < [   $ ) ! ~ { ] ^ / ( _ : ^ @ < [ ",
"  % : } | 1   2 3 4 5 6 7 8 9 [   % : } | 1   2 3 4 5 6 7 8 9 [   % : } | 1   2 3 4 5 6 7 8 9 [   % : } | 1   2 3 4 5 6 7 8 9 [ ",
"  % 0 6 a b c d b d d e f g 9 [   % 0 6 a b c d b d d e f g 9 [   % 0 6 a b c d b d d e f g 9 [   % 0 6 a b c d b d d e f g 9 [ ",
"  h i j k l m n o p q r 7 s ] [   h i j k l m n o p q r 7 s ] [   h i j k l m n o p q r 7 s ] [   h i j k l m n o p q r 7 s ] [ ",
". * t j u v w x y z A B C D #   . * t j u v w x y z A B C D #   . * t j u v w x y z A B C D #   . * t j u v w x y z A B C D #   ",
"  4 t j u E F G H I J r 7 s 3 [   4 t j u E F G H I J r 7 s 3 [   4 t j u E F G H I J r 7 s 3 [   4 t j u E F G H I J r 7 s 3 [ ",
"  & ! j d o K L M N O r 7 s ] [   & ! j d o K L M N O r 7 s ] [   & ! j d o K L M N O r 7 s ] [   & ! j d o K L M N O r 7 s ] [ ",
". * t j u P Q R S T A r 7 D #   . * t j u P Q R S T A r 7 D #   . * t j u P Q R S T A r 7 D #   . * t j u P Q R S T A r 7 D #   ",
"  4 t U d V A J O A W _ 7 X 3 [   4 t U d V A J O A W _ 7 X 3 [   4 t U d V A J O A W _ 7 X 3 [   4 t U d V A J O A W _ 7 X 3 [ ",
"  % Y Z e + ` [     +  .f 8 9 [   % Y Z e + ` [     +  .f 8 9 [   % Y Z e + ` [     +  .f 8 9 [   % Y Z e + ` [     +  .f 8 9 [ ",
"  % ~ 7 ..1   +.] ] ~ @.#.$.9 [   % ~ 7 ..1   +.] ] ~ @.#.$.9 [   % ~ 7 ..1   +.] ] ~ @.#.$.9 [   % ~ 7 ..1   +.] ] ~ @.#.$.9 [ ",
"  , + s %.[ &.*.=.+ _ g =.-.e [   , + s %.[ &.*.=.+ _ g =.-.e [   , + s %.[ &.*.=.+ _ g =.-.e [   , + s %.[ &.*.=.+ _ g =.-.e [ ",
". ' < 9 e * ;.3 ] 5 # 3 9 e '   . ' < 9 e * ;.3 ] 5 # 3 9 e '   . ' < 9 e * ;.3 ] 5 # 3 9 e '   . ' < 9 e * ;.3 ] 5 # 3 9 e '   ",
"@   [ [ [     [ [     [ [ [     @   [ [ [     [ [     [ [ [     @   [ [ [     [ [     [ [ [     @   [ [ [     [ [     [ [ [     ",
"  .       . +     + .       . @ >.,.>.>.'.>.>.>.).>.>.>.>.>.>.>.>.,.>.>.'.>.>.>.).>.>.>.>.>.>.>.  .       . +     + .       . @ ",
". # $ % & * = % - ; # > % , '   >.>.>.>.>.>.>.>.>.>.>.>.>.>.>.>.>.>.>.>.>.>.>.>.>.>.>.>.>.>.>.>.. # $ % & * = % - ; # > % , '   ",
"  $ ) ! ~ { ] ^ / ( _ : ^ @ < [ >.>.>.!.>.>.>.~.>.>.>.!.>.>.>.>.>.>.>.!.>.>.>.~.>.>.>.!.>.>.>.>.  $ ) ! ~ { ] ^ / ( _ : ^ @ < [ ",
"  % : } | 1   2 3 4 5 6 7 8 9 [ >.>.>.>.>.>.>.>.>.>.>.>.~.>.>.>.>.>.>.>.>.>.>.>.>.>.>.>.~.>.>.>.  % : } | 1   2 3 4 5 6 7 8 9 [ ",
"  % 0 6 a b c d b d d e f g 9 [ >.>.>.{.>.!.>.>.>.>.'.].>.>.>.>.>.>.>.{.>.!.>.>.>.>.'.].>.>.>.>.  % 0 6 a b c d b d d e f g 9 [ ",
"  h i j k l m n o p q r 7 s ] [ >.>.>.>.>.>.,.>.>.>.>.>.>.>.>.>.>.>.>.>.>.>.>.>.>.>.>.>.>.>.>.>.  h i j k l m n o p q r 7 s ] [ ",
". * t j u v w x y z A B C D #   >.>.>.>.>.>.>.>.>.>.>.>.>.>.>.>.>.>.>.>.>.>.>.>.>.>.>.>.>.>.>.>.. * t j u v w x y z A B C D #   ",
"  4 t j u E F G H I J r 7 s 3 [ >.>.>.>.>.>.>.>.>.>.>.>.>.{.>.].>.>.>.>.,.>.>.>.>.>.>.>.,.{.>.].  4 t j u E F G H I J r 7 s 3 [ ",
"  & ! j d o K L M N O r 7 s ] [ >.>.>.>.>.>.>.^.>.>.>.>.>.>.>.>.>.>.>.>.>.>.>.^.>.>.>.>.>.>.>.>.  & ! j d o K L M N O r 7 s ] [ ",
". * t j u P Q R S T A r 7 D #   >.>.>.>.>.>.>.>.>.>.>.>.>.>.>.>.>.>.>.>.>.>.>.>.>.>.>.>.>.>.>.>.. * t j u P Q R S T A r 7 D #   ",
"  4 t U d V A J O A W _ 7 X 3 [ >.>.>.>.>.>.>.>.>.>.>.>.>.>.>.>.>.>.>.>.>.>.>.>.>.>.>.>.>.>.>.>.  4 t U d V A J O A W _ 7 X 3 [ ",
"  % Y Z e + ` [     +  .f 8 9 [ >.>./.>.>.>.>.>.>.>.>.>.>.>.>.>.>.>./.>.>.>.>.>.>.,.>.>.>.>.>.>.  % Y Z e + ` [     +  .f 8 9 [ ",
"  % ~ 7 ..1   +.] ] ~ @.#.$.9 [ >.>.>.(.>.>.>.>._.>.>.>.>.>.>.>.>.>.>.(.>.>.>.>._.>.>.>.>.>.>.>.  % ~ 7 ..1   +.] ] ~ @.#.$.9 [ ",
"  , + s %.[ &.*.=.+ _ g =.-.e [ >.>.>.>.>.>.>.:.>.,.>.>.>.>.<.>.>.>.>.>.>.>.>.:.>.>.>.>.>.>.<.>.  , + s %.[ &.*.=.+ _ g =.-.e [ ",
". ' < 9 e * ;.3 ] 5 # 3 9 e '   [.>.>.>.>.>.>.>.>.>.>.}.].>./.>.[.>.>.>.>.>.>.>.>.>.>.}.].>./.>.. ' < 9 e * ;.3 ] 5 # 3 9 e '   ",
"@   [ [ [     [ [     [ [ [     >.>.>.>.>.>.>.>.>.>.>.>.>.>.>.>.>.>.>.>.>.>.>.>.>.>.>.>.>.>.>.>.@   [ [ [     [ [     [ [ [     ",
"  .       . +     + .       . @ >.,.>.>.'.>.>.>.).>.>.>.>.>.>.>.>.,.>.>.'.>.>.>.).>.>.>.>.>.>.>.  .       . +     + .       . @ ",
". # $ % & * = % - ; # > % , '   >.>.>.>.>.>.>.>.>.>.>.>.>.>.>.>.>.>.>.>.>.>.>.>.>.>.>.>.>.>.>.>.. # $ % & * = % - ; # > % , '   ",
"  $ ) ! ~ { ] ^ / ( _ : ^ @ < [ >.>.>.!.>.>.>.~.>.>.>.!.>.>.>.>.>.>.>.!.>.>.>.~.>.>.>.!.>.>.>.>.  $ ) ! ~ { ] ^ / ( _ : ^ @ < [ ",
"  % : } | 1   2 3 4 5 6 7 8 9 [ >.>.>.>.>.>.>.>.>.>.>.>.~.>.>.>.>.>.>.>.>.>.>.>.>.>.>.,.~.>.>.>.  % : } | 1   2 3 4 5 6 7 8 9 [ ",
"  % 0 6 a b c d b d d e f g 9 [ >.>.>.{.>.!.>.>.>.>.'.].>.>.>.>.>.>.>.{.>.!.>.>.>.>.'.].>.>.>.>.  % 0 6 a b c d b d d e f g 9 [ ",
"  h i j k l m n o p q r 7 s ] [ >.>.>.>.>.>.>.>.>.>.>.>.>.>.>.>.>.>.>.>.>.>.>.>.>.>.>.>.>.>.>.>.  h i j k l m n o p q r 7 s ] [ ",
". * t j u v w x y z A B C D #   >.>.>.>.>.>.>.>.,.>.>.>.>.>.>.>.>.>.>.>.>.>.>.>.>.>.>.>.>.>.>.>.. * t j u v w x y z A B C D #   ",
"  4 t j u E F G H I J r 7 s 3 [ >.>.>.>.>.>.>.>.>.>.>.>.>.{.>.].>.>.>.>.>.>.>.>.>.>.>.>.>.{.>.].  4 t j u E F G H I J r 7 s 3 [ ",
"  & ! j d o K L M N O r 7 s ] [ >.>.>.>.>.>.>.^.>.>.>.>.>.>.>.>.>.>.>.>.>.>.>.^.>.>.>.>.>.>.>.>.  & ! j d o K L M N O r 7 s ] [ ",
". * t j u P Q R S T A r 7 D #   >.>.>.>.>.>.>.>.>.>.>.>.>.>.>.>.>.>.>.>.>.>.>.>.>.>.>.>.>.>.>.>.. * t j u P Q R S T A r 7 D #   ",
"  4 t U d V A J O A W _ 7 X 3 [ >.>.>.>.>.>.>.>.>.>.>.>.>.>.>.>.>.>.>.>.>.>.>.>.>.>.,.>.>.>.>.>.  4 t U d V A J O A W _ 7 X 3 [ ",
"  % Y Z e + ` [     +  .f 8 9 [ >.>./.>.,.>.>.>.>.>.>.>.>.>.>.>.>.>./.>.>.>.>.>.>.>.>.>.>.>.>.>.  % Y Z e + ` [     +  .f 8 9 [ ",
"  % ~ 7 ..1   +.] ] ~ @.#.$.9 [ >.>.>.(.>.>.>.>._.>.>.>.>.>.>.,.>.>.>.(.>.>.>.>._.>.>.>.>.>.>.>.  % ~ 7 ..1   +.] ] ~ @.#.$.9 [ ",
"  , + s %.[ &.*.=.+ _ g =.-.e [ >.>.>.>.>.>.>.:.>.>.>.>.>.>.<.>.>.>.>.>.>.>.>.:.>.>.>.>.>.>.<.>.  , + s %.[ &.*.=.+ _ g =.-.e [ ",
". ' < 9 e * ;.3 ] 5 # 3 9 e '   [.>.>.>.>.>.>.>.>.>.>.}.].>./.>.[.>.>.>.>.>.>.>.>.>.>.}.].>./.>.. ' < 9 e * ;.3 ] 5 # 3 9 e '   ",
"@   [ [ [     [ [     [ [ [     >.>.>.>.>.>.>.>.>.>.>.>.>.>.>.>.>.>.>.>.>.>.>.>.>.>.>.>.>.>.>.>.@   [ [ [     [ [     [ [ [     ",
"  .       . +     + .       . @   .       . +     + .       . @   .       . +     + .       . @   .       . +     + .       . @ ",
". # $ % & * = % - ; # > % , '   . # $ % & * = % - ; # > % , '   . # $ % & * = % - ; # > % , '   . # $ % & * = % - ; # > % , '   ",
"  $ ) ! ~ { ] ^ / ( _ : ^ @ < [   $ ) ! ~ { ] ^ / ( _ : ^ @ < [   $ ) ! ~ { ] ^ / ( _ : ^ @ < [   $ ) ! ~ { ] ^ / ( _ : ^ @ < [ ",
"  % : } | 1   2 3 4 5 6 7 8 9 [   % : } | 1   2 3 4 5 6 7 8 9 [   % : } | 1   2 3 4 5 6 7 8 9 [   % : } | 1   2 3 4 5 6 7 8 9 [ ",
"  % 0 6 a b c d b d d e f g 9 [   % 0 6 a b c d b d d e f g 9 [   % 0 6 a b c d b d d e f g 9 [   % 0 6 a b c d b d d e f g 9 [ ",
"  h i j k l m n o p q r 7 s ] [   h i j k l m n o p q r 7 s ] [   h i j k l m n o p q r 7 s ] [   h i j k l m n o p q r 7 s ] [ ",
". * t j u v w x y z A B C D #   . * t j u v w x y z A B C D #   . * t j u v w x y z A B C D #   . * t j u v w x y z A B C D #   ",
"  4 t j u E F G H I J r 7 s 3 [   4 t j u E F G H I J r 7 s 3 [   4 t j u E F G H I J r 7 s 3 [   4 t j u E F G H I J r 7 s 3 [ ",
"  & ! j d o K L M N O r 7 s ] [   & ! j d o K L M N O r 7 s ] [   & ! j d o K L M N O r 7 s ] [   & ! j d o K L M N O r 7 s ] [ ",
". * t j u P Q R S T A r 7 D #   . * t j u P Q R S T A r 7 D #   . * t j u P Q R S T A r 7 D #   . * t j u P Q R S T A r 7 D #   ",
"  4 t U d V A J O A W _ 7 X 3 [   4 t U d V A J O A W _ 7 X 3 [   4 t U d V A J O A W _ 7 X 3 [   4 t U d V A J O A W _ 7 X 3 [ ",
"  % Y Z e + ` [     +  .f 8 9 [   % Y Z e + ` [     +  .f 8 9 [   % Y Z e + ` [     +  .f 8 9 [   % Y Z e + ` [     +  .f 8 9 [ ",
"  % ~ 7 ..1   +.] ] ~ @.#.$.9 [   % ~ 7 ..1   +.] ] ~ @.#.$.9 [   % ~ 7 ..1   +.] ] ~ @.#.$.9 [   % ~ 7 ..1   +.] ] ~ @.#.$.9 [ ",
"  , + s %.[ &.*.=.+ _ g =.-.e [   , + s %.[ &.*.=.+ _ g =.-.e [   , + s %.[ &.*.=.+ _ g =.-.e [   , + s %.[ &.*.=.+ _ g =.-.e [ ",
". ' < 9 e * ;.3 ] 5 # 3 9 e '   . ' < 9 e * ;.3 ] 5 # 3 9 e '   . ' < 9 e * ;.3 ] 5 # 3 9 e '   . ' < 9 e * ;.3 ] 5 # 3 9 e '   ",
"@   [ [ [     [ [     [ [ [     @   [ [ [     [ [     [ [ [     @   [ [ [     [ [     [ [ [     @   [ [ [     [ [     [ [ [     "};
