/* XPM */
static char * ender_eye_xpm[] = {
"64 64 152 2",
"  	c #B9855C",
". 	c #966C4A",
"+ 	c #79553A",
"@ 	c #593D29",
"# 	c #878787",
"$ 	c #9208FF",
"% 	c #6C6C6C",
"& 	c #001C20",
"* 	c #001B1F",
"= 	c #011D21",
"- 	c #153136",
"; 	c #173338",
"> 	c #163237",
", 	c #173337",
"' 	c #173439",
") 	c #26504E",
"! 	c #27524F",
"~ 	c #011C20",
"{ 	c #183439",
"] 	c #183539",
"^ 	c #285351",
"/ 	c #295552",
"( 	c #021E22",
"_ 	c #183438",
": 	c #1A373B",
"< 	c #1B383C",
"[ 	c #285450",
"} 	c #295551",
"| 	c #4C7A65",
"1 	c #507E68",
"2 	c #4E7C66",
"3 	c #39654B",
"4 	c #38644A",
"5 	c #37634A",
"6 	c #4C7965",
"7 	c #173238",
"8 	c #4E7D67",
"9 	c #52826A",
"0 	c #507F68",
"a 	c #3A664B",
"b 	c #386449",
"c 	c #39654A",
"d 	c #386549",
"e 	c #517F68",
"f 	c #53826B",
"g 	c #4F7D68",
"h 	c #18353A",
"i 	c #1B393C",
"j 	c #53806A",
"k 	c #57856E",
"l 	c #54836B",
"m 	c #3B674D",
"n 	c #396449",
"o 	c #3A654B",
"p 	c #518068",
"q 	c #53836B",
"r 	c #507E67",
"s 	c #265250",
"t 	c #2E5955",
"u 	c #A8C8AB",
"v 	c #B1D0B2",
"w 	c #AACAAC",
"x 	c #55836B",
"y 	c #4F7F67",
"z 	c #4F7D66",
"A 	c #3B5B41",
"B 	c #39583E",
"C 	c #3C5D41",
"D 	c #669F70",
"E 	c #6AA573",
"F 	c #659F70",
"G 	c #2B5752",
"H 	c #275250",
"I 	c #275451",
"J 	c #2F5B56",
"K 	c #AECCB0",
"L 	c #B8D5B7",
"M 	c #B0CEB1",
"N 	c #52816B",
"O 	c #518069",
"P 	c #67A170",
"Q 	c #6BA674",
"R 	c #66A171",
"S 	c #2C5853",
"T 	c #285452",
"U 	c #19373B",
"V 	c #295450",
"W 	c #305B56",
"X 	c #ABCBAD",
"Y 	c #B5D3B4",
"Z 	c #ADCCAE",
"` 	c #538069",
" .	c #4E7C65",
"..	c #4E7B63",
"+.	c #37553B",
"@.	c #3A5A3F",
"#.	c #68A170",
"$.	c #6CA773",
"%.	c #67A171",
"&.	c #2C5953",
"*.	c #285350",
"=.	c #376349",
"-.	c #3C684D",
";.	c #95C190",
">.	c #9CC996",
",.	c #94BF8E",
"'.	c #23361A",
").	c #1C2D12",
"!.	c #1D2F14",
"~.	c #1B2B11",
"{.	c #213316",
"].	c #7CB26E",
"^.	c #83BB74",
"/.	c #7EB470",
"(.	c #3B684C",
"_.	c #295651",
":.	c #3D694D",
"<.	c #94C18F",
"[.	c #9BC895",
"}.	c #92BE8C",
"|.	c #203115",
"1.	c #18280D",
"2.	c #1A2A0F",
"3.	c #19280E",
"4.	c #1F3114",
"5.	c #7EB36E",
"6.	c #85BC74",
"7.	c #7FB570",
"8.	c #3C694B",
"9.	c #295451",
"0.	c #93C08D",
"a.	c #9AC893",
"b.	c #91BD8B",
"c.	c #213216",
"d.	c #19290E",
"e.	c #1B2B10",
"f.	c #19290F",
"g.	c #7DB36E",
"h.	c #84BC74",
"i.	c #3C684B",
"j.	c #3C684C",
"k.	c #80B672",
"l.	c #85BD76",
"m.	c #7EB36F",
"n.	c #203114",
"o.	c #7DB36D",
"p.	c #37553C",
"q.	c #38573C",
"r.	c #3C5C41",
"s.	c #3A593F",
"t.	c #39593F",
"u.	c #745844",
"        . . . . . . . . + + + + + + + +         . . . . . . . . + + + + + + + + @ @ @ @ + + + + + + + +         + + + +         ",
"        . . . . . . . . + + + + + + + +         . . . . . . . . + + + + + + + + @ @ @ @ + + + + + + + +         + + + +         ",
"        . . . . . . . . + + + + + + + +         . . . . . . . . + + + + + + + + @ @ @ @ + + + + + + + +         + + + +         ",
"        . . . . . . . . + + + + + + + +         . . . . . . . . + + + + + + + + @ @ @ @ + + + + + + + +         + + + +         ",
"+ + + + . . . . @ @ @ @ + + + + + + + + . . . . # # # # @ @ @ @ + + + +         . . . . + + + +         . . . . @ @ @ @ @ @ @ @ ",
"+ + + + . $ $ $ @ @ @ @ + + + + + + + + . . . . # # # # @ @ @ @ + + + +         . . . . + + + +         . . . . @ @ @ @ @ @ @ @ ",
"+ + + $ . $ $ $ @ @ @ @ + + + + + + + + . . . . # # # # @ @ @ @ + + + +         . . . . + + + +         . . . . @ @ @ @ @ @ @ @ ",
"+ + + + . $ $ $ @ @ @ @ + $ + + + + + + . . . . # # # # @ @ @ @ + + + +         . . . . + + + +         . . . . @ @ @ @ @ @ @ @ ",
"    $ $ $ $ $ $ $ $ $ + @ @ @ @         + + + + + + + + + + + +         + + + + + + + + + + + + @ @ @ @ @ @ @ @         + + + + ",
"    $ $ $ $ $ $ $ $ $ + @ @ @ @         + + + + + + + + + + + +         + + + + + + + + + + + + @ @ @ @ @ @ @ @         + + + + ",
"    $ $ $ $ $ $ $ $ $ + @ @ @ @         + + + + + + + + + + + +         + + + + + + + + + + + + @ @ @ @ @ @ @ @         + + + + ",
"        + $ $ $ + + + + @ @ @ @         + + + + + + + + + + + +         + + + + + + + + + + + + @ @ @ @ @ @ @ @         + + + + ",
". . . . % $ $ $   $     + + + + . . . . @ @ @ @ + + + +         . . . . . . . . + + + + . . . . + + + +         . . . . + + + + ",
". . . . % $ $ $         + + $ + . . . . @ @ @ @ + + + +         . . . . . . . . + + + + . . . . + + + +         . . . . + + + + ",
". . . . % % % %         + + + + . . . . @ @ @ @ + + + +         . . . . . . . . + $ + + . . . . + + + +         . . . . + + + + ",
". . . . % % % %         + + + + . . . . @ @ @ @ + + + +         . . . . . . . . + + + + . . . . + + + +         . . . . + + + + ",
". . . . + + + + . . $ .         @ @ @ @ . . . . + + + + + + + + . . . . @ @ @ @ + + + + % % $ % + + + + . . . . @ @ @ @ + + + + ",
". . . . + + + + . . . .         @ @ @ @ . . . . + + + + + + + + . . . . @ @ @ @ + $ $ $ % % % % + + + + . . . . @ @ @ @ + + + + ",
". . . . + + + + . . . .         @ @ @ @ . . . . + + + + + + + + . . . . @ @ @ $ + $ $ $ % % % % + + + + . . . . @ @ @ @ + + + + ",
". . . . + + + + . . . .         @ @ @ @ . . . . + + + + + + + + . . . . @ @ @ @ + $ $ $ % % % % + + + + . . . . @ @ @ @ + + + + ",
"+ + + + @ @ @ @ . . . . . . . . + + + + & * = - ; > , > ' ) ! ! ! ! ) ' > , $ $ $ $ $ $ $ $ $ @ + + + + + + + + + + + +         ",
"+ + + + @ @ @ @ . . . . . . . . + + + + * * ~ ; { { ; ; ] ^ / / / / ^ ] ; ; $ $ $ $ $ $ $ $ $ @ + + + + + + + + + + + +         ",
"+ + + + @ @ @ @ . . . . . . . . + + + + = & ( > { _ : : < [ } } } } [ < : : $ $ $ $ $ $ $ $ $ @ + + + + + + + + + + + +         ",
"+ + + + @ @ @ @ . . . . . . . . + + + + > > > { ; : | 1 2 3 4 4 4 5 3 2 1 6 : ; { $ $ $ @ @ @ @ + + + + + + + + + + + +         ",
"        + + + + + + + + + + + + # # # # { { { ; 7 : 8 9 0 a b b c d a e f g : 7 ; $ $ $         + + + + . . . . + + + + . . . . ",
"        + + + + + + + + + + + + # # # # ; ; ' h { i j k l m 3 a n b o p q r i $ h $ $ $         + + + + . . . . + + + + . . . . ",
"        + + + + + + + + + + + + # # # # { ; h ! s t u v w x y z A B C D E F G H ! h ; { $       + + + + . . . . + + + + . . . . ",
"        + + + + + + + + + + + + # # # # ; ; ] ^ I J K L M k N O A B C P Q R S T ^ ] ; ;         + + + + . . . . + + + + . . . . ",
"+ + + + + + + +                 . . . . h ] U V [ W X Y Z `  ...B +.@.#.$.%.&.} V U ] h . . . . + + + + + + + + . . . . . . . . ",
"+ + + + + + + +                 . . . . *.*.[ 5 =.-.;.>.,.'.).!.).~.{.].^./.(.=.5 [ *.*.. . . . + + + + + + + + . . . . . . . . ",
"+ + + + + + + +                 . . . . / / _.4 b :.<.[.}.|.1.2.2.3.4.5.6.7.8.b 4 _./ / . . . . + + + + + + + + . . . . . . . . ",
"+ + + + + + + +                 . . . . 9.T } 4 b :.0.a.b.c.d.e.e.f.4.g.h.7.i.b 4 } T 9.. . . . + + + + + + + + . . . . . . . . ",
". . . . + + + + + + + + . . . . + + + + 9.T } 4 b j.k.l.m.n.d.e.e.f.4.g.h.7.i.b 4 } T 9.+ + + + + + + + + + + + @ @ @ @ + + + + ",
". . . . + + + + + + + + . . . . + + + + / / _.4 b 8.7.6.o.4.3.2.2.3.4.5.6.7.8.b 4 _./ / + + + + + + + + + + + + @ @ @ @ + + + + ",
". . . . + + + + + + + + . . . . + + + + *.*.[ 5 =.(./.^.].{.~.).).~.{.].^./.(.=.5 [ *.*.+ + + + + + + + + + + + @ @ @ @ + + + + ",
". . . . + + + + + + + + . . . . + + + + h ] U V } &.%.$.#.@.p.q.q.p.@.#.$.%.&.} V U ] h + + + + + + + + + + + + @ @ @ @ + + + + ",
"+ + + + . . . . @ @ @ @ + + + + + + + + ; ; ] ^ T S R Q P r.B s.s.B r.P Q R S T ^ ] ; ; + + + +                 + + + + . . . . ",
"+ + + + . . . . @ @ @ @ + + + + + + + + { ; h ! H G F E D r.B t.t.B r.D E F G H ! h ; { + + + +                 + + + + . . . . ",
"+ + + + . . . . @ @ @ @ + + + + + + + + ; ; ' h { i r q p o b n n b o p q r i { h ' ; ; + + + +                 + + + + . . . . ",
"+ + + + . . . . @ @ @ @ + + + + + + + + { { { ; 7 : g f e a b c c b a e f g : 7 ; { { { + + + +                 + + + + . . . . ",
"+ + + + . . . . + + + +                 > > > { ; : 6 1 2 3 5 4 4 5 3 2 1 6 : ; { > > > @ @ @ @ . . . . . . . . # # # # + + + + ",
"+ + + + . . . . + + + +                 = & ( > { { : : i V _.} } _.V i : : { { > ( & = @ @ @ @ . . . . . . . . # # # # + + + + ",
"+ + + + . . . . + + + +                 * * ~ > { ; ; 7 { *./ T T / *.{ 7 ; ; { > ~ * * @ @ @ @ . . . . . . . . # # # # + + + + ",
"+ + + + . . . . + + + +                 & * = > { ; { ; h *./ 9.9./ *.h ; { ; { > = * & @ @ @ @ . . . . . . . . # # # # + + + + ",
". . . . + + + + + + + + . . . . . . . .         + + + + . . . . % % % % . . . . . . . . + + + + @ @ @ @ . . . . + + + + @ @ @ @ ",
". . . . + + + + + + + + . . . . . . . .         + + + + . . . . % % % % . . . . . . . . + + + + @ @ @ @ . . . . + + + + @ @ @ @ ",
". . . . + + + + + + + + . . . . . . . .         + + + + . . . . % % % % . . . . . . . . + + + + @ @ @ @ . . . . + + + + @ @ @ @ ",
". . . . + + + + + + + + . . . . . . . .         + + + + . . . . % % % % . . . . . . . . + + + + @ @ @ @ . . . . + + + + @ @ @ @ ",
"+ + + + @ @ @ @ . . . . + + + + . . . . . . . .         + + + + + + + + + + + + + + + + + + + + + + + + + + + +                 ",
"+ + + + @ @ @ @ . . . . + + + + . . . . . . . .         + + + + + + + + + + + + + + + + + + + + + + + + + + + +                 ",
"+ + + + @ @ @ @ . . . . + + + + . . . . . . . .         + + + + + + + + + + + + + + + + + + + + + + + + + + + +                 ",
"+ + + + @ @ @ @ . . . . + + + + . . . . . $ . .         + + + + + + + + + + + + + + + + + + + + + + + + + + + +                 ",
"+ + + + . . . . + + + + + + + + u.u.u.u.+ + + + . $ . . . . . . + + + + @ @ @ @         @ @ @ @ + + + +         . . . . . . . . ",
"+ + + + . . . . + + + + + + + + u.u.u.u.$ $ $ + . . . . . . . . + + + + @ @ @ @         @ @ @ @ + + + +         . . . . . . . . ",
"+ + + + . . . . + + + + + + + + u.u.$ u.$ $ $ + $ . . . $ . . . + + + + @ @ @ @         @ @ @ @ + + + +         . . . . . . . . ",
"+ + + + . . . . + + + + + + + + u.u.u.u.$ $ $ + . . . . . . . . + + + + @ @ @ @         @ @ @ @ + + + +         . . . . . . . . ",
". . . . + + + + @ @ @ @         + $ $ $ $ $ $ $ $ $ + $ @ @ @ @                 + + + + . . . . + + + + + + + + . . . . . . . . ",
". . . . + + + + @ @ @ @         + $ $ $ $ $ $ $ $ $ + + @ @ @ @                 + + + + . . . . + + + + + + + + . . . . . . . . ",
". . . . + + + + @ @ @ @         + $ $ $ $ $ $ $ $ $ + + @ @ @ @                 + + + + . . . . + + + + + + + + . . . . . . . . ",
". . . . + + + + @ @ @ @         + + + + $ $ $ @ + + + + @ @ @ @                 + + + + . . . . + + + + + + + + . . . . . . . . ",
". . . . + + + +         . . . . . $ . . $ $ $ + # $ # # + + + + . . . . . . . . + + + + + + + + . . . . . . . . + + + + @ @ @ @ ",
". . . . + + + +         . . . . . . . . $ $ $ + # # # # + + + + . . . . . . . . + + + + + + + + . . . . . . . . + + + + @ @ @ @ ",
". . . . + + + +         . . . . . . . . + + + + # # # # + + + + . . . . . . . . + + + + + + + + . . . . . . . . + + + + @ @ @ @ ",
". . . . + + + +         . . . . . . . . + + + + # # # # + + + + . . . . . . . . + + + + + + + + . . . . . . . . + + + + @ @ @ @ "};
