/* XPM */
static char * grass_xpm[] = {
"64 64 7 1",
" 	c #B9855C",
".	c #966C4A",
"+	c #79553A",
"@	c #593D29",
"#	c #878787",
"$	c #6C6C6C",
"%	c #745844",
"    ........++++++++    ........++++++++@@@@++++++++    ++++    ",
"    ........++++++++    ........++++++++@@@@++++++++    ++++    ",
"    ........++++++++    ........++++++++@@@@++++++++    ++++    ",
"    ........++++++++    ........++++++++@@@@++++++++    ++++    ",
"++++....@@@@++++++++....####@@@@++++    ....++++    ....@@@@@@@@",
"++++....@@@@++++++++....####@@@@++++    ....++++    ....@@@@@@@@",
"++++....@@@@++++++++....####@@@@++++    ....++++    ....@@@@@@@@",
"++++....@@@@++++++++....####@@@@++++    ....++++    ....@@@@@@@@",
"    ++++++++@@@@    ++++++++++++    ++++++++++++@@@@@@@@    ++++",
"    ++++++++@@@@    ++++++++++++    ++++++++++++@@@@@@@@    ++++",
"    ++++++++@@@@    ++++++++++++    ++++++++++++@@@@@@@@    ++++",
"    ++++++++@@@@    ++++++++++++    ++++++++++++@@@@@@@@    ++++",
"....$$$$    ++++....@@@@++++    ........++++....++++    ....++++",
"....$$$$    ++++....@@@@++++    ........++++....++++    ....++++",
"....$$$$    ++++....@@@@++++    ........++++....++++    ....++++",
"....$$$$    ++++....@@@@++++    ........++++....++++    ....++++",
"....++++....    @@@@....++++++++....@@@@++++$$$$++++....@@@@++++",
"....++++....    @@@@....++++++++....@@@@++++$$$$++++....@@@@++++",
"....++++....    @@@@....++++++++....@@@@++++$$$$++++....@@@@++++",
"....++++....    @@@@....++++++++....@@@@++++$$$$++++....@@@@++++",
"++++@@@@........++++....@@@@@@@@@@@@++++++++@@@@++++++++++++    ",
"++++@@@@........++++....@@@@@@@@@@@@++++++++@@@@++++++++++++    ",
"++++@@@@........++++....@@@@@@@@@@@@++++++++@@@@++++++++++++    ",
"++++@@@@........++++....@@@@@@@@@@@@++++++++@@@@++++++++++++    ",
"    ++++++++++++####++++++++        ++++        ++++....++++....",
"    ++++++++++++####++++++++        ++++        ++++....++++....",
"    ++++++++++++####++++++++        ++++        ++++....++++....",
"    ++++++++++++####++++++++        ++++        ++++....++++....",
"++++++++        ........++++++++....@@@@........++++++++........",
"++++++++        ........++++++++....@@@@........++++++++........",
"++++++++        ........++++++++....@@@@........++++++++........",
"++++++++        ........++++++++....@@@@........++++++++........",
"....++++++++....++++....++++@@@@++++........++++++++++++@@@@++++",
"....++++++++....++++....++++@@@@++++........++++++++++++@@@@++++",
"....++++++++....++++....++++@@@@++++........++++++++++++@@@@++++",
"....++++++++....++++....++++@@@@++++........++++++++++++@@@@++++",
"++++....@@@@++++++++@@@@@@@@++++++++++++++++++++        ++++....",
"++++....@@@@++++++++@@@@@@@@++++++++++++++++++++        ++++....",
"++++....@@@@++++++++@@@@@@@@++++++++++++++++++++        ++++....",
"++++....@@@@++++++++@@@@@@@@++++++++++++++++++++        ++++....",
"++++....++++        ++++    ....@@@@        @@@@........####++++",
"++++....++++        ++++    ....@@@@        @@@@........####++++",
"++++....++++        ++++    ....@@@@        @@@@........####++++",
"++++....++++        ++++    ....@@@@        @@@@........####++++",
"....++++++++........    ++++....$$$$........++++@@@@....++++@@@@",
"....++++++++........    ++++....$$$$........++++@@@@....++++@@@@",
"....++++++++........    ++++....$$$$........++++@@@@....++++@@@@",
"....++++++++........    ++++....$$$$........++++@@@@....++++@@@@",
"++++@@@@....++++........    ++++++++++++++++++++++++++++        ",
"++++@@@@....++++........    ++++++++++++++++++++++++++++        ",
"++++@@@@....++++........    ++++++++++++++++++++++++++++        ",
"++++@@@@....++++........    ++++++++++++++++++++++++++++        ",
"++++....++++++++%%%%++++........++++@@@@    @@@@++++    ........",
"++++....++++++++%%%%++++........++++@@@@    @@@@++++    ........",
"++++....++++++++%%%%++++........++++@@@@    @@@@++++    ........",
"++++....++++++++%%%%++++........++++@@@@    @@@@++++    ........",
"....++++@@@@    ++++@@@@++++@@@@        ++++....++++++++........",
"....++++@@@@    ++++@@@@++++@@@@        ++++....++++++++........",
"....++++@@@@    ++++@@@@++++@@@@        ++++....++++++++........",
"....++++@@@@    ++++@@@@++++@@@@        ++++....++++++++........",
"....++++    ........++++####++++........++++++++........++++@@@@",
"....++++    ........++++####++++........++++++++........++++@@@@",
"....++++    ........++++####++++........++++++++........++++@@@@",
"....++++    ........++++####++++........++++++++........++++@@@@"};
