/* XPM */
static char * player_xpm[] = {
"64 64 27 1",
" 	c #B9855C",
".	c #966C4A",
"+	c #79553A",
"@	c #593D29",
"#	c #878787",
"$	c #000000",
"%	c #6C6C6C",
"&	c #33230E",
"*	c #50361D",
"=	c #E1AC94",
"-	c #CD977C",
";	c #BB8065",
">	c #89563A",
",	c #FFFFFF",
"'	c #523D89",
")	c #A47151",
"!	c #00B3B3",
"~	c #00CCCC",
"{	c #008F9A",
"]	c #332885",
"^	c #221A6B",
"/	c #5649CC",
"(	c #4538A6",
"_	c #393A3E",
":	c #4E4E53",
"<	c #2A2A2E",
"[	c #745844",
"    ........++++++++    ........++++++++@@@@++++++++    ++++    ",
"    ........++++++++    ........++++++++@@@@++++++++    ++++    ",
"    ........++++++++    ........++++++++@@@@++++++++    ++++    ",
"    ........++++++++    ........++++++++@@@@++++++++    ++++    ",
"++++....@@@@++++++++....####@@@@++++    ....++++    ....@@@@@@@@",
"++++....@@@@++++++++....####@@@@++++    ....++++    ....@@@@@@@@",
"++++....@@@@++++++++....####@@@@++++    ....++++    ....@@@@@@@@",
"++++....@@@@++++++++....####@@@@++++    ....++++    ....@@@@@@@@",
"    ++++++++@@@@    ++++++++++++    ++++++++++++@@@@@@@@    ++++",
"    ++++++++@@@@    ++++++++++++    ++++++++++++@@@@@@@@    ++++",
"    ++++++++@@@@    +$$$$$$$$$$$$$$$$$$$$$$+++++@@@@@@@@    ++++",
"    ++++++++@@@@    +$$$$$$$$$$$$$$$$$$$$$$+++++@@@@@@@@    ++++",
"....%%%%    ++++....@$$&&&&&&************$$+....++++    ....++++",
"....%%%%    ++++....@$$&&&&&&************$$+....++++    ....++++",
"....%%%%    ++++....@$$&&&&&&**====--;;**$$+....++++    ....++++",
"....%%%%    ++++....@$$&&&&&&**====--;;**$$+....++++    ....++++",
"....++++....    @@@@.$$&&&&&&----------;;$$+%%%%++++....@@@@++++",
"....++++....    @@@@.$$&&&&&&----------;;$$+%%%%++++....@@@@++++",
"....++++....    @@@@.$$&&>>&&,,''--;;'',,$$+%%%%++++....@@@@++++",
"....++++....    @@@@.$$&&>>&&,,''--;;'',,$$+%%%%++++....@@@@++++",
"++++@@@@........++++.$$&&))))---->>>>----$$+@@@@++++++++++++    ",
"++++@@@@........++++.$$&&))))---->>>>----$$+@@@@++++++++++++    ",
"++++@@@@........++++.$$>>))>>--**))))**;;$$+@@@@++++++++++++    ",
"++++@@@@........++++.$$>>))>>--**))))**;;$$+@@@@++++++++++++    ",
"    ++++++++++++####+$$))))>>;;********;;$$     ++++....++++....",
"    ++++++++++++####+$$))))>>;;********;;$$     ++++....++++....",
"    ++++++++++++###$$!!!!~~~~{{>>>>>>{{{{{{$$   ++++....++++....",
"    ++++++++++++###$$!!!!~~~~{{>>>>>>{{{{{{$$   ++++....++++....",
"++++++++        ...$$!!{{~~~~!!!!{{{{!!{{!!$$...++++++++........",
"++++++++        ...$$!!{{~~~~!!!!{{{{!!{{!!$$...++++++++........",
"++++++++        ...$${{{{!!~~!!~~{{~~~~!!!!$$...++++++++........",
"++++++++        ...$${{{{!!~~!!~~{{~~~~!!!!$$...++++++++........",
"....++++++++....+++$$>>>>--;;~~~~!!~~~~))))$$+++++++++++@@@@++++",
"....++++++++....+++$$>>>>--;;~~~~!!~~~~))))$$+++++++++++@@@@++++",
"....++++++++....+++$$))>>----~~~~!!~~~~;;))$$+++++++++++@@@@++++",
"....++++++++....+++$$))>>----~~~~!!~~~~;;))$$+++++++++++@@@@++++",
"++++....@@@@+++++++$$))))----~~~~!!~~~~;;;;$$+++        ++++....",
"++++....@@@@+++++++$$))))----~~~~!!~~~~;;;;$$+++        ++++....",
"++++....@@@@+++++++$$))))--;;!!]]]]]]]]));;$$+++        ++++....",
"++++....@@@@+++++++$$))))--;;!!]]]]]]]]));;$$+++        ++++....",
"++++....++++       $$$$$$^^^^////^^((]]$$$$$$@@@........####++++",
"++++....++++       $$$$$$^^^^////^^((]]$$$$$$@@@........####++++",
"++++....++++        +++$$]]]]////^^(((($$   @@@@........####++++",
"++++....++++        +++$$]]]]////^^(((($$   @@@@........####++++",
"....++++++++........   $$]]]]//((^^(((($$...++++@@@@....++++@@@@",
"....++++++++........   $$]]]]//((^^(((($$...++++@@@@....++++@@@@",
"....++++++++........   $$]]^^////^^((]]$$...++++@@@@....++++@@@@",
"....++++++++........   $$]]^^////^^((]]$$...++++@@@@....++++@@@@",
"++++@@@@....++++.......$$^^^^((//^^(((($$+++++++++++++++        ",
"++++@@@@....++++.......$$^^^^((//^^(((($$+++++++++++++++        ",
"++++@@@@....++++.......$$____::::<<____$$+++++++++++++++        ",
"++++@@@@....++++.......$$____::::<<____$$+++++++++++++++        ",
"++++....++++++++[[[[+++$$$$$$$$$$$$$$$$$$   @@@@++++    ........",
"++++....++++++++[[[[+++$$$$$$$$$$$$$$$$$$   @@@@++++    ........",
"++++....++++++++[[[[++++........++++@@@@    @@@@++++    ........",
"++++....++++++++[[[[++++........++++@@@@    @@@@++++    ........",
"....++++@@@@    ++++@@@@++++@@@@        ++++....++++++++........",
"....++++@@@@    ++++@@@@++++@@@@        ++++....++++++++........",
"....++++@@@@    ++++@@@@++++@@@@        ++++....++++++++........",
"....++++@@@@    ++++@@@@++++@@@@        ++++....++++++++........",
"....++++    ........++++####++++........++++++++........++++@@@@",
"....++++    ........++++####++++........++++++++........++++@@@@",
"....++++    ........++++####++++........++++++++........++++@@@@",
"....++++    ........++++####++++........++++++++........++++@@@@"};
