/* XPM */
static char * player2_xpm[] = {
"64 64 27 1",
" 	c #B9855C",
".	c #79553A",
"+	c #593D29",
"@	c #966C4A",
"#	c #878787",
"$	c #000000",
"%	c #50361D",
"&	c #33230E",
"*	c #6C6C6C",
"=	c #BB8065",
"-	c #CD977C",
";	c #E1AC94",
">	c #FFFFFF",
",	c #523D89",
"'	c #89563A",
")	c #A47151",
"!	c #008F9A",
"~	c #00CCCC",
"{	c #00B3B3",
"]	c #332885",
"^	c #4538A6",
"/	c #221A6B",
"(	c #5649CC",
"_	c #393A3E",
":	c #2A2A2E",
"<	c #4E4E53",
"[	c #745844",
"    ....    ........++++........@@@@@@@@    ........@@@@@@@@    ",
"    ....    ........++++........@@@@@@@@    ........@@@@@@@@    ",
"    ....    ........++++........@@@@@@@@    ........@@@@@@@@    ",
"    ....    ........++++........@@@@@@@@    ........@@@@@@@@    ",
"++++++++@@@@    ....@@@@    ....++++####@@@@........++++@@@@....",
"++++++++@@@@    ....@@@@    ....++++####@@@@........++++@@@@....",
"++++++++@@@@    ....@@@@    ....++++####@@@@........++++@@@@....",
"++++++++@@@@    ....@@@@    ....++++####@@@@........++++@@@@....",
"....    ++++++++............    ............    ++++........    ",
"....    ++++++++............    ............    ++++........    ",
"....    ++++++++.....$$$$$$$$$$$$$$$$$$$$$$.    ++++........    ",
"....    ++++++++.....$$$$$$$$$$$$$$$$$$$$$$.    ++++........    ",
"....@@@@    ....@@@@.$$%%%%%%%%%%%%&&&&&&$$+@@@@....    ****@@@@",
"....@@@@    ....@@@@.$$%%%%%%%%%%%%&&&&&&$$+@@@@....    ****@@@@",
"....@@@@    ....@@@@.$$%%==--;;;;%%&&&&&&$$+@@@@....    ****@@@@",
"....@@@@    ....@@@@.$$%%==--;;;;%%&&&&&&$$+@@@@....    ****@@@@",
"....++++@@@@....****.$$==----------&&&&&&$$@++++    @@@@....@@@@",
"....++++@@@@....****.$$==----------&&&&&&$$@++++    @@@@....@@@@",
"....++++@@@@....****.$$>>,,==--,,>>&&''&&$$@++++    @@@@....@@@@",
"....++++@@@@....****.$$>>,,==--,,>>&&''&&$$@++++    @@@@....@@@@",
"    ............++++.$$----''''----))))&&$$@....@@@@@@@@++++....",
"    ............++++.$$----''''----))))&&$$@....@@@@@@@@++++....",
"    ............++++.$$==%%))))%%--''))''$$@....@@@@@@@@++++....",
"    ............++++.$$==%%))))%%--''))''$$@....@@@@@@@@++++....",
"@@@@....@@@@....     $$==%%%%%%%%==''))))$$.####............    ",
"@@@@....@@@@....     $$==%%%%%%%%==''))))$$.####............    ",
"@@@@....@@@@....   $$!!!!!!''''''!!~~~~{{{{$$###............    ",
"@@@@....@@@@....   $$!!!!!!''''''!!~~~~{{{{$$###............    ",
"@@@@@@@@........@@@$${{!!{{!!!!{{{{~~~~!!{{$$@@@        ........",
"@@@@@@@@........@@@$${{!!{{!!!!{{{{~~~~!!{{$$@@@        ........",
"@@@@@@@@........@@@$${{{{~~~~!!~~{{~~{{!!!!$$@@@        ........",
"@@@@@@@@........@@@$${{{{~~~~!!~~{{~~{{!!!!$$@@@        ........",
"....++++...........$$))))~~~~{{~~~~==--''''$$...@@@@........@@@@",
"....++++...........$$))))~~~~{{~~~~==--''''$$...@@@@........@@@@",
"....++++...........$$))==~~~~{{~~~~----''))$$...@@@@........@@@@",
"....++++...........$$))==~~~~{{~~~~----''))$$...@@@@........@@@@",
"@@@@....        ...$$====~~~~{{~~~~----))))$$.......++++@@@@....",
"@@@@....        ...$$====~~~~{{~~~~----))))$$.......++++@@@@....",
"@@@@....        ...$$==))]]]]]]]]{{==--))))$$.......++++@@@@....",
"@@@@....        ...$$==))]]]]]]]]{{==--))))$$.......++++@@@@....",
"....####@@@@@@@@+++$$$$$$]]^^//((((////$$$$$$       ....@@@@....",
"....####@@@@@@@@+++$$$$$$]]^^//((((////$$$$$$       ....@@@@....",
"....####@@@@@@@@++++   $$^^^^//((((]]]]$$...        ....@@@@....",
"....####@@@@@@@@++++   $$^^^^//((((]]]]$$...        ....@@@@....",
"++++....@@@@++++....@@@$$^^^^//^^((]]]]$$   @@@@@@@@........@@@@",
"++++....@@@@++++....@@@$$^^^^//^^((]]]]$$   @@@@@@@@........@@@@",
"++++....@@@@++++....@@@$$]]^^//((((//]]$$   @@@@@@@@........@@@@",
"++++....@@@@++++....@@@$$]]^^//((((//]]$$   @@@@@@@@........@@@@",
"        ...............$$^^^^//((^^////$$@@@@@@@....@@@@++++....",
"        ...............$$^^^^//((^^////$$@@@@@@@....@@@@++++....",
"        ...............$$____::<<<<____$$@@@@@@@....@@@@++++....",
"        ...............$$____::<<<<____$$@@@@@@@....@@@@++++....",
"@@@@@@@@    ....++++   $$$$$$$$$$$$$$$$$$...[[[[........@@@@....",
"@@@@@@@@    ....++++   $$$$$$$$$$$$$$$$$$...[[[[........@@@@....",
"@@@@@@@@    ....++++    ++++....@@@@@@@@....[[[[........@@@@....",
"@@@@@@@@    ....++++    ++++....@@@@@@@@....[[[[........@@@@....",
"@@@@@@@@........@@@@....        ++++....++++....    ++++....@@@@",
"@@@@@@@@........@@@@....        ++++....++++....    ++++....@@@@",
"@@@@@@@@........@@@@....        ++++....++++....    ++++....@@@@",
"@@@@@@@@........@@@@....        ++++....++++....    ++++....@@@@",
"++++....@@@@@@@@........@@@@@@@@....####....@@@@@@@@    ....@@@@",
"++++....@@@@@@@@........@@@@@@@@....####....@@@@@@@@    ....@@@@",
"++++....@@@@@@@@........@@@@@@@@....####....@@@@@@@@    ....@@@@",
"++++....@@@@@@@@........@@@@@@@@....####....@@@@@@@@    ....@@@@"};
