/* XPM */
static char * portal_open_xpm[] = {
"64 64 263 2",
"  	c #0E0A18",
". 	c #0B0716",
"+ 	c #221A36",
"@ 	c #120A1C",
"# 	c #040309",
"$ 	c #100C1D",
"% 	c #211934",
"& 	c #06040D",
"* 	c #06030B",
"= 	c #160F24",
"- 	c #120D1F",
"; 	c #080511",
"> 	c #0B0514",
", 	c #07040F",
"' 	c #100819",
") 	c #0B0614",
"! 	c #110E1A",
"~ 	c #0F0C18",
"{ 	c #241C37",
"] 	c #150F1F",
"^ 	c #09080E",
"/ 	c #13101F",
"( 	c #221B35",
"_ 	c #0B0910",
": 	c #0B080F",
"< 	c #120F1C",
"[ 	c #0C0A13",
"} 	c #0F0A17",
"| 	c #070609",
"1 	c #0A080D",
"2 	c #0D0918",
"3 	c #0E091A",
"4 	c #0B0613",
"5 	c #271E3D",
"6 	c #35234C",
"7 	c #150E21",
"8 	c #090510",
"9 	c #110C1D",
"0 	c #0C0615",
"a 	c #040209",
"b 	c #0E0B1A",
"c 	c #120E1F",
"d 	c #241B39",
"e 	c #33224A",
"f 	c #120A1E",
"g 	c #020104",
"h 	c #010103",
"i 	c #0A0613",
"j 	c #010003",
"k 	c #030207",
"l 	c #0B0714",
"m 	c #171026",
"n 	c #34224B",
"o 	c #10091A",
"p 	c #05030A",
"q 	c #0C0616",
"r 	c #322149",
"s 	c #191128",
"t 	c #0A0612",
"u 	c #0F0B1A",
"v 	c #151023",
"w 	c #281D3D",
"x 	c #0F0819",
"y 	c #010002",
"z 	c #030206",
"A 	c #0C0917",
"B 	c #08040E",
"C 	c #140D21",
"D 	c #08040F",
"E 	c #070410",
"F 	c #271D3C",
"G 	c #161024",
"H 	c #04030A",
"I 	c #0F0B1B",
"J 	c #181127",
"K 	c #140E21",
"L 	c #020206",
"M 	c #010104",
"N 	c #07040C",
"O 	c #0D0917",
"P 	c #07040E",
"Q 	c #0E0A19",
"R 	c #130E20",
"S 	c #251B39",
"T 	c #080512",
"U 	c #241B38",
"V 	c #08050F",
"W 	c #07040D",
"X 	c #0D0A18",
"Y 	c #030208",
"Z 	c #06030C",
"` 	c #0C0715",
" .	c #100C1B",
"..	c #160F23",
"+.	c #070510",
"@.	c #201934",
"#.	c #140F22",
"$.	c #0E0A1A",
"%.	c #0B0715",
"&.	c #0F081A",
"*.	c #211935",
"=.	c #0F091A",
"-.	c #110D1E",
";.	c #241C39",
">.	c #020105",
",.	c #06040C",
"'.	c #100C1C",
").	c #090511",
"!.	c #130B1F",
"~.	c #140F21",
"{.	c #090512",
"].	c #261C3B",
"^.	c #332149",
"/.	c #140A1F",
"(.	c #150F23",
"_.	c #35234D",
":.	c #36234D",
"<.	c #0F0718",
"[.	c #1A1229",
"}.	c #0D0717",
"|.	c #07050E",
"1.	c #1A1129",
"2.	c #05030C",
"3.	c #241A38",
"4.	c #0D0816",
"5.	c #261C3A",
"6.	c #060309",
"7.	c #06040E",
"8.	c #150E22",
"9.	c #0C0816",
"0.	c #0F0919",
"a.	c #0E0919",
"b.	c #322148",
"c.	c #150F22",
"d.	c #181126",
"e.	c #050309",
"f.	c #35244C",
"g.	c #06030D",
"h.	c #171025",
"i.	c #1A1128",
"j.	c #090611",
"k.	c #120D1E",
"l.	c #010004",
"m.	c #050209",
"n.	c #0F0B17",
"o.	c #0F0B15",
"p.	c #141020",
"q.	c #120F1B",
"r.	c #0C0913",
"s.	c #0A080E",
"t.	c #060508",
"u.	c #0A070D",
"v.	c #060608",
"w.	c #0F0B18",
"x.	c #261D39",
"y.	c #0C0716",
"z.	c #000001",
"A.	c #3B2754",
"B.	c #4A11AB",
"C.	c #381195",
"D.	c #35128E",
"E.	c #391195",
"F.	c #3D119B",
"G.	c #4911A8",
"H.	c #3E119D",
"I.	c #331385",
"J.	c #381294",
"K.	c #33138A",
"L.	c #4611A6",
"M.	c #7722C8",
"N.	c #8A32D1",
"O.	c #5312B2",
"P.	c #321482",
"Q.	c #4110A0",
"R.	c #361290",
"S.	c #6517BD",
"T.	c #6317BB",
"U.	c #4210A1",
"V.	c #4D11AB",
"W.	c #6C1BC1",
"X.	c #5212B0",
"Y.	c #4410A4",
"Z.	c #6116BB",
"`.	c #5B14B7",
" +	c #5913B4",
".+	c #5914B7",
"++	c #34138C",
"@+	c #331389",
"#+	c #6D1DC2",
"$+	c #8F39D4",
"%+	c #4411A6",
"&+	c #4711A8",
"*+	c #3C119A",
"=+	c #381292",
"-+	c #6819C0",
";+	c #842FCE",
">+	c #5211B0",
",+	c #4911A9",
"'+	c #5713B4",
")+	c #40119F",
"!+	c #7F29CC",
"~+	c #7420C6",
"{+	c #311480",
"]+	c #4210A2",
"^+	c #741FC5",
"/+	c #842DCE",
"(+	c #7E28CC",
"_+	c #731FC6",
":+	c #8E38D4",
"<+	c #311485",
"[+	c #5412B2",
"}+	c #862FD1",
"|+	c #4811A6",
"1+	c #3A1197",
"2+	c #7521C6",
"3+	c #7C27CA",
"4+	c #4F12AE",
"5+	c #6C1AC1",
"6+	c #311482",
"7+	c #3A1199",
"8+	c #8C36D2",
"9+	c #913AD4",
"0+	c #822BCD",
"a+	c #802ACD",
"b+	c #5F16BB",
"c+	c #711EC5",
"d+	c #7823C9",
"e+	c #5012AF",
"f+	c #7923C9",
"g+	c #4D12AD",
"h+	c #5513B3",
"i+	c #6317BD",
"j+	c #3F119F",
"k+	c #3B119A",
"l+	c #6718BE",
"m+	c #4310A4",
"n+	c #6D1BC2",
"o+	c #9B48D9",
"p+	c #371291",
"q+	c #5D15B8",
"r+	c #5A13B4",
"s+	c #4411A4",
"t+	c #361292",
"u+	c #5B14B8",
"v+	c #4110A1",
"w+	c #3C119B",
"x+	c #8029CD",
"y+	c #5512B3",
"z+	c #6C1BC2",
"A+	c #321387",
"B+	c #3B1199",
"C+	c #34138A",
"D+	c #8E37D4",
"E+	c #36128F",
"F+	c #3E119B",
"G+	c #8A33D1",
"H+	c #5D14B9",
"I+	c #4811A9",
"J+	c #321385",
"K+	c #7824C8",
"L+	c #3F119D",
"M+	c #5F15B9",
"N+	c #7622C8",
"  . + @ # $ % & * = - ; > , ' ) ! ~ { ] ^ / ( _ : < < [ } | 1 : ! ~ { ] ^ / ( _ : < < [ } | 1 : 2 . + @ # $ % & * = - ; > , ' 3 ",
"4 + 5 6 7 8 9 0 a b c d e f g h i + 5 6 7 8 9 0 a b c d e f g h i + 5 6 7 8 9 0 a b c d e f g h i + 5 6 7 8 9 0 a b c d e f g j ",
"k l m n o p q r s t u v w 6 x y z l m n o p q r s t u v w 6 x y z l m n o p q r s t u v w 6 x y z l m n o p q r s t u v w 6 x j ",
"A B 8 C D g E F e G H I J 6 K L A B 8 C D g E F e G H I J 6 K L A B 8 C D g E F e G H I J 6 K L A B 8 C D g E F e G H I J 6 K M ",
"k 2 N H O P Q R J S T b v U ; j k 2 N H O P Q R J S T b v U ; j k 2 N H O P Q R J S T b v U ; j k 2 N H O P Q R J S T b v U ; j ",
"V ) W X Y Z `  ...6 K +.@.. 2 P W ) W X Y Z `  ...6 K +.@.. 2 P W ) W X Y Z `  ...6 K +.@.. 2 P W ) W X Y Z `  ...6 K +.@.. 2 & ",
"#.% ; $.P %.+ #.&.6 o g ) i B Q #.% ; $.P %.+ #.&.6 o g ) i B Q #.% ; $.P %.+ #.&.6 o g ) i B Q #.% ; $.P %.+ #.&.6 o g ) i B 2 ",
"*.=.I c u -.;.;.#.U 4 >.9 + &.l % =.I c u -.;.;.#.U 4 >.9 + &.l % =.I c u -.;.;.#.U 4 >.9 + &.l % =.I c u -.;.;.#.U 4 >.9 + &.,.",
"'.).c S !.).~.+ +.{.* h ` ].^.!.9 ).c S !.).~.+ +.{.* h ` ].^.!.9 ).c S !.).~.+ +.{.* h ` ].^.!.9 ).c S !.).~.+ +.{.* h ` ].^./.",
"T b (._.:.x W {.M P <.z Q R [.^.}.b (._.:.x W {.M P <.z Q R [.^.}.b (._.:.x W {.M P <.z Q R [.^.}.b (._.:.x W {.M P <.z Q R [.^.",
"|.Q ).1.6 0 g y 2.3.e > k X 4.U ` Q ).1.6 0 g y 2.3.e > k X 4.U ` Q ).1.6 0 g y 2.3.e > k X 4.U ` Q ).1.6 0 g y 2.3.e > k X 4.5.",
"6.z * 4.U ; O 7.h %.U i h Y i 4 * z * 4.U ; O 7.h %.U i h Y i 4 * z * 4.U ; O 7.h %.U i h Y i 4 * z * 4.U ; O 7.h %.U i h Y i %.",
"* p P 8.R Q 9.% x Z i Z B ~.d 0.Z p P 8.R Q 9.% x Z i Z B ~.d 0.Z p P 8.R Q 9.% x Z i Z B ~.d 0.Z p P 8.R Q 9.% x Z i Z B ~.d a.",
"4 M &.b.c.V $.d.r > e.Z 9 d f.F 4 M &.b.c.V $.d.r > e.Z 9 d f.F 4 M &.b.c.V $.d.r > e.Z 9 d f.F 4 M &.b.c.V $.d.r > e.Z 9 d f.F ",
"6.g.% h.'.+.D - U 7.y h Z ; i.n x g.% h.'.+.D - U 7.y h Z ; i.n x g.% h.'.+.D - U 7.y h Z ; i.n x g.% h.'.+.D - U 7.y h Z ; i.n ",
"D * t j.9 % . k.; e.l.m.M p ` U n.: o.[ p.( n.q.r.s.t.u.v.s.w.x.n.: o.[ p.( n.q.r.s.t.u.v.s.w.x.y.* t j.9 % . k.; e.l.m.M p ` 3.",
"* z.z.z.z.* '.* z.A.5 * * 5 A.5 B.C.D.E.F.G.H.I.E.B.J.K.L.M.N.O.B.C.D.E.F.G.H.I.E.B.J.K.L.M.N.O.* z.z.z.z.* '.* z.A.5 * * 5 A.5 ",
"* z.* '.z.'.* z.A.'.* * 5 A.'.* P.J.Q.R.F.S.T.U.V.W.X.Y.Z.`. +.+P.J.Q.R.F.S.T.U.V.W.X.Y.Z.`. +.+* z.* '.z.'.* z.A.'.* * 5 A.'.* ",
"z.z.A.A.5 z.* 5 5 '.'.z.'.5 z.* ++F.@+H.#+$+%+D.K.&+*+=+-+;+>+,+++F.@+H.#+$+%+D.K.&+*+=+-+;+>+,+z.z.A.A.5 z.* 5 5 '.'.z.'.5 z.* ",
"z.A.5 '.'.5 * '.* '.z.z.* '.* z.'+)+U.!+~+L.{+C.++]+]+I.F.^+/+,+'+)+U.!+~+L.{+C.++]+]+I.F.^+/+,+z.A.5 '.'.5 * '.* '.z.z.* '.* z.",
"z.5 '.'.'.z.z.z.z.z.z.* * * z.* (+B._+:+B.<+U.~+O.[+}+|+D.1+2+3+(+B._+:+B.<+U.~+O.[+}+|+D.1+2+3+z.5 '.'.'.z.z.z.z.z.z.* * * z.* ",
"'.'.'.z.z.'.* * * * A.5 * * z.z.>+4+5+H.6+7+8+(+9+`.0+a+V.@+7+b+>+4+5+H.6+7+8+(+9+`.0+a+V.@+7+b+'.'.'.z.z.'.* * * * A.5 * * z.z.",
"'.'.* '.5 A.A.5 * z.5 z.* z.z.* ++F.B.<+F.c+d+Z.S.e+Q.f+a+g+6+H.++F.B.<+F.c+d+Z.S.e+Q.f+a+g+6+H.'.'.* '.5 A.A.5 * z.5 z.* z.z.* ",
"* z.'.A.'.'.z.'.z.z.z.z.z.A.5 z.=+B.S.F.e+h+i+M.7+Q.j+k+l+(+Q.,+=+B.S.F.e+h+i+M.7+Q.j+k+l+(+Q.,+* z.'.A.'.'.z.'.z.z.z.z.z.A.5 z.",
"z.z.A.5 '.'.'.5 5 * z.z.5 '.'.'.@+G.g+m+,+B.n+o+E.@+I.Y.^+-+++E.@+G.g+m+,+B.n+o+E.@+I.Y.^+-+++E.z.z.A.5 '.'.'.5 5 * z.z.5 '.'.'.",
"5 '.z.z.'.* 5 5 '.* z.'.* '.* * p+H.B.D.p+q+T.r+,+@+Q.s+4+g+t+]+p+H.B.D.p+q+T.r+,+@+Q.s+4+g+t+]+5 '.z.z.'.* 5 5 '.* z.'.* '.* * ",
"'.* * z.* * * '.* * z.z.'.* z.5 V.`.(+X.K.++u+v+w+L.@+C.n+x+|+y+V.`.(+X.K.++u+v+w+L.@+C.n+x+|+y+'.* * z.* * * '.* * z.z.'.* z.5 ",
"z.'.* * '.z.* '.* A.A.5 '.'.'.'.v+C.z+:+V.A+J.L.B+D.C+`.D+'+E+v+v+C.z+:+V.A+J.L.B+D.C+`.D+'+E+v+z.'.* * '.z.* '.* A.A.5 '.'.'.'.",
"* A.A.'.z.'.'.'.5 A.'.* '.A.'.* F+D.@+q+0+y+K.k+H.C+'+G+e+++I.B.F+D.@+q+0+y+K.k+H.C+'+G+e+++I.B.* A.A.'.z.'.'.'.5 A.'.* '.A.'.* ",
"5 5 '.* * * z.'.'.'.* * * z.5 * B.e+<+D.#+G+'+%+L.'+9+ +A+J.`.4+B.e+<+D.#+G+'+%+L.'+9+ +A+J.`.4+5 5 '.* * * z.'.'.'.* * * z.5 * ",
"z.5 * * '.* 5 * * '.'.z.* z.z.* H+q+L.C+p+b+Z.B.I+.+X.J+C+b+K+.+H+q+L.C+p+b+Z.B.I+.+X.J+C+b+K+.+z.5 * * '.* 5 * * '.'.z.* z.z.* ",
"'.* z.'.z.* '.5 '.z.* * * * * * /+4+w+L+B+G.k+<+P.)+t+t+u+3+M+N+/+4+w+L+B+G.k+<+P.)+t+t+u+3+M+N+'.* z.'.z.* '.5 '.z.* * * * * * ",
"* z.z.z.z.* '.* z.A.5 * * 5 A.5 B.C.D.E.F.G.H.I.E.B.J.K.L.M.N.O.B.C.D.E.F.G.H.I.E.B.J.K.L.M.N.O.* z.z.z.z.* '.* z.A.5 * * 5 A.5 ",
"* z.* '.z.'.* z.A.'.* * 5 A.'.* P.J.Q.R.F.S.T.U.V.W.X.Y.Z.`. +.+P.J.Q.R.F.S.T.U.V.W.X.Y.Z.`. +.+* z.* '.z.'.* z.A.'.* * 5 A.'.* ",
"z.z.A.A.5 z.* 5 5 '.'.z.'.5 z.* ++F.@+H.#+$+%+D.K.&+*+=+-+;+>+,+++F.@+H.#+$+%+D.K.&+*+=+-+;+>+,+z.z.A.A.5 z.* 5 5 '.'.z.'.5 z.* ",
"z.A.5 '.'.5 * '.* '.z.z.* '.* z.'+)+U.!+~+L.{+C.++]+]+I.F.^+/+,+'+)+U.!+~+L.{+C.++]+]+I.F.^+/+,+z.A.5 '.'.5 * '.* '.z.z.* '.* z.",
"z.5 '.'.'.z.z.z.z.z.z.* * * z.* (+B._+:+B.<+U.~+O.[+}+|+D.1+2+3+(+B._+:+B.<+U.~+O.[+}+|+D.1+2+3+z.5 '.'.'.z.z.z.z.z.z.* * * z.* ",
"'.'.'.z.z.'.* * * * A.5 * * z.z.>+4+5+H.6+7+8+(+9+`.0+a+V.@+7+b+>+4+5+H.6+7+8+(+9+`.0+a+V.@+7+b+'.'.'.z.z.'.* * * * A.5 * * z.z.",
"'.'.* '.5 A.A.5 * z.5 z.* z.z.* ++F.B.<+F.c+d+Z.S.e+Q.f+a+g+6+H.++F.B.<+F.c+d+Z.S.e+Q.f+a+g+6+H.'.'.* '.5 A.A.5 * z.5 z.* z.z.* ",
"* z.'.A.'.'.z.'.z.z.z.z.z.A.5 z.=+B.S.F.e+h+i+M.7+Q.j+k+l+(+Q.,+=+B.S.F.e+h+i+M.7+Q.j+k+l+(+Q.,+* z.'.A.'.'.z.'.z.z.z.z.z.A.5 z.",
"z.z.A.5 '.'.'.5 5 * z.z.5 '.'.'.@+G.g+m+,+B.n+o+E.@+I.Y.^+-+++E.@+G.g+m+,+B.n+o+E.@+I.Y.^+-+++E.z.z.A.5 '.'.'.5 5 * z.z.5 '.'.'.",
"5 '.z.z.'.* 5 5 '.* z.'.* '.* * p+H.B.D.p+q+T.r+,+@+Q.s+4+g+t+]+p+H.B.D.p+q+T.r+,+@+Q.s+4+g+t+]+5 '.z.z.'.* 5 5 '.* z.'.* '.* * ",
"'.* * z.* * * '.* * z.z.'.* z.5 V.`.(+X.K.++u+v+w+L.@+C.n+x+|+y+V.`.(+X.K.++u+v+w+L.@+C.n+x+|+y+'.* * z.* * * '.* * z.z.'.* z.5 ",
"z.'.* * '.z.* '.* A.A.5 '.'.'.'.v+C.z+:+V.A+J.L.B+D.C+`.D+'+E+v+v+C.z+:+V.A+J.L.B+D.C+`.D+'+E+v+z.'.* * '.z.* '.* A.A.5 '.'.'.'.",
"* A.A.'.z.'.'.'.5 A.'.* '.A.'.* F+D.@+q+0+y+K.k+H.C+'+G+e+++I.B.F+D.@+q+0+y+K.k+H.C+'+G+e+++I.B.* A.A.'.z.'.'.'.5 A.'.* '.A.'.* ",
"5 5 '.* * * z.'.'.'.* * * z.5 * B.e+<+D.#+G+'+%+L.'+9+ +A+J.`.4+B.e+<+D.#+G+'+%+L.'+9+ +A+J.`.4+5 5 '.* * * z.'.'.'.* * * z.5 * ",
"z.5 * * '.* 5 * * '.'.z.* z.z.* H+q+L.C+p+b+Z.B.I+.+X.J+C+b+K+.+H+q+L.C+p+b+Z.B.I+.+X.J+C+b+K+.+z.5 * * '.* 5 * * '.'.z.* z.z.* ",
"'.* z.'.z.* '.5 '.z.* * * * * * /+4+w+L+B+G.k+<+P.)+t+t+u+3+M+N+/+4+w+L+B+G.k+<+P.)+t+t+u+3+M+N+'.* z.'.z.* '.5 '.z.* * * * * * ",
"  . + @ # $ % & * = - ; > , ' ) ! ~ { ] ^ / ( _ : < < [ } | 1 : ! ~ { ] ^ / ( _ : < < [ } | 1 : 2 . + @ # $ % & * = - ; > , ' 3 ",
"4 + 5 6 7 8 9 0 a b c d e f g h i + 5 6 7 8 9 0 a b c d e f g h i + 5 6 7 8 9 0 a b c d e f g h i + 5 6 7 8 9 0 a b c d e f g j ",
"k l m n o p q r s t u v w 6 x y z l m n o p q r s t u v w 6 x y z l m n o p q r s t u v w 6 x y z l m n o p q r s t u v w 6 x j ",
"A B 8 C D g E F e G H I J 6 K L A B 8 C D g E F e G H I J 6 K L A B 8 C D g E F e G H I J 6 K L A B 8 C D g E F e G H I J 6 K M ",
"k 2 N H O P Q R J S T b v U ; j k 2 N H O P Q R J S T b v U ; j k 2 N H O P Q R J S T b v U ; j k 2 N H O P Q R J S T b v U ; j ",
"V ) W X Y Z `  ...6 K +.@.. 2 P W ) W X Y Z `  ...6 K +.@.. 2 P W ) W X Y Z `  ...6 K +.@.. 2 P W ) W X Y Z `  ...6 K +.@.. 2 & ",
"#.% ; $.P %.+ #.&.6 o g ) i B Q #.% ; $.P %.+ #.&.6 o g ) i B Q #.% ; $.P %.+ #.&.6 o g ) i B Q #.% ; $.P %.+ #.&.6 o g ) i B 2 ",
"*.=.I c u -.;.;.#.U 4 >.9 + &.l % =.I c u -.;.;.#.U 4 >.9 + &.l % =.I c u -.;.;.#.U 4 >.9 + &.l % =.I c u -.;.;.#.U 4 >.9 + &.,.",
"'.).c S !.).~.+ +.{.* h ` ].^.!.9 ).c S !.).~.+ +.{.* h ` ].^.!.9 ).c S !.).~.+ +.{.* h ` ].^.!.9 ).c S !.).~.+ +.{.* h ` ].^./.",
"T b (._.:.x W {.M P <.z Q R [.^.}.b (._.:.x W {.M P <.z Q R [.^.}.b (._.:.x W {.M P <.z Q R [.^.}.b (._.:.x W {.M P <.z Q R [.^.",
"|.Q ).1.6 0 g y 2.3.e > k X 4.U ` Q ).1.6 0 g y 2.3.e > k X 4.U ` Q ).1.6 0 g y 2.3.e > k X 4.U ` Q ).1.6 0 g y 2.3.e > k X 4.5.",
"6.z * 4.U ; O 7.h %.U i h Y i 4 * z * 4.U ; O 7.h %.U i h Y i 4 * z * 4.U ; O 7.h %.U i h Y i 4 * z * 4.U ; O 7.h %.U i h Y i %.",
"* p P 8.R Q 9.% x Z i Z B ~.d 0.Z p P 8.R Q 9.% x Z i Z B ~.d 0.Z p P 8.R Q 9.% x Z i Z B ~.d 0.Z p P 8.R Q 9.% x Z i Z B ~.d a.",
"4 M &.b.c.V $.d.r > e.Z 9 d f.F 4 M &.b.c.V $.d.r > e.Z 9 d f.F 4 M &.b.c.V $.d.r > e.Z 9 d f.F 4 M &.b.c.V $.d.r > e.Z 9 d f.F ",
"6.g.% h.'.+.D - U 7.y h Z ; i.n x g.% h.'.+.D - U 7.y h Z ; i.n x g.% h.'.+.D - U 7.y h Z ; i.n x g.% h.'.+.D - U 7.y h Z ; i.n ",
"D * t j.9 % . k.; e.l.m.M p ` U n.: o.[ p.( n.q.r.s.t.u.v.s.w.x.n.: o.[ p.( n.q.r.s.t.u.v.s.w.x.y.* t j.9 % . k.; e.l.m.M p ` 3."};
