/* XPM */
static char * portal_closed_xpm[] = {
"64 64 179 2",
"  	c #0E0A18",
". 	c #0B0716",
"+ 	c #221A36",
"@ 	c #120A1C",
"# 	c #040309",
"$ 	c #100C1D",
"% 	c #211934",
"& 	c #06040D",
"* 	c #06030B",
"= 	c #160F24",
"- 	c #120D1F",
"; 	c #080511",
"> 	c #0B0514",
", 	c #07040F",
"' 	c #100819",
") 	c #0B0614",
"! 	c #110E1A",
"~ 	c #0F0C18",
"{ 	c #241C37",
"] 	c #150F1F",
"^ 	c #09080E",
"/ 	c #13101F",
"( 	c #221B35",
"_ 	c #0B0910",
": 	c #0B080F",
"< 	c #120F1C",
"[ 	c #0C0A13",
"} 	c #0F0A17",
"| 	c #070609",
"1 	c #0A080D",
"2 	c #0D0918",
"3 	c #0E091A",
"4 	c #0B0613",
"5 	c #271E3D",
"6 	c #35234C",
"7 	c #150E21",
"8 	c #090510",
"9 	c #110C1D",
"0 	c #0C0615",
"a 	c #040209",
"b 	c #0E0B1A",
"c 	c #120E1F",
"d 	c #241B39",
"e 	c #33224A",
"f 	c #120A1E",
"g 	c #020104",
"h 	c #010103",
"i 	c #0A0613",
"j 	c #010003",
"k 	c #030207",
"l 	c #0B0714",
"m 	c #171026",
"n 	c #34224B",
"o 	c #10091A",
"p 	c #05030A",
"q 	c #0C0616",
"r 	c #322149",
"s 	c #191128",
"t 	c #0A0612",
"u 	c #0F0B1A",
"v 	c #151023",
"w 	c #281D3D",
"x 	c #0F0819",
"y 	c #010002",
"z 	c #030206",
"A 	c #0C0917",
"B 	c #08040E",
"C 	c #140D21",
"D 	c #08040F",
"E 	c #070410",
"F 	c #271D3C",
"G 	c #161024",
"H 	c #04030A",
"I 	c #0F0B1B",
"J 	c #181127",
"K 	c #140E21",
"L 	c #020206",
"M 	c #010104",
"N 	c #07040C",
"O 	c #0D0917",
"P 	c #07040E",
"Q 	c #0E0A19",
"R 	c #130E20",
"S 	c #251B39",
"T 	c #080512",
"U 	c #241B38",
"V 	c #08050F",
"W 	c #07040D",
"X 	c #0D0A18",
"Y 	c #030208",
"Z 	c #06030C",
"` 	c #0C0715",
" .	c #100C1B",
"..	c #160F23",
"+.	c #070510",
"@.	c #201934",
"#.	c #140F22",
"$.	c #0E0A1A",
"%.	c #0B0715",
"&.	c #0F081A",
"*.	c #211935",
"=.	c #0F091A",
"-.	c #110D1E",
";.	c #241C39",
">.	c #020105",
",.	c #06040C",
"'.	c #100C1C",
").	c #090511",
"!.	c #130B1F",
"~.	c #140F21",
"{.	c #090512",
"].	c #261C3B",
"^.	c #332149",
"/.	c #140A1F",
"(.	c #150F23",
"_.	c #35234D",
":.	c #36234D",
"<.	c #0F0718",
"[.	c #1A1229",
"}.	c #0D0717",
"|.	c #07050E",
"1.	c #1A1129",
"2.	c #05030C",
"3.	c #241A38",
"4.	c #0D0816",
"5.	c #261C3A",
"6.	c #060309",
"7.	c #06040E",
"8.	c #150E22",
"9.	c #0C0816",
"0.	c #0F0919",
"a.	c #0E0919",
"b.	c #322148",
"c.	c #150F22",
"d.	c #181126",
"e.	c #050309",
"f.	c #35244C",
"g.	c #06030D",
"h.	c #171025",
"i.	c #1A1128",
"j.	c #090611",
"k.	c #120D1E",
"l.	c #010004",
"m.	c #050209",
"n.	c #0F0B17",
"o.	c #0F0B15",
"p.	c #141020",
"q.	c #120F1B",
"r.	c #0C0913",
"s.	c #0A080E",
"t.	c #060508",
"u.	c #0A070D",
"v.	c #060608",
"w.	c #0F0B18",
"x.	c #261D39",
"y.	c #0C0716",
"z.	c #000001",
"A.	c #3B2754",
"B.	c #B9855C",
"C.	c #966C4A",
"D.	c #79553A",
"E.	c #583C29",
"F.	c #78543A",
"G.	c #BA855C",
"H.	c #78553A",
"I.	c #583C28",
"J.	c #878888",
"K.	c #BA865C",
"L.	c #795439",
"M.	c #795539",
"N.	c #573C28",
"O.	c #6B6C6C",
"P.	c #6C6C6D",
"Q.	c #785439",
"R.	c #583D29",
"S.	c #976C4A",
"T.	c #745844",
"U.	c #BA865D",
"V.	c #878788",
"  . + @ # $ % & * = - ; > , ' ) ! ~ { ] ^ / ( _ : < < [ } | 1 : ! ~ { ] ^ / ( _ : < < [ } | 1 : 2 . + @ # $ % & * = - ; > , ' 3 ",
"4 + 5 6 7 8 9 0 a b c d e f g h i + 5 6 7 8 9 0 a b c d e f g h i + 5 6 7 8 9 0 a b c d e f g h i + 5 6 7 8 9 0 a b c d e f g j ",
"k l m n o p q r s t u v w 6 x y z l m n o p q r s t u v w 6 x y z l m n o p q r s t u v w 6 x y z l m n o p q r s t u v w 6 x j ",
"A B 8 C D g E F e G H I J 6 K L A B 8 C D g E F e G H I J 6 K L A B 8 C D g E F e G H I J 6 K L A B 8 C D g E F e G H I J 6 K M ",
"k 2 N H O P Q R J S T b v U ; j k 2 N H O P Q R J S T b v U ; j k 2 N H O P Q R J S T b v U ; j k 2 N H O P Q R J S T b v U ; j ",
"V ) W X Y Z `  ...6 K +.@.. 2 P W ) W X Y Z `  ...6 K +.@.. 2 P W ) W X Y Z `  ...6 K +.@.. 2 P W ) W X Y Z `  ...6 K +.@.. 2 & ",
"#.% ; $.P %.+ #.&.6 o g ) i B Q #.% ; $.P %.+ #.&.6 o g ) i B Q #.% ; $.P %.+ #.&.6 o g ) i B Q #.% ; $.P %.+ #.&.6 o g ) i B 2 ",
"*.=.I c u -.;.;.#.U 4 >.9 + &.l % =.I c u -.;.;.#.U 4 >.9 + &.l % =.I c u -.;.;.#.U 4 >.9 + &.l % =.I c u -.;.;.#.U 4 >.9 + &.,.",
"'.).c S !.).~.+ +.{.* h ` ].^.!.9 ).c S !.).~.+ +.{.* h ` ].^.!.9 ).c S !.).~.+ +.{.* h ` ].^.!.9 ).c S !.).~.+ +.{.* h ` ].^./.",
"T b (._.:.x W {.M P <.z Q R [.^.}.b (._.:.x W {.M P <.z Q R [.^.}.b (._.:.x W {.M P <.z Q R [.^.}.b (._.:.x W {.M P <.z Q R [.^.",
"|.Q ).1.6 0 g y 2.3.e > k X 4.U ` Q ).1.6 0 g y 2.3.e > k X 4.U ` Q ).1.6 0 g y 2.3.e > k X 4.U ` Q ).1.6 0 g y 2.3.e > k X 4.5.",
"6.z * 4.U ; O 7.h %.U i h Y i 4 * z * 4.U ; O 7.h %.U i h Y i 4 * z * 4.U ; O 7.h %.U i h Y i 4 * z * 4.U ; O 7.h %.U i h Y i %.",
"* p P 8.R Q 9.% x Z i Z B ~.d 0.Z p P 8.R Q 9.% x Z i Z B ~.d 0.Z p P 8.R Q 9.% x Z i Z B ~.d 0.Z p P 8.R Q 9.% x Z i Z B ~.d a.",
"4 M &.b.c.V $.d.r > e.Z 9 d f.F 4 M &.b.c.V $.d.r > e.Z 9 d f.F 4 M &.b.c.V $.d.r > e.Z 9 d f.F 4 M &.b.c.V $.d.r > e.Z 9 d f.F ",
"6.g.% h.'.+.D - U 7.y h Z ; i.n x g.% h.'.+.D - U 7.y h Z ; i.n x g.% h.'.+.D - U 7.y h Z ; i.n x g.% h.'.+.D - U 7.y h Z ; i.n ",
"D * t j.9 % . k.; e.l.m.M p ` U n.: o.[ p.( n.q.r.s.t.u.v.s.w.x.n.: o.[ p.( n.q.r.s.t.u.v.s.w.x.y.* t j.9 % . k.; e.l.m.M p ` 3.",
"* z.z.z.z.* '.* z.A.5 * * 5 A.5 B.C.C.D.D.B.C.C.D.D.E.D.F.G.H.B.B.C.C.D.D.B.C.C.D.D.E.D.F.G.H.B.* z.z.z.z.* '.* z.A.5 * * 5 A.5 ",
"* z.* '.z.'.* z.A.'.* * 5 A.'.* F.C.I.D.H.C.J.I.H.K.C.H.K.C.I.E.F.C.I.D.H.C.J.I.H.K.C.H.K.C.I.E.* z.* '.z.'.* z.A.'.* * 5 A.'.* ",
"z.z.A.A.5 z.* 5 5 '.'.z.'.5 z.* G.L.D.I.K.D.M.H.K.F.D.D.I.N.K.D.G.L.D.I.K.D.M.H.K.F.D.D.I.N.K.D.z.z.A.A.5 z.* 5 5 '.'.z.'.5 z.* ",
"z.A.5 '.'.5 * '.* '.z.z.* '.* z.C.O.G.F.C.I.D.K.C.C.D.C.D.K.C.D.C.O.G.F.C.I.D.K.C.C.D.C.D.K.C.D.z.A.5 '.'.5 * '.* '.z.z.* '.* z.",
"z.5 '.'.'.z.z.z.z.z.z.* * * z.* C.D.C.K.N.C.D.D.C.I.D.P.D.C.I.D.C.D.C.K.N.C.D.D.C.I.D.P.D.C.I.D.z.5 '.'.'.z.z.z.z.z.z.* * * z.* ",
"'.'.'.z.z.'.* * * * A.5 * * z.z.D.E.C.C.M.C.E.E.I.D.D.I.D.D.D.G.D.E.C.C.M.C.E.E.I.D.D.I.D.D.D.G.'.'.'.z.z.'.* * * * A.5 * * z.z.",
"'.'.* '.5 A.A.5 * z.5 z.* z.z.* G.D.H.Q.J.L.D.K.G.H.G.G.H.C.D.C.G.D.H.Q.J.L.D.K.G.H.G.G.H.C.D.C.'.'.* '.5 A.A.5 * z.5 z.* z.z.* ",
"* z.'.A.'.'.z.'.z.z.z.z.z.A.5 z.H.D.G.B.C.C.D.D.C.I.C.C.D.D.C.C.H.D.G.B.C.C.D.D.C.I.C.C.D.D.C.C.* z.'.A.'.'.z.'.z.z.z.z.z.A.5 z.",
"z.z.A.5 '.'.'.5 5 * z.z.5 '.'.'.C.D.D.C.D.C.D.R.D.C.C.D.D.D.E.D.C.D.D.C.D.C.D.R.D.C.C.D.D.D.E.D.z.z.A.5 '.'.'.5 5 * z.z.5 '.'.'.",
"5 '.z.z.'.* 5 5 '.* z.'.* '.* * D.C.E.D.D.E.I.D.D.H.H.D.G.G.L.C.D.C.E.D.D.E.I.D.D.H.H.D.G.G.L.C.5 '.z.z.'.* 5 5 '.* z.'.* '.* * ",
"'.* * z.* * * '.* * z.z.'.* z.5 D.C.D.G.G.Q.K.C.I.G.G.I.C.C.J.M.D.C.D.G.G.Q.K.C.I.G.G.I.C.C.J.M.'.* * z.* * * '.* * z.z.'.* z.5 ",
"z.'.* * '.z.* '.* A.A.5 '.'.'.'.C.D.D.C.C.G.Q.C.P.C.C.D.I.C.L.I.C.D.D.C.C.G.Q.C.P.C.C.D.I.C.L.I.z.'.* * '.z.* '.* A.A.5 '.'.'.'.",
"* A.A.'.z.'.'.'.5 A.'.* '.A.'.* D.I.S.D.C.C.G.F.D.D.H.D.D.F.G.B.D.I.S.D.C.C.G.F.D.D.H.D.D.F.G.B.* A.A.'.z.'.'.'.5 A.'.* '.A.'.* ",
"5 5 '.* * * z.'.'.'.* * * z.5 * D.S.D.D.T.D.C.C.D.N.U.I.D.K.C.C.D.S.D.D.T.D.C.C.D.N.U.I.D.K.C.C.5 5 '.* * * z.'.'.'.* * * z.5 * ",
"z.5 * * '.* 5 * * '.'.z.* z.z.* C.D.N.K.D.R.M.I.G.G.F.S.D.F.C.C.C.D.N.K.D.R.M.I.G.G.F.S.D.F.C.C.z.5 * * '.* 5 * * '.'.z.* z.z.* ",
"'.* z.'.z.* '.5 '.z.* * * * * * C.H.G.C.C.M.V.M.C.C.D.D.C.C.D.R.C.H.G.C.C.M.V.M.C.C.D.D.C.C.D.R.'.* z.'.z.* '.5 '.z.* * * * * * ",
"* z.z.z.z.* '.* z.A.5 * * 5 A.5 B.C.C.D.D.B.C.C.D.D.E.D.F.G.H.B.B.C.C.D.D.B.C.C.D.D.E.D.F.G.H.B.* z.z.z.z.* '.* z.A.5 * * 5 A.5 ",
"* z.* '.z.'.* z.A.'.* * 5 A.'.* F.C.I.D.H.C.J.I.H.K.C.H.K.C.I.E.F.C.I.D.H.C.J.I.H.K.C.H.K.C.I.E.* z.* '.z.'.* z.A.'.* * 5 A.'.* ",
"z.z.A.A.5 z.* 5 5 '.'.z.'.5 z.* G.L.D.I.K.D.M.H.K.F.D.D.I.N.K.D.G.L.D.I.K.D.M.H.K.F.D.D.I.N.K.D.z.z.A.A.5 z.* 5 5 '.'.z.'.5 z.* ",
"z.A.5 '.'.5 * '.* '.z.z.* '.* z.C.O.G.F.C.I.D.K.C.C.D.C.D.K.C.D.C.O.G.F.C.I.D.K.C.C.D.C.D.K.C.D.z.A.5 '.'.5 * '.* '.z.z.* '.* z.",
"z.5 '.'.'.z.z.z.z.z.z.* * * z.* C.D.C.K.N.C.D.D.C.I.D.P.D.C.I.D.C.D.C.K.N.C.D.D.C.I.D.P.D.C.I.D.z.5 '.'.'.z.z.z.z.z.z.* * * z.* ",
"'.'.'.z.z.'.* * * * A.5 * * z.z.D.E.C.C.M.C.E.E.I.D.D.I.D.D.D.G.D.E.C.C.M.C.E.E.I.D.D.I.D.D.D.G.'.'.'.z.z.'.* * * * A.5 * * z.z.",
"'.'.* '.5 A.A.5 * z.5 z.* z.z.* G.D.H.Q.J.L.D.K.G.H.G.G.H.C.D.C.G.D.H.Q.J.L.D.K.G.H.G.G.H.C.D.C.'.'.* '.5 A.A.5 * z.5 z.* z.z.* ",
"* z.'.A.'.'.z.'.z.z.z.z.z.A.5 z.H.D.G.B.C.C.D.D.C.I.C.C.D.D.C.C.H.D.G.B.C.C.D.D.C.I.C.C.D.D.C.C.* z.'.A.'.'.z.'.z.z.z.z.z.A.5 z.",
"z.z.A.5 '.'.'.5 5 * z.z.5 '.'.'.C.D.D.C.D.C.D.R.D.C.C.D.D.D.E.D.C.D.D.C.D.C.D.R.D.C.C.D.D.D.E.D.z.z.A.5 '.'.'.5 5 * z.z.5 '.'.'.",
"5 '.z.z.'.* 5 5 '.* z.'.* '.* * D.C.E.D.D.E.I.D.D.H.H.D.G.G.L.C.D.C.E.D.D.E.I.D.D.H.H.D.G.G.L.C.5 '.z.z.'.* 5 5 '.* z.'.* '.* * ",
"'.* * z.* * * '.* * z.z.'.* z.5 D.C.D.G.G.Q.K.C.I.G.G.I.C.C.J.M.D.C.D.G.G.Q.K.C.I.G.G.I.C.C.J.M.'.* * z.* * * '.* * z.z.'.* z.5 ",
"z.'.* * '.z.* '.* A.A.5 '.'.'.'.C.D.D.C.C.G.Q.C.P.C.C.D.I.C.L.I.C.D.D.C.C.G.Q.C.P.C.C.D.I.C.L.I.z.'.* * '.z.* '.* A.A.5 '.'.'.'.",
"* A.A.'.z.'.'.'.5 A.'.* '.A.'.* D.I.S.D.C.C.G.F.D.D.H.D.D.F.G.B.D.I.S.D.C.C.G.F.D.D.H.D.D.F.G.B.* A.A.'.z.'.'.'.5 A.'.* '.A.'.* ",
"5 5 '.* * * z.'.'.'.* * * z.5 * D.S.D.D.T.D.C.C.D.N.U.I.D.K.C.C.D.S.D.D.T.D.C.C.D.N.U.I.D.K.C.C.5 5 '.* * * z.'.'.'.* * * z.5 * ",
"z.5 * * '.* 5 * * '.'.z.* z.z.* C.D.N.K.D.R.M.I.G.G.F.S.D.F.C.C.C.D.N.K.D.R.M.I.G.G.F.S.D.F.C.C.z.5 * * '.* 5 * * '.'.z.* z.z.* ",
"'.* z.'.z.* '.5 '.z.* * * * * * C.H.G.C.C.M.V.M.C.C.D.D.C.C.D.R.C.H.G.C.C.M.V.M.C.C.D.D.C.C.D.R.'.* z.'.z.* '.5 '.z.* * * * * * ",
"  . + @ # $ % & * = - ; > , ' ) ! ~ { ] ^ / ( _ : < < [ } | 1 : ! ~ { ] ^ / ( _ : < < [ } | 1 : 2 . + @ # $ % & * = - ; > , ' 3 ",
"4 + 5 6 7 8 9 0 a b c d e f g h i + 5 6 7 8 9 0 a b c d e f g h i + 5 6 7 8 9 0 a b c d e f g h i + 5 6 7 8 9 0 a b c d e f g j ",
"k l m n o p q r s t u v w 6 x y z l m n o p q r s t u v w 6 x y z l m n o p q r s t u v w 6 x y z l m n o p q r s t u v w 6 x j ",
"A B 8 C D g E F e G H I J 6 K L A B 8 C D g E F e G H I J 6 K L A B 8 C D g E F e G H I J 6 K L A B 8 C D g E F e G H I J 6 K M ",
"k 2 N H O P Q R J S T b v U ; j k 2 N H O P Q R J S T b v U ; j k 2 N H O P Q R J S T b v U ; j k 2 N H O P Q R J S T b v U ; j ",
"V ) W X Y Z `  ...6 K +.@.. 2 P W ) W X Y Z `  ...6 K +.@.. 2 P W ) W X Y Z `  ...6 K +.@.. 2 P W ) W X Y Z `  ...6 K +.@.. 2 & ",
"#.% ; $.P %.+ #.&.6 o g ) i B Q #.% ; $.P %.+ #.&.6 o g ) i B Q #.% ; $.P %.+ #.&.6 o g ) i B Q #.% ; $.P %.+ #.&.6 o g ) i B 2 ",
"*.=.I c u -.;.;.#.U 4 >.9 + &.l % =.I c u -.;.;.#.U 4 >.9 + &.l % =.I c u -.;.;.#.U 4 >.9 + &.l % =.I c u -.;.;.#.U 4 >.9 + &.,.",
"'.).c S !.).~.+ +.{.* h ` ].^.!.9 ).c S !.).~.+ +.{.* h ` ].^.!.9 ).c S !.).~.+ +.{.* h ` ].^.!.9 ).c S !.).~.+ +.{.* h ` ].^./.",
"T b (._.:.x W {.M P <.z Q R [.^.}.b (._.:.x W {.M P <.z Q R [.^.}.b (._.:.x W {.M P <.z Q R [.^.}.b (._.:.x W {.M P <.z Q R [.^.",
"|.Q ).1.6 0 g y 2.3.e > k X 4.U ` Q ).1.6 0 g y 2.3.e > k X 4.U ` Q ).1.6 0 g y 2.3.e > k X 4.U ` Q ).1.6 0 g y 2.3.e > k X 4.5.",
"6.z * 4.U ; O 7.h %.U i h Y i 4 * z * 4.U ; O 7.h %.U i h Y i 4 * z * 4.U ; O 7.h %.U i h Y i 4 * z * 4.U ; O 7.h %.U i h Y i %.",
"* p P 8.R Q 9.% x Z i Z B ~.d 0.Z p P 8.R Q 9.% x Z i Z B ~.d 0.Z p P 8.R Q 9.% x Z i Z B ~.d 0.Z p P 8.R Q 9.% x Z i Z B ~.d a.",
"4 M &.b.c.V $.d.r > e.Z 9 d f.F 4 M &.b.c.V $.d.r > e.Z 9 d f.F 4 M &.b.c.V $.d.r > e.Z 9 d f.F 4 M &.b.c.V $.d.r > e.Z 9 d f.F ",
"6.g.% h.'.+.D - U 7.y h Z ; i.n x g.% h.'.+.D - U 7.y h Z ; i.n x g.% h.'.+.D - U 7.y h Z ; i.n x g.% h.'.+.D - U 7.y h Z ; i.n ",
"D * t j.9 % . k.; e.l.m.M p ` U n.: o.[ p.( n.q.r.s.t.u.v.s.w.x.n.: o.[ p.( n.q.r.s.t.u.v.s.w.x.y.* t j.9 % . k.; e.l.m.M p ` 3."};
